%TF.GenerationSoftware,KiCad,Pcbnew,9.0.7*%
%TF.CreationDate,2026-02-16T17:50:47-05:00*%
%TF.ProjectId,drone-receiver-board,64726f6e-652d-4726-9563-65697665722d,rev?*%
%TF.SameCoordinates,Original*%
%TF.FileFunction,Copper,L1,Top*%
%TF.FilePolarity,Positive*%
%FSLAX46Y46*%
G04 Gerber Fmt 4.6, Leading zero omitted, Abs format (unit mm)*
G04 Created by KiCad (PCBNEW 9.0.7) date 2026-02-16 17:50:47*
%MOMM*%
%LPD*%
G01*
G04 APERTURE LIST*
G04 Aperture macros list*
%AMRoundRect*
0 Rectangle with rounded corners*
0 $1 Rounding radius*
0 $2 $3 $4 $5 $6 $7 $8 $9 X,Y pos of 4 corners*
0 Add a 4 corners polygon primitive as box body*
4,1,4,$2,$3,$4,$5,$6,$7,$8,$9,$2,$3,0*
0 Add four circle primitives for the rounded corners*
1,1,$1+$1,$2,$3*
1,1,$1+$1,$4,$5*
1,1,$1+$1,$6,$7*
1,1,$1+$1,$8,$9*
0 Add four rect primitives between the rounded corners*
20,1,$1+$1,$2,$3,$4,$5,0*
20,1,$1+$1,$4,$5,$6,$7,0*
20,1,$1+$1,$6,$7,$8,$9,0*
20,1,$1+$1,$8,$9,$2,$3,0*%
G04 Aperture macros list end*
%TA.AperFunction,SMDPad,CuDef*%
%ADD10RoundRect,0.237500X-0.250000X-0.237500X0.250000X-0.237500X0.250000X0.237500X-0.250000X0.237500X0*%
%TD*%
%TA.AperFunction,ComponentPad*%
%ADD11RoundRect,0.250000X-0.550000X-0.550000X0.550000X-0.550000X0.550000X0.550000X-0.550000X0.550000X0*%
%TD*%
%TA.AperFunction,SMDPad,CuDef*%
%ADD12RoundRect,0.150000X-0.625000X0.150000X-0.625000X-0.150000X0.625000X-0.150000X0.625000X0.150000X0*%
%TD*%
%TA.AperFunction,SMDPad,CuDef*%
%ADD13RoundRect,0.250000X-0.650000X0.350000X-0.650000X-0.350000X0.650000X-0.350000X0.650000X0.350000X0*%
%TD*%
%TA.AperFunction,SMDPad,CuDef*%
%ADD14RoundRect,0.237500X0.250000X0.237500X-0.250000X0.237500X-0.250000X-0.237500X0.250000X-0.237500X0*%
%TD*%
%TA.AperFunction,ComponentPad*%
%ADD15RoundRect,0.250000X-0.550000X0.550000X-0.550000X-0.550000X0.550000X-0.550000X0.550000X0.550000X0*%
%TD*%
%TA.AperFunction,ComponentPad*%
%ADD16R,1.700000X1.700000*%
%TD*%
%TA.AperFunction,ComponentPad*%
%ADD17C,1.700000*%
%TD*%
%TA.AperFunction,SMDPad,CuDef*%
%ADD18RoundRect,0.150000X0.625000X-0.150000X0.625000X0.150000X-0.625000X0.150000X-0.625000X-0.150000X0*%
%TD*%
%TA.AperFunction,SMDPad,CuDef*%
%ADD19RoundRect,0.250000X0.650000X-0.350000X0.650000X0.350000X-0.650000X0.350000X-0.650000X-0.350000X0*%
%TD*%
%TA.AperFunction,ViaPad*%
%ADD20C,0.600000*%
%TD*%
%TA.AperFunction,Conductor*%
%ADD21C,0.200000*%
%TD*%
%TA.AperFunction,Conductor*%
%ADD22C,0.400000*%
%TD*%
G04 APERTURE END LIST*
D10*
%TO.P,R6,1*%
%TO.N,GND*%
X119000000Y-62400000D03*
%TO.P,R6,2*%
%TO.N,/GPIO1*%
X120825000Y-62400000D03*
%TD*%
D11*
%TO.P,J12,1,Pin_1*%
%TO.N,/GPIO44*%
X113200000Y-92750000D03*
%TD*%
D12*
%TO.P,J2,1,Pin_1*%
%TO.N,/SCL*%
X111750000Y-76300000D03*
%TO.P,J2,2,Pin_2*%
%TO.N,/SDA*%
X111750000Y-77300000D03*
%TO.P,J2,3,Pin_3*%
%TO.N,+3.3V*%
X111750000Y-78300000D03*
%TO.P,J2,4,Pin_4*%
%TO.N,GND*%
X111750000Y-79300000D03*
D13*
%TO.P,J2,MP*%
%TO.N,N/C*%
X107875000Y-75000000D03*
X107875000Y-80600000D03*
%TD*%
D10*
%TO.P,R7,1*%
%TO.N,GND*%
X119000000Y-64900000D03*
%TO.P,R7,2*%
%TO.N,/GPIO2*%
X120825000Y-64900000D03*
%TD*%
D11*
%TO.P,J14,1,Pin_1*%
%TO.N,/GPIO4*%
X108204000Y-67978000D03*
%TD*%
D12*
%TO.P,J3,1,Pin_1*%
%TO.N,/SCL*%
X111750000Y-84500000D03*
%TO.P,J3,2,Pin_2*%
%TO.N,/SDA*%
X111750000Y-85500000D03*
%TO.P,J3,3,Pin_3*%
%TO.N,+3.3V*%
X111750000Y-86500000D03*
%TO.P,J3,4,Pin_4*%
%TO.N,GND*%
X111750000Y-87500000D03*
D13*
%TO.P,J3,MP*%
%TO.N,N/C*%
X107875000Y-83200000D03*
X107875000Y-88800000D03*
%TD*%
D11*
%TO.P,J11,1,Pin_1*%
%TO.N,/GPIO7*%
X120200000Y-92750000D03*
%TD*%
%TO.P,J8,1,Pin_1*%
%TO.N,/VSense*%
X119200000Y-84200000D03*
%TD*%
%TO.P,J13,1,Pin_1*%
%TO.N,/GPIO3*%
X138684000Y-66548000D03*
%TD*%
D14*
%TO.P,R4,1*%
%TO.N,+3.3V*%
X120825000Y-75000000D03*
%TO.P,R4,2*%
%TO.N,/SCL*%
X119000000Y-75000000D03*
%TD*%
D10*
%TO.P,R8,1*%
%TO.N,/GPIO2*%
X122725000Y-64900000D03*
%TO.P,R8,2*%
%TO.N,/VSense*%
X124550000Y-64900000D03*
%TD*%
D15*
%TO.P,J19,1,Pin_1*%
%TO.N,/SCL*%
X138684000Y-73548000D03*
%TD*%
D14*
%TO.P,R3,1*%
%TO.N,+3.3V*%
X120825000Y-72750000D03*
%TO.P,R3,2*%
%TO.N,/SDA*%
X119000000Y-72750000D03*
%TD*%
D11*
%TO.P,J16,1,Pin_1*%
%TO.N,/SDA*%
X138684000Y-77048000D03*
%TD*%
%TO.P,J7,1,Pin_1*%
%TO.N,/ISense*%
X116200000Y-84200000D03*
%TD*%
D16*
%TO.P,J1,1,Pin_1*%
%TO.N,/GPIO1*%
X116260000Y-62340000D03*
D17*
%TO.P,J1,2,Pin_2*%
%TO.N,/GPIO2*%
X116260000Y-64880000D03*
%TO.P,J1,3,Pin_3*%
%TO.N,/GPIO3*%
X116260000Y-67420000D03*
%TO.P,J1,4,Pin_4*%
%TO.N,/GPIO4*%
X116260000Y-69960000D03*
%TO.P,J1,5,Pin_5*%
%TO.N,/SDA*%
X116260000Y-72500000D03*
%TO.P,J1,6,Pin_6*%
%TO.N,/SCL*%
X116260000Y-75040000D03*
%TO.P,J1,7,Pin_7*%
%TO.N,/GPIO43*%
X116260000Y-77580000D03*
%TO.P,J1,8,Pin_8*%
%TO.N,/GPIO44*%
X131500000Y-77580000D03*
%TO.P,J1,9,Pin_9*%
%TO.N,/GPIO7*%
X131500000Y-75040000D03*
%TO.P,J1,10,Pin_10*%
%TO.N,/GPIO8*%
X131500000Y-72500000D03*
%TO.P,J1,11,Pin_11*%
%TO.N,/GPIO9*%
X131500000Y-69960000D03*
%TO.P,J1,12,Pin_12*%
%TO.N,+3.3V*%
X131500000Y-67420000D03*
%TO.P,J1,13,Pin_13*%
%TO.N,GND*%
X131500000Y-64880000D03*
D16*
%TO.P,J1,14,Pin_14*%
%TO.N,+5V*%
X131500000Y-62340000D03*
%TD*%
D18*
%TO.P,J4,1,Pin_1*%
%TO.N,/SCL*%
X135725000Y-87500000D03*
%TO.P,J4,2,Pin_2*%
%TO.N,/SDA*%
X135725000Y-86500000D03*
%TO.P,J4,3,Pin_3*%
%TO.N,+3.3V*%
X135725000Y-85500000D03*
%TO.P,J4,4,Pin_4*%
%TO.N,GND*%
X135725000Y-84500000D03*
D19*
%TO.P,J4,MP*%
%TO.N,N/C*%
X139600000Y-88800000D03*
X139600000Y-83200000D03*
%TD*%
D11*
%TO.P,J6,1,Pin_1*%
%TO.N,GND*%
X119200000Y-87750000D03*
%TD*%
%TO.P,J18,1,Pin_1*%
%TO.N,/SCL*%
X138684000Y-80548000D03*
%TD*%
D15*
%TO.P,J17,1,Pin_1*%
%TO.N,/SDA*%
X138684000Y-70048000D03*
%TD*%
D11*
%TO.P,J5,1,Pin_1*%
%TO.N,+5V*%
X116200000Y-87750000D03*
%TD*%
%TO.P,J9,1,Pin_1*%
%TO.N,/GPIO9*%
X134200000Y-92750000D03*
%TD*%
D10*
%TO.P,R5,1*%
%TO.N,/GPIO1*%
X122750000Y-62400000D03*
%TO.P,R5,2*%
%TO.N,/ISense*%
X124575000Y-62400000D03*
%TD*%
D11*
%TO.P,J10,1,Pin_1*%
%TO.N,/GPIO8*%
X127200000Y-92750000D03*
%TD*%
%TO.P,J15,1,Pin_1*%
%TO.N,/GPIO43*%
X108204000Y-71628000D03*
%TD*%
D20*
%TO.N,/SDA*%
X113800000Y-76900000D03*
X117475000Y-70749000D03*
%TO.N,GND*%
X126500000Y-68300000D03*
X110800000Y-72850000D03*
X119100000Y-78300000D03*
X139400000Y-61000000D03*
X128600000Y-78900000D03*
X122100000Y-70300000D03*
X134700000Y-66600000D03*
X109200000Y-81900000D03*
X107100000Y-93700000D03*
X140700000Y-68700000D03*
X107600000Y-90800000D03*
X116700000Y-90500000D03*
X107500000Y-73375000D03*
X112300000Y-81700000D03*
X106900000Y-65400000D03*
X140700000Y-73200000D03*
X122500000Y-94800000D03*
X121700000Y-63700000D03*
X107275000Y-61500000D03*
X136500000Y-61900000D03*
X110750000Y-60775000D03*
X121800000Y-61400000D03*
X135800000Y-72400000D03*
X119200000Y-88900000D03*
X110225000Y-75400000D03*
X130700000Y-65700000D03*
X106725000Y-69775000D03*
X119200000Y-86700000D03*
X118200000Y-62400000D03*
X128600000Y-74200000D03*
X140500000Y-81100000D03*
X112800000Y-79300000D03*
X106700000Y-81900000D03*
X140800000Y-77100000D03*
X122400000Y-74100000D03*
X115600000Y-82100000D03*
X135700000Y-83900000D03*
X137800000Y-68400000D03*
X130700000Y-64100000D03*
X110300000Y-64400000D03*
X113100000Y-90100000D03*
X123600000Y-80000000D03*
X137900000Y-64300000D03*
X136700000Y-94700000D03*
X128300000Y-65600000D03*
X121300000Y-66400000D03*
X140000000Y-86000000D03*
X111750000Y-88000000D03*
X107900000Y-77900000D03*
X137800000Y-87700000D03*
X125600000Y-63600000D03*
X119000000Y-65700000D03*
X137200000Y-90600000D03*
X112825000Y-62050000D03*
X113775000Y-69775000D03*
X119800000Y-94800000D03*
X121300000Y-82600000D03*
X110350000Y-69725000D03*
X112775000Y-65250000D03*
X113500000Y-94800000D03*
X126000000Y-76800000D03*
X113975000Y-72800000D03*
X119500000Y-69500000D03*
X120300000Y-87800000D03*
X117400000Y-80000000D03*
X110300000Y-94400000D03*
X125200000Y-94800000D03*
X140100000Y-90800000D03*
X139900000Y-94100000D03*
X120800000Y-76500000D03*
X111760178Y-79865495D03*
X126900000Y-61900000D03*
X135800000Y-75100000D03*
X118000000Y-87700000D03*
X108100000Y-86100000D03*
X119000000Y-61600000D03*
X134500000Y-60900000D03*
X133800000Y-94800000D03*
X123600000Y-85100000D03*
X115400000Y-80300000D03*
X130900000Y-94800000D03*
X114700000Y-84200000D03*
X126000000Y-82400000D03*
X112900000Y-87500000D03*
X128300000Y-94800000D03*
X118000000Y-64900000D03*
X135700000Y-80900000D03*
X117000000Y-94800000D03*
X136800000Y-84500000D03*
X135800000Y-77900000D03*
X110725000Y-66550000D03*
X135100000Y-69500000D03*
X140700000Y-65800000D03*
%TO.N,+3.3V*%
X132839566Y-68839566D03*
%TO.N,/ISense*%
X124000000Y-73600000D03*
X124575000Y-62400000D03*
%TO.N,/VSense*%
X124600000Y-64900000D03*
X124640384Y-76040384D03*
%TD*%
D21*
%TO.N,/GPIO1*%
X119996000Y-63629000D02*
X117054000Y-63629000D01*
X116260000Y-62835000D02*
X116260000Y-62340000D01*
X120825000Y-62800000D02*
X119996000Y-63629000D01*
X117054000Y-63629000D02*
X116260000Y-62835000D01*
X122750000Y-62300000D02*
X120825000Y-62300000D01*
X120825000Y-62300000D02*
X120825000Y-62800000D01*
%TO.N,/SDA*%
X138684000Y-77048000D02*
X138100000Y-77632000D01*
X115109000Y-68134760D02*
X115783240Y-68809000D01*
X111708550Y-83891450D02*
X110674000Y-82856900D01*
X113400000Y-77300000D02*
X113800000Y-76900000D01*
X119000000Y-72750000D02*
X116510000Y-72750000D01*
X112166968Y-85500000D02*
X111750000Y-85500000D01*
X115109000Y-61291000D02*
X115109000Y-68134760D01*
X115899000Y-60501000D02*
X115109000Y-61291000D01*
X112524999Y-85500000D02*
X112900000Y-85124999D01*
X132530100Y-60501000D02*
X115899000Y-60501000D01*
X137476100Y-65447000D02*
X132530100Y-60501000D01*
X110975001Y-77300000D02*
X111750000Y-77300000D01*
X112900000Y-84233032D02*
X112558418Y-83891450D01*
X137998000Y-85001999D02*
X136499999Y-86500000D01*
X137898840Y-79447000D02*
X137583000Y-79762840D01*
X139800000Y-68932000D02*
X139800000Y-65777840D01*
X138684000Y-77048000D02*
X137583000Y-75947000D01*
X137583000Y-71149000D02*
X138684000Y-70048000D01*
X138100000Y-79447000D02*
X137898840Y-79447000D01*
X112900000Y-85124999D02*
X112900000Y-84233032D01*
X137898840Y-81649000D02*
X137998000Y-81649000D01*
X139800000Y-65777840D02*
X139469160Y-65447000D01*
X137583000Y-79762840D02*
X137583000Y-81333160D01*
X116510000Y-72750000D02*
X116260000Y-72500000D01*
X110674000Y-82856900D02*
X110674000Y-77601001D01*
X117475000Y-69547240D02*
X117475000Y-70749000D01*
X112558418Y-83891450D02*
X111708550Y-83891450D01*
X111750000Y-77300000D02*
X113400000Y-77300000D01*
X137583000Y-81333160D02*
X137898840Y-81649000D01*
X139469160Y-65447000D02*
X137476100Y-65447000D01*
X111750000Y-85500000D02*
X112524999Y-85500000D01*
X136499999Y-86500000D02*
X135725000Y-86500000D01*
X110674000Y-77601001D02*
X110975001Y-77300000D01*
X116736760Y-68809000D02*
X117475000Y-69547240D01*
X137583000Y-75947000D02*
X137583000Y-71149000D01*
X137998000Y-81649000D02*
X137998000Y-85001999D01*
X138100000Y-77632000D02*
X138100000Y-79447000D01*
X115783240Y-68809000D02*
X116736760Y-68809000D01*
X138684000Y-70048000D02*
X139800000Y-68932000D01*
%TO.N,GND*%
X119000000Y-64900000D02*
X118000000Y-64900000D01*
X111750000Y-79300000D02*
X111700000Y-79300000D01*
%TO.N,/GPIO7*%
X132651000Y-76191000D02*
X131500000Y-75040000D01*
X120200000Y-92750000D02*
X132651000Y-80299000D01*
X132651000Y-80299000D02*
X132651000Y-76191000D01*
%TO.N,/GPIO4*%
X114278000Y-67978000D02*
X116260000Y-69960000D01*
X108204000Y-67978000D02*
X114278000Y-67978000D01*
%TO.N,/GPIO8*%
X133052000Y-74052000D02*
X131500000Y-72500000D01*
X133052000Y-80465100D02*
X133052000Y-74052000D01*
X127200000Y-92750000D02*
X127200000Y-86317100D01*
X127200000Y-86317100D02*
X133052000Y-80465100D01*
%TO.N,/GPIO9*%
X133900000Y-92450000D02*
X133900000Y-91600000D01*
X133900000Y-91600000D02*
X133500000Y-91200000D01*
X133500000Y-71960000D02*
X131500000Y-69960000D01*
X134200000Y-92750000D02*
X133900000Y-92450000D01*
X133500000Y-91200000D02*
X133500000Y-71960000D01*
%TO.N,/SCL*%
X139785000Y-79447000D02*
X138684000Y-80548000D01*
X111750000Y-84500000D02*
X111100000Y-84500000D01*
X135725000Y-93111160D02*
X135725000Y-87500000D01*
X111750000Y-84500000D02*
X110200000Y-82950000D01*
X110600000Y-92036160D02*
X112414840Y-93851000D01*
X110200000Y-82950000D02*
X110200000Y-77075001D01*
X138684000Y-73548000D02*
X139785000Y-74649000D01*
X111750000Y-76300000D02*
X115000000Y-76300000D01*
X110600000Y-85000000D02*
X110600000Y-92036160D01*
X138399000Y-80833000D02*
X138399000Y-85301000D01*
X115000000Y-76300000D02*
X116260000Y-75040000D01*
X110200000Y-77075001D02*
X110975001Y-76300000D01*
X136200000Y-87500000D02*
X135725000Y-87500000D01*
X118710000Y-75040000D02*
X116260000Y-75040000D01*
X112414840Y-93851000D02*
X134985160Y-93851000D01*
X110975001Y-76300000D02*
X111750000Y-76300000D01*
X119000000Y-75000000D02*
X118750000Y-75000000D01*
X139785000Y-74649000D02*
X139785000Y-79447000D01*
X111100000Y-84500000D02*
X110600000Y-85000000D01*
X118750000Y-75000000D02*
X118710000Y-75040000D01*
X138684000Y-80548000D02*
X138399000Y-80833000D01*
X134985160Y-93851000D02*
X135725000Y-93111160D01*
X138399000Y-85301000D02*
X136200000Y-87500000D01*
%TO.N,/GPIO44*%
X119099000Y-92750000D02*
X119099000Y-91964840D01*
X119414840Y-91649000D02*
X120733900Y-91649000D01*
X132250000Y-78330000D02*
X131500000Y-77580000D01*
X120733900Y-91649000D02*
X132250000Y-80132900D01*
X113200000Y-92750000D02*
X119099000Y-92750000D01*
X132250000Y-80132900D02*
X132250000Y-78330000D01*
X119099000Y-91964840D02*
X119414840Y-91649000D01*
%TO.N,/GPIO43*%
X108204000Y-71628000D02*
X108483000Y-71349000D01*
X118854634Y-71349000D02*
X119788500Y-72282866D01*
X117675634Y-77580000D02*
X116260000Y-77580000D01*
X119788500Y-72282866D02*
X119788500Y-75467134D01*
X119788500Y-75467134D02*
X117675634Y-77580000D01*
X108483000Y-71349000D02*
X118854634Y-71349000D01*
%TO.N,/GPIO3*%
X132364000Y-60902000D02*
X129803634Y-60902000D01*
X123285634Y-67420000D02*
X116260000Y-67420000D01*
X137984000Y-65848000D02*
X137310000Y-65848000D01*
X138684000Y-66548000D02*
X137984000Y-65848000D01*
X129803634Y-60902000D02*
X123285634Y-67420000D01*
X137310000Y-65848000D02*
X132364000Y-60902000D01*
D22*
%TO.N,+5V*%
X132751000Y-67938182D02*
X132751000Y-63591000D01*
X117750000Y-86200000D02*
X117750000Y-81940818D01*
X116200000Y-87750000D02*
X117750000Y-86200000D01*
X131019818Y-68671000D02*
X132018182Y-68671000D01*
X132751000Y-63591000D02*
X131500000Y-62340000D01*
X132018182Y-68671000D02*
X132751000Y-67938182D01*
X117750000Y-81940818D02*
X131019818Y-68671000D01*
D21*
%TO.N,/GPIO2*%
X116260000Y-64880000D02*
X117110000Y-64030000D01*
X122725000Y-64900000D02*
X121800000Y-64900000D01*
X121800000Y-64900000D02*
X120825000Y-64900000D01*
X119955000Y-64030000D02*
X120825000Y-64900000D01*
X117110000Y-64030000D02*
X119955000Y-64030000D01*
D22*
%TO.N,+3.3V*%
X131420876Y-67420000D02*
X131500000Y-67420000D01*
D21*
X132800000Y-70692900D02*
X132800000Y-68879132D01*
X120825000Y-75000000D02*
X117075500Y-78749500D01*
X113900000Y-78899000D02*
X113900000Y-79199000D01*
X132800000Y-68879132D02*
X132839566Y-68839566D01*
D22*
X131500000Y-67800000D02*
X131500000Y-67420000D01*
D21*
X117075500Y-78749500D02*
X114049500Y-78749500D01*
X111750000Y-78300000D02*
X113301000Y-78300000D01*
D22*
X120825000Y-72750000D02*
X126090876Y-72750000D01*
D21*
X135308032Y-85500000D02*
X133901000Y-84092968D01*
D22*
X126090876Y-72750000D02*
X131420876Y-67420000D01*
D21*
X135725000Y-85500000D02*
X135308032Y-85500000D01*
X113301000Y-78300000D02*
X113900000Y-78899000D01*
D22*
X120825000Y-75000000D02*
X120825000Y-72750000D01*
D21*
X111750000Y-86500000D02*
X112524999Y-86500000D01*
X133901000Y-84092968D02*
X133901000Y-71793900D01*
X113900000Y-85124999D02*
X113900000Y-79199000D01*
X114049500Y-78749500D02*
X113900000Y-78899000D01*
X112524999Y-86500000D02*
X113900000Y-85124999D01*
X133901000Y-71793900D02*
X132800000Y-70692900D01*
%TO.N,/ISense*%
X124000000Y-74982298D02*
X124000000Y-73600000D01*
X117249000Y-83151000D02*
X117249000Y-81733298D01*
X117249000Y-81733298D02*
X124000000Y-74982298D01*
X116200000Y-84200000D02*
X117249000Y-83151000D01*
%TO.N,/VSense*%
X119200000Y-81199338D02*
X119200000Y-84200000D01*
X124399338Y-76000000D02*
X119200000Y-81199338D01*
X124600000Y-76000000D02*
X124399338Y-76000000D01*
X124640384Y-76040384D02*
X124600000Y-76000000D01*
%TD*%
%TA.AperFunction,Conductor*%
%TO.N,GND*%
G36*
X114917941Y-60420185D02*
G01*
X114963696Y-60472989D01*
X114973640Y-60542147D01*
X114944615Y-60605703D01*
X114938583Y-60612181D01*
X114628481Y-60922282D01*
X114628479Y-60922285D01*
X114609076Y-60955892D01*
X114589673Y-60989500D01*
X114549423Y-61059215D01*
X114508499Y-61211943D01*
X114508499Y-61211945D01*
X114508499Y-61380046D01*
X114508500Y-61380059D01*
X114508500Y-67256478D01*
X114488815Y-67323517D01*
X114436011Y-67369272D01*
X114382589Y-67380463D01*
X114367235Y-67380226D01*
X114357057Y-67377499D01*
X114198943Y-67377499D01*
X114198939Y-67377500D01*
X109616163Y-67377500D01*
X109549124Y-67357815D01*
X109503369Y-67305011D01*
X109494911Y-67279459D01*
X109494000Y-67275207D01*
X109485912Y-67250799D01*
X109438814Y-67108666D01*
X109346712Y-66959344D01*
X109222656Y-66835288D01*
X109129888Y-66778069D01*
X109073336Y-66743187D01*
X109073331Y-66743185D01*
X109071862Y-66742698D01*
X108906797Y-66688001D01*
X108906795Y-66688000D01*
X108804010Y-66677500D01*
X107603998Y-66677500D01*
X107603981Y-66677501D01*
X107501203Y-66688000D01*
X107501200Y-66688001D01*
X107334668Y-66743185D01*
X107334663Y-66743187D01*
X107185342Y-66835289D01*
X107061289Y-66959342D01*
X106969187Y-67108663D01*
X106969185Y-67108668D01*
X106956149Y-67148008D01*
X106914001Y-67275203D01*
X106914001Y-67275204D01*
X106914000Y-67275204D01*
X106903500Y-67377983D01*
X106903500Y-68578001D01*
X106903501Y-68578018D01*
X106914000Y-68680796D01*
X106914001Y-68680799D01*
X106940485Y-68760721D01*
X106969186Y-68847334D01*
X107061288Y-68996656D01*
X107185344Y-69120712D01*
X107334666Y-69212814D01*
X107501203Y-69267999D01*
X107603991Y-69278500D01*
X108804008Y-69278499D01*
X108906797Y-69267999D01*
X109073334Y-69212814D01*
X109222656Y-69120712D01*
X109346712Y-68996656D01*
X109438814Y-68847334D01*
X109493999Y-68680797D01*
X109493999Y-68680793D01*
X109494912Y-68676533D01*
X109528199Y-68615102D01*
X109589414Y-68581419D01*
X109616163Y-68578500D01*
X113977903Y-68578500D01*
X114044942Y-68598185D01*
X114065584Y-68614819D01*
X114926241Y-69475476D01*
X114959726Y-69536799D01*
X114956492Y-69601473D01*
X114942753Y-69643757D01*
X114909500Y-69853713D01*
X114909500Y-70066286D01*
X114936716Y-70238125D01*
X114942754Y-70276243D01*
X115008443Y-70478412D01*
X115039328Y-70539028D01*
X115054195Y-70568205D01*
X115067091Y-70636874D01*
X115040815Y-70701615D01*
X114983709Y-70741872D01*
X114943710Y-70748500D01*
X109501751Y-70748500D01*
X109434712Y-70728815D01*
X109396212Y-70689597D01*
X109382778Y-70667817D01*
X109346712Y-70609344D01*
X109222656Y-70485288D01*
X109129888Y-70428069D01*
X109073336Y-70393187D01*
X109073331Y-70393185D01*
X109071862Y-70392698D01*
X108906797Y-70338001D01*
X108906795Y-70338000D01*
X108804010Y-70327500D01*
X107603998Y-70327500D01*
X107603981Y-70327501D01*
X107501203Y-70338000D01*
X107501200Y-70338001D01*
X107334668Y-70393185D01*
X107334663Y-70393187D01*
X107185342Y-70485289D01*
X107061289Y-70609342D01*
X106969187Y-70758663D01*
X106969186Y-70758666D01*
X106914001Y-70925203D01*
X106914001Y-70925204D01*
X106914000Y-70925204D01*
X106903500Y-71027983D01*
X106903500Y-72228001D01*
X106903501Y-72228018D01*
X106914000Y-72330796D01*
X106914001Y-72330799D01*
X106969185Y-72497331D01*
X106969187Y-72497336D01*
X106988930Y-72529344D01*
X107061288Y-72646656D01*
X107185344Y-72770712D01*
X107334666Y-72862814D01*
X107501203Y-72917999D01*
X107603991Y-72928500D01*
X108804008Y-72928499D01*
X108906797Y-72917999D01*
X109073334Y-72862814D01*
X109222656Y-72770712D01*
X109346712Y-72646656D01*
X109438814Y-72497334D01*
X109493999Y-72330797D01*
X109504500Y-72228009D01*
X109504500Y-72073500D01*
X109524185Y-72006461D01*
X109576989Y-71960706D01*
X109628500Y-71949500D01*
X114848198Y-71949500D01*
X114915237Y-71969185D01*
X114960992Y-72021989D01*
X114970936Y-72091147D01*
X114966129Y-72111818D01*
X114942753Y-72183760D01*
X114909500Y-72393713D01*
X114909500Y-72606286D01*
X114935542Y-72770712D01*
X114942754Y-72816243D01*
X114985558Y-72947981D01*
X115008444Y-73018414D01*
X115104951Y-73207820D01*
X115229890Y-73379786D01*
X115380213Y-73530109D01*
X115552182Y-73655050D01*
X115560946Y-73659516D01*
X115611742Y-73707491D01*
X115628536Y-73775312D01*
X115605998Y-73841447D01*
X115560946Y-73880484D01*
X115552182Y-73884949D01*
X115380213Y-74009890D01*
X115229890Y-74160213D01*
X115104951Y-74332179D01*
X115008444Y-74521585D01*
X114942753Y-74723760D01*
X114909500Y-74933713D01*
X114909500Y-75146286D01*
X114942754Y-75356244D01*
X114942754Y-75356247D01*
X114956491Y-75398523D01*
X114956925Y-75413734D01*
X114962244Y-75427994D01*
X114957902Y-75447950D01*
X114958486Y-75468364D01*
X114950398Y-75482449D01*
X114947393Y-75496267D01*
X114926241Y-75524522D01*
X114787582Y-75663182D01*
X114726262Y-75696666D01*
X114699903Y-75699500D01*
X112895808Y-75699500D01*
X112828769Y-75679815D01*
X112808126Y-75663180D01*
X112776870Y-75631923D01*
X112776862Y-75631917D01*
X112652571Y-75558412D01*
X112635398Y-75548256D01*
X112635397Y-75548255D01*
X112635396Y-75548255D01*
X112635393Y-75548254D01*
X112477573Y-75502402D01*
X112477567Y-75502401D01*
X112440701Y-75499500D01*
X112440694Y-75499500D01*
X111059306Y-75499500D01*
X111059298Y-75499500D01*
X111022432Y-75502401D01*
X111022426Y-75502402D01*
X110864606Y-75548254D01*
X110864603Y-75548255D01*
X110723137Y-75631917D01*
X110723129Y-75631923D01*
X110606923Y-75748129D01*
X110606916Y-75748138D01*
X110523253Y-75889605D01*
X110522798Y-75890658D01*
X110521511Y-75892551D01*
X110519285Y-75896316D01*
X110519048Y-75896176D01*
X110518760Y-75896600D01*
X110517847Y-75900803D01*
X110496702Y-75929062D01*
X110494501Y-75931264D01*
X110494481Y-75931284D01*
X109719481Y-76706283D01*
X109719477Y-76706288D01*
X109676621Y-76780519D01*
X109676621Y-76780520D01*
X109640423Y-76843215D01*
X109632662Y-76872179D01*
X109599499Y-76995944D01*
X109599499Y-76995946D01*
X109599499Y-77164047D01*
X109599500Y-77164060D01*
X109599500Y-82863330D01*
X109599499Y-82863348D01*
X109599499Y-83029054D01*
X109599498Y-83029054D01*
X109640424Y-83181789D01*
X109640425Y-83181790D01*
X109665728Y-83225615D01*
X109665729Y-83225617D01*
X109719475Y-83318709D01*
X109719481Y-83318717D01*
X109838349Y-83437585D01*
X109838355Y-83437590D01*
X110463996Y-84063231D01*
X110470366Y-84074897D01*
X110480438Y-84083574D01*
X110486786Y-84104968D01*
X110497481Y-84124554D01*
X110496975Y-84139305D01*
X110500314Y-84150557D01*
X110495392Y-84185506D01*
X110475666Y-84253405D01*
X110444270Y-84306492D01*
X110224217Y-84526546D01*
X110224214Y-84526548D01*
X110224215Y-84526549D01*
X110119477Y-84631287D01*
X110073867Y-84710288D01*
X110073867Y-84710289D01*
X110040423Y-84768214D01*
X110031906Y-84800001D01*
X109999499Y-84920943D01*
X109999499Y-84920945D01*
X109999499Y-85089046D01*
X109999500Y-85089059D01*
X109999500Y-91790970D01*
X109979815Y-91858009D01*
X109927011Y-91903764D01*
X109857853Y-91913708D01*
X109794297Y-91884683D01*
X109781222Y-91871516D01*
X109780107Y-91870211D01*
X109629786Y-91719890D01*
X109457820Y-91594951D01*
X109268414Y-91498444D01*
X109268413Y-91498443D01*
X109268412Y-91498443D01*
X109066243Y-91432754D01*
X109066241Y-91432753D01*
X109066240Y-91432753D01*
X108890229Y-91404876D01*
X108856287Y-91399500D01*
X108643713Y-91399500D01*
X108609771Y-91404876D01*
X108433760Y-91432753D01*
X108231585Y-91498444D01*
X108042179Y-91594951D01*
X107870213Y-91719890D01*
X107719890Y-91870213D01*
X107594951Y-92042179D01*
X107498444Y-92231585D01*
X107432753Y-92433760D01*
X107399500Y-92643713D01*
X107399500Y-92856286D01*
X107427520Y-93033201D01*
X107432754Y-93066243D01*
X107474115Y-93193539D01*
X107498444Y-93268414D01*
X107594951Y-93457820D01*
X107719890Y-93629786D01*
X107870213Y-93780109D01*
X108042179Y-93905048D01*
X108042181Y-93905049D01*
X108042184Y-93905051D01*
X108231588Y-94001557D01*
X108433757Y-94067246D01*
X108643713Y-94100500D01*
X108643714Y-94100500D01*
X108856286Y-94100500D01*
X108856287Y-94100500D01*
X109066243Y-94067246D01*
X109268412Y-94001557D01*
X109457816Y-93905051D01*
X109544782Y-93841867D01*
X109629786Y-93780109D01*
X109629788Y-93780106D01*
X109629792Y-93780104D01*
X109780104Y-93629792D01*
X109780106Y-93629788D01*
X109780109Y-93629786D01*
X109905048Y-93457820D01*
X109905047Y-93457820D01*
X109905051Y-93457816D01*
X110001557Y-93268412D01*
X110067246Y-93066243D01*
X110100500Y-92856287D01*
X110100500Y-92685257D01*
X110120185Y-92618218D01*
X110172989Y-92572463D01*
X110242147Y-92562519D01*
X110305703Y-92591544D01*
X110312181Y-92597576D01*
X111929979Y-94215374D01*
X111929989Y-94215385D01*
X111934319Y-94219715D01*
X111934320Y-94219716D01*
X112046124Y-94331520D01*
X112046126Y-94331521D01*
X112046130Y-94331524D01*
X112183049Y-94410573D01*
X112183056Y-94410577D01*
X112294859Y-94440534D01*
X112335782Y-94451500D01*
X112335783Y-94451500D01*
X134898491Y-94451500D01*
X134898507Y-94451501D01*
X134906103Y-94451501D01*
X135064214Y-94451501D01*
X135064217Y-94451501D01*
X135216945Y-94410577D01*
X135267064Y-94381639D01*
X135353876Y-94331520D01*
X135465680Y-94219716D01*
X135465680Y-94219714D01*
X135475888Y-94209507D01*
X135475889Y-94209504D01*
X136205520Y-93479876D01*
X136284577Y-93342944D01*
X136325501Y-93190217D01*
X136325501Y-93032102D01*
X136325501Y-93024507D01*
X136325500Y-93024489D01*
X136325500Y-92643713D01*
X137399500Y-92643713D01*
X137399500Y-92856286D01*
X137427520Y-93033201D01*
X137432754Y-93066243D01*
X137474115Y-93193539D01*
X137498444Y-93268414D01*
X137594951Y-93457820D01*
X137719890Y-93629786D01*
X137870213Y-93780109D01*
X138042179Y-93905048D01*
X138042181Y-93905049D01*
X138042184Y-93905051D01*
X138231588Y-94001557D01*
X138433757Y-94067246D01*
X138643713Y-94100500D01*
X138643714Y-94100500D01*
X138856286Y-94100500D01*
X138856287Y-94100500D01*
X139066243Y-94067246D01*
X139268412Y-94001557D01*
X139457816Y-93905051D01*
X139544782Y-93841867D01*
X139629786Y-93780109D01*
X139629788Y-93780106D01*
X139629792Y-93780104D01*
X139780104Y-93629792D01*
X139780106Y-93629788D01*
X139780109Y-93629786D01*
X139905048Y-93457820D01*
X139905047Y-93457820D01*
X139905051Y-93457816D01*
X140001557Y-93268412D01*
X140067246Y-93066243D01*
X140100500Y-92856287D01*
X140100500Y-92643713D01*
X140067246Y-92433757D01*
X140001557Y-92231588D01*
X139905051Y-92042184D01*
X139905049Y-92042181D01*
X139905048Y-92042179D01*
X139780109Y-91870213D01*
X139629786Y-91719890D01*
X139457820Y-91594951D01*
X139268414Y-91498444D01*
X139268413Y-91498443D01*
X139268412Y-91498443D01*
X139066243Y-91432754D01*
X139066241Y-91432753D01*
X139066240Y-91432753D01*
X138890229Y-91404876D01*
X138856287Y-91399500D01*
X138643713Y-91399500D01*
X138609771Y-91404876D01*
X138433760Y-91432753D01*
X138231585Y-91498444D01*
X138042179Y-91594951D01*
X137870213Y-91719890D01*
X137719890Y-91870213D01*
X137594951Y-92042179D01*
X137498444Y-92231585D01*
X137432753Y-92433760D01*
X137399500Y-92643713D01*
X136325500Y-92643713D01*
X136325500Y-88422223D01*
X136345185Y-88355184D01*
X136397989Y-88309429D01*
X136439773Y-88298605D01*
X136452569Y-88297598D01*
X136452571Y-88297597D01*
X136452573Y-88297597D01*
X136494191Y-88285505D01*
X136610398Y-88251744D01*
X136751865Y-88168081D01*
X136868081Y-88051865D01*
X136951744Y-87910398D01*
X136993932Y-87765187D01*
X136997597Y-87752573D01*
X136997598Y-87752567D01*
X137000500Y-87715694D01*
X137000500Y-87600097D01*
X137020185Y-87533058D01*
X137036819Y-87512416D01*
X137932038Y-86617197D01*
X138879520Y-85669716D01*
X138958577Y-85532784D01*
X138999501Y-85380057D01*
X138999501Y-85221942D01*
X138999501Y-85214347D01*
X138999500Y-85214329D01*
X138999500Y-84424499D01*
X139019185Y-84357460D01*
X139071989Y-84311705D01*
X139123500Y-84300499D01*
X140300002Y-84300499D01*
X140300008Y-84300499D01*
X140402797Y-84289999D01*
X140569334Y-84234814D01*
X140718656Y-84142712D01*
X140842712Y-84018656D01*
X140869961Y-83974477D01*
X140921909Y-83927753D01*
X140990871Y-83916530D01*
X141054953Y-83944373D01*
X141093810Y-84002442D01*
X141099500Y-84039574D01*
X141099500Y-87960425D01*
X141079815Y-88027464D01*
X141027011Y-88073219D01*
X140957853Y-88083163D01*
X140894297Y-88054138D01*
X140869962Y-88025522D01*
X140842714Y-87981347D01*
X140842711Y-87981343D01*
X140718657Y-87857289D01*
X140718656Y-87857288D01*
X140569334Y-87765186D01*
X140402797Y-87710001D01*
X140402795Y-87710000D01*
X140300010Y-87699500D01*
X138899998Y-87699500D01*
X138899981Y-87699501D01*
X138797203Y-87710000D01*
X138797200Y-87710001D01*
X138630668Y-87765185D01*
X138630663Y-87765187D01*
X138481342Y-87857289D01*
X138357289Y-87981342D01*
X138265187Y-88130663D01*
X138265185Y-88130668D01*
X138237349Y-88214670D01*
X138210001Y-88297203D01*
X138210001Y-88297204D01*
X138210000Y-88297204D01*
X138199500Y-88399983D01*
X138199500Y-89200001D01*
X138199501Y-89200019D01*
X138210000Y-89302796D01*
X138210001Y-89302799D01*
X138265185Y-89469331D01*
X138265186Y-89469334D01*
X138357288Y-89618656D01*
X138481344Y-89742712D01*
X138630666Y-89834814D01*
X138797203Y-89889999D01*
X138899991Y-89900500D01*
X140300008Y-89900499D01*
X140402797Y-89889999D01*
X140569334Y-89834814D01*
X140718656Y-89742712D01*
X140842712Y-89618656D01*
X140869961Y-89574477D01*
X140921909Y-89527753D01*
X140990871Y-89516530D01*
X141054953Y-89544373D01*
X141093810Y-89602442D01*
X141099500Y-89639574D01*
X141099500Y-92746249D01*
X141099274Y-92753737D01*
X141082821Y-93025716D01*
X141081016Y-93040579D01*
X141032579Y-93304897D01*
X141028995Y-93319436D01*
X140949054Y-93575976D01*
X140943745Y-93589977D01*
X140833457Y-93835027D01*
X140826498Y-93848286D01*
X140687481Y-94078249D01*
X140678975Y-94090572D01*
X140513249Y-94302105D01*
X140503319Y-94313313D01*
X140313313Y-94503319D01*
X140302105Y-94513249D01*
X140090572Y-94678975D01*
X140078249Y-94687481D01*
X139848286Y-94826498D01*
X139835027Y-94833457D01*
X139589977Y-94943745D01*
X139575976Y-94949054D01*
X139319436Y-95028995D01*
X139304897Y-95032579D01*
X139040579Y-95081016D01*
X139025716Y-95082821D01*
X138771326Y-95098209D01*
X138753735Y-95099274D01*
X138746249Y-95099500D01*
X108753751Y-95099500D01*
X108746264Y-95099274D01*
X108474284Y-95082821D01*
X108459420Y-95081016D01*
X108195102Y-95032579D01*
X108180563Y-95028995D01*
X107924023Y-94949054D01*
X107910022Y-94943745D01*
X107664972Y-94833457D01*
X107651713Y-94826498D01*
X107421750Y-94687481D01*
X107409427Y-94678975D01*
X107197894Y-94513249D01*
X107186686Y-94503319D01*
X106996680Y-94313313D01*
X106986750Y-94302105D01*
X106918809Y-94215385D01*
X106821020Y-94090566D01*
X106812522Y-94078255D01*
X106673498Y-93848280D01*
X106666545Y-93835034D01*
X106556252Y-93589972D01*
X106550945Y-93575976D01*
X106471002Y-93319430D01*
X106467420Y-93304897D01*
X106461914Y-93274853D01*
X106418982Y-93040578D01*
X106417178Y-93025715D01*
X106400726Y-92753736D01*
X106400500Y-92746249D01*
X106400500Y-89680105D01*
X106420185Y-89613066D01*
X106472989Y-89567311D01*
X106542147Y-89557367D01*
X106605703Y-89586392D01*
X106630038Y-89615008D01*
X106632288Y-89618656D01*
X106756344Y-89742712D01*
X106905666Y-89834814D01*
X107072203Y-89889999D01*
X107174991Y-89900500D01*
X108575008Y-89900499D01*
X108677797Y-89889999D01*
X108844334Y-89834814D01*
X108993656Y-89742712D01*
X109117712Y-89618656D01*
X109209814Y-89469334D01*
X109264999Y-89302797D01*
X109275500Y-89200009D01*
X109275499Y-88399992D01*
X109264999Y-88297203D01*
X109209814Y-88130666D01*
X109117712Y-87981344D01*
X108993656Y-87857288D01*
X108844334Y-87765186D01*
X108677797Y-87710001D01*
X108677795Y-87710000D01*
X108575010Y-87699500D01*
X107174998Y-87699500D01*
X107174981Y-87699501D01*
X107072203Y-87710000D01*
X107072200Y-87710001D01*
X106905668Y-87765185D01*
X106905663Y-87765187D01*
X106756342Y-87857289D01*
X106632289Y-87981342D01*
X106630039Y-87984991D01*
X106627841Y-87986967D01*
X106627807Y-87987011D01*
X106627799Y-87987005D01*
X106578091Y-88031715D01*
X106509128Y-88042938D01*
X106445046Y-88015094D01*
X106406190Y-87957025D01*
X106400500Y-87919894D01*
X106400500Y-84080105D01*
X106420185Y-84013066D01*
X106472989Y-83967311D01*
X106542147Y-83957367D01*
X106605703Y-83986392D01*
X106630038Y-84015008D01*
X106632288Y-84018656D01*
X106756344Y-84142712D01*
X106905666Y-84234814D01*
X107072203Y-84289999D01*
X107174991Y-84300500D01*
X108575008Y-84300499D01*
X108677797Y-84289999D01*
X108844334Y-84234814D01*
X108993656Y-84142712D01*
X109117712Y-84018656D01*
X109209814Y-83869334D01*
X109264999Y-83702797D01*
X109275500Y-83600009D01*
X109275499Y-82799992D01*
X109274257Y-82787837D01*
X109264999Y-82697203D01*
X109264998Y-82697200D01*
X109235494Y-82608164D01*
X109209814Y-82530666D01*
X109117712Y-82381344D01*
X108993656Y-82257288D01*
X108844334Y-82165186D01*
X108677797Y-82110001D01*
X108677795Y-82110000D01*
X108575010Y-82099500D01*
X107174998Y-82099500D01*
X107174981Y-82099501D01*
X107072203Y-82110000D01*
X107072200Y-82110001D01*
X106905668Y-82165185D01*
X106905663Y-82165187D01*
X106756342Y-82257289D01*
X106632289Y-82381342D01*
X106630039Y-82384991D01*
X106627841Y-82386967D01*
X106627807Y-82387011D01*
X106627799Y-82387005D01*
X106578091Y-82431715D01*
X106509128Y-82442938D01*
X106445046Y-82415094D01*
X106406190Y-82357025D01*
X106400500Y-82319894D01*
X106400500Y-81480105D01*
X106420185Y-81413066D01*
X106472989Y-81367311D01*
X106542147Y-81357367D01*
X106605703Y-81386392D01*
X106630038Y-81415008D01*
X106632288Y-81418656D01*
X106756344Y-81542712D01*
X106905666Y-81634814D01*
X107072203Y-81689999D01*
X107174991Y-81700500D01*
X108575008Y-81700499D01*
X108677797Y-81689999D01*
X108844334Y-81634814D01*
X108993656Y-81542712D01*
X109117712Y-81418656D01*
X109209814Y-81269334D01*
X109264999Y-81102797D01*
X109275500Y-81000009D01*
X109275499Y-80199992D01*
X109264999Y-80097203D01*
X109209814Y-79930666D01*
X109117712Y-79781344D01*
X108993656Y-79657288D01*
X108844334Y-79565186D01*
X108677797Y-79510001D01*
X108677795Y-79510000D01*
X108575010Y-79499500D01*
X107174998Y-79499500D01*
X107174981Y-79499501D01*
X107072203Y-79510000D01*
X107072200Y-79510001D01*
X106905668Y-79565185D01*
X106905663Y-79565187D01*
X106756342Y-79657289D01*
X106632289Y-79781342D01*
X106630039Y-79784991D01*
X106627841Y-79786967D01*
X106627807Y-79787011D01*
X106627799Y-79787005D01*
X106578091Y-79831715D01*
X106509128Y-79842938D01*
X106445046Y-79815094D01*
X106406190Y-79757025D01*
X106400500Y-79719894D01*
X106400500Y-75880105D01*
X106420185Y-75813066D01*
X106472989Y-75767311D01*
X106542147Y-75757367D01*
X106605703Y-75786392D01*
X106630038Y-75815008D01*
X106632288Y-75818656D01*
X106756344Y-75942712D01*
X106905666Y-76034814D01*
X107072203Y-76089999D01*
X107174991Y-76100500D01*
X108575008Y-76100499D01*
X108677797Y-76089999D01*
X108844334Y-76034814D01*
X108993656Y-75942712D01*
X109117712Y-75818656D01*
X109209814Y-75669334D01*
X109264999Y-75502797D01*
X109275500Y-75400009D01*
X109275499Y-74599992D01*
X109272429Y-74569943D01*
X109264999Y-74497203D01*
X109264998Y-74497200D01*
X109245878Y-74439500D01*
X109209814Y-74330666D01*
X109117712Y-74181344D01*
X108993656Y-74057288D01*
X108867030Y-73979185D01*
X108844336Y-73965187D01*
X108844331Y-73965185D01*
X108792174Y-73947902D01*
X108677797Y-73910001D01*
X108677795Y-73910000D01*
X108575010Y-73899500D01*
X107174998Y-73899500D01*
X107174981Y-73899501D01*
X107072203Y-73910000D01*
X107072200Y-73910001D01*
X106905668Y-73965185D01*
X106905663Y-73965187D01*
X106756342Y-74057289D01*
X106632289Y-74181342D01*
X106630039Y-74184991D01*
X106627841Y-74186967D01*
X106627807Y-74187011D01*
X106627799Y-74187005D01*
X106578091Y-74231715D01*
X106509128Y-74242938D01*
X106445046Y-74215094D01*
X106406190Y-74157025D01*
X106400500Y-74119894D01*
X106400500Y-62753750D01*
X106400726Y-62746263D01*
X106404331Y-62686676D01*
X106406930Y-62643713D01*
X107399500Y-62643713D01*
X107399500Y-62856286D01*
X107426468Y-63026559D01*
X107432754Y-63066243D01*
X107495446Y-63259189D01*
X107498444Y-63268414D01*
X107594951Y-63457820D01*
X107719890Y-63629786D01*
X107870213Y-63780109D01*
X108042179Y-63905048D01*
X108042181Y-63905049D01*
X108042184Y-63905051D01*
X108231588Y-64001557D01*
X108433757Y-64067246D01*
X108643713Y-64100500D01*
X108643714Y-64100500D01*
X108856286Y-64100500D01*
X108856287Y-64100500D01*
X109066243Y-64067246D01*
X109268412Y-64001557D01*
X109457816Y-63905051D01*
X109533589Y-63849999D01*
X109629786Y-63780109D01*
X109629788Y-63780106D01*
X109629792Y-63780104D01*
X109780104Y-63629792D01*
X109780106Y-63629788D01*
X109780109Y-63629786D01*
X109905048Y-63457820D01*
X109905047Y-63457820D01*
X109905051Y-63457816D01*
X110001557Y-63268412D01*
X110067246Y-63066243D01*
X110100500Y-62856287D01*
X110100500Y-62643713D01*
X110067246Y-62433757D01*
X110001557Y-62231588D01*
X109905051Y-62042184D01*
X109905049Y-62042181D01*
X109905048Y-62042179D01*
X109780109Y-61870213D01*
X109629786Y-61719890D01*
X109457820Y-61594951D01*
X109268414Y-61498444D01*
X109268413Y-61498443D01*
X109268412Y-61498443D01*
X109066243Y-61432754D01*
X109066241Y-61432753D01*
X109066240Y-61432753D01*
X108904957Y-61407208D01*
X108856287Y-61399500D01*
X108643713Y-61399500D01*
X108595042Y-61407208D01*
X108433760Y-61432753D01*
X108231585Y-61498444D01*
X108042179Y-61594951D01*
X107870213Y-61719890D01*
X107719890Y-61870213D01*
X107594951Y-62042179D01*
X107498444Y-62231585D01*
X107432753Y-62433760D01*
X107399500Y-62643713D01*
X106406930Y-62643713D01*
X106417178Y-62474280D01*
X106418983Y-62459420D01*
X106467422Y-62195091D01*
X106471001Y-62180573D01*
X106550948Y-61924012D01*
X106556250Y-61910032D01*
X106666549Y-61664958D01*
X106673494Y-61651725D01*
X106812527Y-61421736D01*
X106821014Y-61409440D01*
X106986757Y-61197885D01*
X106996672Y-61186694D01*
X107186694Y-60996672D01*
X107197885Y-60986757D01*
X107409440Y-60821014D01*
X107421736Y-60812527D01*
X107651725Y-60673494D01*
X107664958Y-60666549D01*
X107910032Y-60556250D01*
X107924012Y-60550948D01*
X108180573Y-60471001D01*
X108195091Y-60467422D01*
X108459423Y-60418982D01*
X108474280Y-60417178D01*
X108746264Y-60400726D01*
X108753751Y-60400500D01*
X108815892Y-60400500D01*
X114850902Y-60400500D01*
X114917941Y-60420185D01*
G37*
%TD.AperFunction*%
%TA.AperFunction,Conductor*%
G36*
X130201824Y-70537552D02*
G01*
X130229931Y-70536348D01*
X130236207Y-70540011D01*
X130243457Y-70540530D01*
X130265978Y-70557389D01*
X130290273Y-70571571D01*
X130296252Y-70580052D01*
X130299390Y-70582402D01*
X130310608Y-70600418D01*
X130344949Y-70667817D01*
X130469890Y-70839786D01*
X130620213Y-70990109D01*
X130792182Y-71115050D01*
X130800946Y-71119516D01*
X130851742Y-71167491D01*
X130868536Y-71235312D01*
X130845998Y-71301447D01*
X130800946Y-71340484D01*
X130792182Y-71344949D01*
X130620213Y-71469890D01*
X130469890Y-71620213D01*
X130344951Y-71792179D01*
X130248444Y-71981585D01*
X130182753Y-72183760D01*
X130149500Y-72393713D01*
X130149500Y-72606286D01*
X130175542Y-72770712D01*
X130182754Y-72816243D01*
X130225558Y-72947981D01*
X130248444Y-73018414D01*
X130344951Y-73207820D01*
X130469890Y-73379786D01*
X130620213Y-73530109D01*
X130792182Y-73655050D01*
X130800946Y-73659516D01*
X130851742Y-73707491D01*
X130868536Y-73775312D01*
X130845998Y-73841447D01*
X130800946Y-73880484D01*
X130792182Y-73884949D01*
X130620213Y-74009890D01*
X130469890Y-74160213D01*
X130344951Y-74332179D01*
X130248444Y-74521585D01*
X130182753Y-74723760D01*
X130161222Y-74859705D01*
X130149500Y-74933713D01*
X130149500Y-75146287D01*
X130182754Y-75356243D01*
X130246202Y-75551516D01*
X130248444Y-75558414D01*
X130344951Y-75747820D01*
X130469890Y-75919786D01*
X130620213Y-76070109D01*
X130792182Y-76195050D01*
X130800946Y-76199516D01*
X130851742Y-76247491D01*
X130868536Y-76315312D01*
X130845998Y-76381447D01*
X130800946Y-76420484D01*
X130792182Y-76424949D01*
X130620213Y-76549890D01*
X130469890Y-76700213D01*
X130344951Y-76872179D01*
X130248444Y-77061585D01*
X130182753Y-77263760D01*
X130159545Y-77410289D01*
X130149500Y-77473713D01*
X130149500Y-77686287D01*
X130182754Y-77896243D01*
X130234832Y-78056523D01*
X130248444Y-78098414D01*
X130344951Y-78287820D01*
X130469890Y-78459786D01*
X130620213Y-78610109D01*
X130792179Y-78735048D01*
X130792181Y-78735049D01*
X130792184Y-78735051D01*
X130981588Y-78831557D01*
X131183757Y-78897246D01*
X131393713Y-78930500D01*
X131393714Y-78930500D01*
X131525500Y-78930500D01*
X131592539Y-78950185D01*
X131638294Y-79002989D01*
X131649500Y-79054500D01*
X131649500Y-79832802D01*
X131629815Y-79899841D01*
X131613181Y-79920483D01*
X120521484Y-91012181D01*
X120460161Y-91045666D01*
X120433803Y-91048500D01*
X119493897Y-91048500D01*
X119335782Y-91048500D01*
X119183055Y-91089423D01*
X119183054Y-91089423D01*
X119183052Y-91089424D01*
X119183049Y-91089425D01*
X119132936Y-91118359D01*
X119132935Y-91118360D01*
X119089529Y-91143420D01*
X119046125Y-91168479D01*
X119046122Y-91168481D01*
X118731932Y-91482671D01*
X118731919Y-91482684D01*
X118730286Y-91484318D01*
X118730284Y-91484320D01*
X118618480Y-91596124D01*
X118612035Y-91607288D01*
X118539423Y-91733055D01*
X118498499Y-91885783D01*
X118498499Y-91885785D01*
X118498499Y-92025500D01*
X118478814Y-92092539D01*
X118426010Y-92138294D01*
X118374499Y-92149500D01*
X114612163Y-92149500D01*
X114545124Y-92129815D01*
X114499369Y-92077011D01*
X114490911Y-92051459D01*
X114490000Y-92047207D01*
X114482807Y-92025500D01*
X114434814Y-91880666D01*
X114342712Y-91731344D01*
X114218656Y-91607288D01*
X114069334Y-91515186D01*
X113902797Y-91460001D01*
X113902795Y-91460000D01*
X113800010Y-91449500D01*
X112599998Y-91449500D01*
X112599981Y-91449501D01*
X112497203Y-91460000D01*
X112497200Y-91460001D01*
X112330668Y-91515185D01*
X112330663Y-91515187D01*
X112181342Y-91607289D01*
X112057289Y-91731342D01*
X111965187Y-91880663D01*
X111965185Y-91880668D01*
X111957532Y-91903764D01*
X111910001Y-92047203D01*
X111910001Y-92047204D01*
X111910000Y-92047204D01*
X111899500Y-92149983D01*
X111899500Y-92187063D01*
X111879815Y-92254102D01*
X111827011Y-92299857D01*
X111757853Y-92309801D01*
X111694297Y-92280776D01*
X111687819Y-92274744D01*
X111236819Y-91823744D01*
X111203334Y-91762421D01*
X111200500Y-91736063D01*
X111200500Y-88424000D01*
X111220185Y-88356961D01*
X111272989Y-88311206D01*
X111324500Y-88300000D01*
X111500000Y-88300000D01*
X112000000Y-88300000D01*
X112440634Y-88300000D01*
X112440649Y-88299999D01*
X112477489Y-88297100D01*
X112477495Y-88297099D01*
X112635193Y-88251283D01*
X112635196Y-88251282D01*
X112776552Y-88167685D01*
X112776561Y-88167678D01*
X112892678Y-88051561D01*
X112892685Y-88051552D01*
X112976281Y-87910198D01*
X113022100Y-87752486D01*
X113022295Y-87750001D01*
X113022295Y-87750000D01*
X112000000Y-87750000D01*
X112000000Y-88300000D01*
X111500000Y-88300000D01*
X111500000Y-87624000D01*
X111519685Y-87556961D01*
X111572489Y-87511206D01*
X111624000Y-87500000D01*
X111750000Y-87500000D01*
X111750000Y-87424500D01*
X111769685Y-87357461D01*
X111822489Y-87311706D01*
X111874000Y-87300500D01*
X112440686Y-87300500D01*
X112440694Y-87300500D01*
X112477569Y-87297598D01*
X112477571Y-87297597D01*
X112477573Y-87297597D01*
X112624455Y-87254924D01*
X112659050Y-87250000D01*
X113022295Y-87250000D01*
X113022295Y-87249998D01*
X113022100Y-87247511D01*
X113022099Y-87247505D01*
X112976283Y-87089806D01*
X112976280Y-87089799D01*
X112960793Y-87063612D01*
X112957876Y-87052118D01*
X112950875Y-87042549D01*
X112949442Y-87018877D01*
X112943609Y-86995888D01*
X112947263Y-86982882D01*
X112946654Y-86972807D01*
X112958292Y-86943636D01*
X112959349Y-86939876D01*
X112960037Y-86938647D01*
X112976744Y-86910398D01*
X112977688Y-86907146D01*
X112982822Y-86897985D01*
X112989091Y-86891851D01*
X113003321Y-86870913D01*
X113005519Y-86868716D01*
X113005519Y-86868714D01*
X113015720Y-86858515D01*
X113015727Y-86858505D01*
X114258506Y-85615727D01*
X114258511Y-85615723D01*
X114268714Y-85605519D01*
X114268716Y-85605519D01*
X114380520Y-85493715D01*
X114414526Y-85434814D01*
X114446130Y-85380075D01*
X114446131Y-85380071D01*
X114446140Y-85380057D01*
X114459577Y-85356784D01*
X114500500Y-85204056D01*
X114500500Y-85045942D01*
X114500500Y-85045941D01*
X114500500Y-79474000D01*
X114520185Y-79406961D01*
X114572989Y-79361206D01*
X114624500Y-79350000D01*
X116988831Y-79350000D01*
X116988847Y-79350001D01*
X116996443Y-79350001D01*
X117154554Y-79350001D01*
X117154557Y-79350001D01*
X117307285Y-79309077D01*
X117378924Y-79267716D01*
X117444216Y-79230020D01*
X117556020Y-79118216D01*
X117556020Y-79118214D01*
X117566224Y-79108011D01*
X117566227Y-79108006D01*
X120662417Y-76011818D01*
X120723740Y-75978333D01*
X120750098Y-75975499D01*
X121124170Y-75975499D01*
X121124176Y-75975499D01*
X121225253Y-75965174D01*
X121389016Y-75910908D01*
X121535850Y-75820340D01*
X121657840Y-75698350D01*
X121748408Y-75551516D01*
X121802674Y-75387753D01*
X121813000Y-75286677D01*
X121812999Y-74713324D01*
X121802674Y-74612247D01*
X121748408Y-74448484D01*
X121657840Y-74301650D01*
X121561819Y-74205629D01*
X121528334Y-74144306D01*
X121525500Y-74117948D01*
X121525500Y-73632052D01*
X121534144Y-73602611D01*
X121540668Y-73572625D01*
X121544422Y-73567609D01*
X121545185Y-73565013D01*
X121561819Y-73544371D01*
X121619371Y-73486819D01*
X121680694Y-73453334D01*
X121707052Y-73450500D01*
X123075500Y-73450500D01*
X123142539Y-73470185D01*
X123188294Y-73522989D01*
X123199500Y-73574500D01*
X123199500Y-73678846D01*
X123230261Y-73833489D01*
X123230264Y-73833501D01*
X123290602Y-73979172D01*
X123290609Y-73979185D01*
X123378602Y-74110874D01*
X123399480Y-74177551D01*
X123399500Y-74179765D01*
X123399500Y-74682200D01*
X123379815Y-74749239D01*
X123363181Y-74769881D01*
X116768481Y-81364580D01*
X116768479Y-81364583D01*
X116738094Y-81417213D01*
X116738093Y-81417214D01*
X116689424Y-81501509D01*
X116689423Y-81501510D01*
X116671967Y-81566657D01*
X116648499Y-81654241D01*
X116648499Y-81654243D01*
X116648499Y-81822344D01*
X116648500Y-81822357D01*
X116648500Y-82775500D01*
X116628815Y-82842539D01*
X116576011Y-82888294D01*
X116524500Y-82899500D01*
X115599998Y-82899500D01*
X115599980Y-82899501D01*
X115497203Y-82910000D01*
X115497200Y-82910001D01*
X115330668Y-82965185D01*
X115330663Y-82965187D01*
X115181342Y-83057289D01*
X115057289Y-83181342D01*
X114965187Y-83330663D01*
X114965185Y-83330668D01*
X114955197Y-83360810D01*
X114910001Y-83497203D01*
X114910001Y-83497204D01*
X114910000Y-83497204D01*
X114899500Y-83599983D01*
X114899500Y-84800001D01*
X114899501Y-84800018D01*
X114910000Y-84902796D01*
X114910001Y-84902799D01*
X114929975Y-84963075D01*
X114965186Y-85069334D01*
X115057288Y-85218656D01*
X115181344Y-85342712D01*
X115330666Y-85434814D01*
X115497203Y-85489999D01*
X115599991Y-85500500D01*
X116800008Y-85500499D01*
X116844981Y-85495905D01*
X116909533Y-85489311D01*
X116909752Y-85491462D01*
X116921420Y-85492334D01*
X116943147Y-85489210D01*
X116955577Y-85494886D01*
X116969204Y-85495905D01*
X116986734Y-85509115D01*
X117006703Y-85518235D01*
X117014090Y-85529730D01*
X117025003Y-85537954D01*
X117032608Y-85558545D01*
X117044477Y-85577013D01*
X117047693Y-85599385D01*
X117049212Y-85603496D01*
X117049500Y-85611948D01*
X117049500Y-85858480D01*
X117029815Y-85925519D01*
X117013181Y-85946161D01*
X116546161Y-86413181D01*
X116484838Y-86446666D01*
X116458480Y-86449500D01*
X115599998Y-86449500D01*
X115599980Y-86449501D01*
X115497203Y-86460000D01*
X115497200Y-86460001D01*
X115330668Y-86515185D01*
X115330663Y-86515187D01*
X115181342Y-86607289D01*
X115057289Y-86731342D01*
X114965187Y-86880663D01*
X114965185Y-86880668D01*
X114961362Y-86892205D01*
X114910001Y-87047203D01*
X114910001Y-87047204D01*
X114910000Y-87047204D01*
X114899500Y-87149983D01*
X114899500Y-88350001D01*
X114899501Y-88350018D01*
X114910000Y-88452796D01*
X114910001Y-88452799D01*
X114965115Y-88619119D01*
X114965186Y-88619334D01*
X115057288Y-88768656D01*
X115181344Y-88892712D01*
X115330666Y-88984814D01*
X115497203Y-89039999D01*
X115599991Y-89050500D01*
X116800008Y-89050499D01*
X116902797Y-89039999D01*
X117069334Y-88984814D01*
X117218656Y-88892712D01*
X117342712Y-88768656D01*
X117434814Y-88619334D01*
X117489999Y-88452797D01*
X117500500Y-88350009D01*
X117500500Y-88349986D01*
X117900001Y-88349986D01*
X117910494Y-88452697D01*
X117965641Y-88619119D01*
X117965643Y-88619124D01*
X118057684Y-88768345D01*
X118181654Y-88892315D01*
X118330875Y-88984356D01*
X118330880Y-88984358D01*
X118497302Y-89039505D01*
X118497309Y-89039506D01*
X118600019Y-89049999D01*
X118949999Y-89049999D01*
X119450000Y-89049999D01*
X119799972Y-89049999D01*
X119799986Y-89049998D01*
X119902697Y-89039505D01*
X120069119Y-88984358D01*
X120069124Y-88984356D01*
X120218345Y-88892315D01*
X120342315Y-88768345D01*
X120434356Y-88619124D01*
X120434358Y-88619119D01*
X120489505Y-88452697D01*
X120489506Y-88452690D01*
X120499999Y-88349986D01*
X120500000Y-88349973D01*
X120500000Y-88000000D01*
X119450000Y-88000000D01*
X119450000Y-89049999D01*
X118949999Y-89049999D01*
X118950000Y-89049998D01*
X118950000Y-88000000D01*
X117900001Y-88000000D01*
X117900001Y-88349986D01*
X117500500Y-88349986D01*
X117500499Y-87865796D01*
X117500499Y-87710504D01*
X118900000Y-87710504D01*
X118900000Y-87789496D01*
X118920444Y-87865796D01*
X118959940Y-87934205D01*
X119015795Y-87990060D01*
X119084204Y-88029556D01*
X119160504Y-88050000D01*
X119239496Y-88050000D01*
X119315796Y-88029556D01*
X119384205Y-87990060D01*
X119440060Y-87934205D01*
X119479556Y-87865796D01*
X119500000Y-87789496D01*
X119500000Y-87710504D01*
X119479556Y-87634204D01*
X119440060Y-87565795D01*
X119384205Y-87509940D01*
X119366988Y-87500000D01*
X119450000Y-87500000D01*
X120499999Y-87500000D01*
X120499999Y-87150028D01*
X120499998Y-87150013D01*
X120489505Y-87047302D01*
X120434358Y-86880880D01*
X120434356Y-86880875D01*
X120342315Y-86731654D01*
X120218345Y-86607684D01*
X120069124Y-86515643D01*
X120069119Y-86515641D01*
X119902697Y-86460494D01*
X119902690Y-86460493D01*
X119799986Y-86450000D01*
X119450000Y-86450000D01*
X119450000Y-87500000D01*
X119366988Y-87500000D01*
X119315796Y-87470444D01*
X119239496Y-87450000D01*
X119160504Y-87450000D01*
X119084204Y-87470444D01*
X119015795Y-87509940D01*
X118959940Y-87565795D01*
X118920444Y-87634204D01*
X118900000Y-87710504D01*
X117500499Y-87710504D01*
X117500499Y-87491518D01*
X117520183Y-87424479D01*
X117536809Y-87403846D01*
X117688321Y-87252334D01*
X117749642Y-87218852D01*
X117819334Y-87223836D01*
X117875267Y-87265708D01*
X117899684Y-87331172D01*
X117900000Y-87340018D01*
X117900000Y-87500000D01*
X118950000Y-87500000D01*
X118950000Y-86450000D01*
X118600028Y-86450000D01*
X118600005Y-86450002D01*
X118577605Y-86452290D01*
X118508912Y-86439519D01*
X118458029Y-86391637D01*
X118441110Y-86323847D01*
X118443387Y-86304751D01*
X118450500Y-86268994D01*
X118450500Y-86131006D01*
X118450500Y-85622541D01*
X118470185Y-85555502D01*
X118522989Y-85509747D01*
X118587103Y-85499183D01*
X118599991Y-85500500D01*
X119800008Y-85500499D01*
X119902797Y-85489999D01*
X120069334Y-85434814D01*
X120218656Y-85342712D01*
X120342712Y-85218656D01*
X120434814Y-85069334D01*
X120489999Y-84902797D01*
X120500500Y-84800009D01*
X120500499Y-83599992D01*
X120489999Y-83497203D01*
X120434814Y-83330666D01*
X120342712Y-83181344D01*
X120218656Y-83057288D01*
X120069334Y-82965186D01*
X120069331Y-82965185D01*
X119902795Y-82910000D01*
X119898533Y-82909088D01*
X119837102Y-82875801D01*
X119803419Y-82814586D01*
X119800500Y-82787837D01*
X119800500Y-81499434D01*
X119820185Y-81432395D01*
X119836814Y-81411758D01*
X124386349Y-76862222D01*
X124447670Y-76828739D01*
X124498217Y-76828288D01*
X124547258Y-76838042D01*
X124561541Y-76840884D01*
X124561542Y-76840884D01*
X124719228Y-76840884D01*
X124719229Y-76840883D01*
X124873881Y-76810121D01*
X125019563Y-76749778D01*
X125150673Y-76662173D01*
X125262173Y-76550673D01*
X125349778Y-76419563D01*
X125410121Y-76273881D01*
X125440884Y-76119226D01*
X125440884Y-75961542D01*
X125440884Y-75961539D01*
X125440883Y-75961537D01*
X125427966Y-75896600D01*
X125410121Y-75806887D01*
X125393728Y-75767311D01*
X125349781Y-75661211D01*
X125349774Y-75661198D01*
X125274332Y-75548292D01*
X125253454Y-75481615D01*
X125271938Y-75414235D01*
X125289749Y-75391724D01*
X130112444Y-70569029D01*
X130137130Y-70555549D01*
X130160125Y-70539340D01*
X130167386Y-70539028D01*
X130173765Y-70535546D01*
X130201824Y-70537552D01*
G37*
%TD.AperFunction*%
%TA.AperFunction,Conductor*%
G36*
X133055702Y-62443383D02*
G01*
X133062180Y-62449415D01*
X136825139Y-66212374D01*
X136825149Y-66212385D01*
X136829479Y-66216715D01*
X136829480Y-66216716D01*
X136941284Y-66328520D01*
X137027576Y-66378340D01*
X137078215Y-66407577D01*
X137230942Y-66448500D01*
X137230943Y-66448500D01*
X137259500Y-66448500D01*
X137326539Y-66468185D01*
X137372294Y-66520989D01*
X137383500Y-66572500D01*
X137383500Y-67148001D01*
X137383501Y-67148019D01*
X137394000Y-67250796D01*
X137394001Y-67250799D01*
X137414849Y-67313713D01*
X137449186Y-67417334D01*
X137541288Y-67566656D01*
X137665344Y-67690712D01*
X137814666Y-67782814D01*
X137981203Y-67837999D01*
X138083991Y-67848500D01*
X139075500Y-67848499D01*
X139142539Y-67868183D01*
X139188294Y-67920987D01*
X139199500Y-67972499D01*
X139199500Y-68623500D01*
X139179815Y-68690539D01*
X139127011Y-68736294D01*
X139075500Y-68747500D01*
X138083998Y-68747500D01*
X138083980Y-68747501D01*
X137981203Y-68758000D01*
X137981200Y-68758001D01*
X137814668Y-68813185D01*
X137814663Y-68813187D01*
X137665342Y-68905289D01*
X137541289Y-69029342D01*
X137449187Y-69178663D01*
X137449186Y-69178666D01*
X137394001Y-69345203D01*
X137394001Y-69345204D01*
X137394000Y-69345204D01*
X137383500Y-69447983D01*
X137383500Y-70447902D01*
X137363815Y-70514941D01*
X137347181Y-70535583D01*
X137102481Y-70780282D01*
X137102479Y-70780284D01*
X137080857Y-70817737D01*
X137063096Y-70848500D01*
X137023423Y-70917215D01*
X136982499Y-71069943D01*
X136982499Y-71069945D01*
X136982499Y-71238046D01*
X136982500Y-71238059D01*
X136982500Y-75860330D01*
X136982499Y-75860348D01*
X136982499Y-76026054D01*
X136982498Y-76026054D01*
X136982499Y-76026057D01*
X137023423Y-76178785D01*
X137047763Y-76220943D01*
X137102477Y-76315712D01*
X137102481Y-76315717D01*
X137221349Y-76434585D01*
X137221355Y-76434590D01*
X137347181Y-76560416D01*
X137380666Y-76621739D01*
X137383500Y-76648097D01*
X137383500Y-77648001D01*
X137383501Y-77648019D01*
X137394000Y-77750796D01*
X137394001Y-77750799D01*
X137449185Y-77917331D01*
X137449187Y-77917336D01*
X137450495Y-77919457D01*
X137481039Y-77968976D01*
X137499500Y-78034072D01*
X137499500Y-78945742D01*
X137479815Y-79012781D01*
X137463181Y-79033423D01*
X137102481Y-79394122D01*
X137102479Y-79394125D01*
X137052361Y-79480934D01*
X137052359Y-79480936D01*
X137023425Y-79531049D01*
X137023424Y-79531050D01*
X137018346Y-79550001D01*
X136989599Y-79657288D01*
X136982499Y-79683784D01*
X136982499Y-79851886D01*
X136982500Y-79851899D01*
X136982500Y-81246490D01*
X136982499Y-81246508D01*
X136982499Y-81412214D01*
X136982498Y-81412214D01*
X137023423Y-81564945D01*
X137052358Y-81615060D01*
X137052359Y-81615064D01*
X137052360Y-81615064D01*
X137101684Y-81700498D01*
X137102479Y-81701874D01*
X137102481Y-81701877D01*
X137221349Y-81820745D01*
X137221355Y-81820750D01*
X137361181Y-81960576D01*
X137394666Y-82021899D01*
X137397500Y-82048257D01*
X137397500Y-84701901D01*
X137377815Y-84768940D01*
X137361181Y-84789582D01*
X137174316Y-84976446D01*
X137112993Y-85009931D01*
X137043301Y-85004947D01*
X136987368Y-84963075D01*
X136962951Y-84897611D01*
X136967559Y-84854169D01*
X136997099Y-84752491D01*
X136997100Y-84752488D01*
X136997295Y-84750001D01*
X136997295Y-84750000D01*
X136634050Y-84750000D01*
X136599455Y-84745076D01*
X136452573Y-84702402D01*
X136452567Y-84702401D01*
X136415701Y-84699500D01*
X136415694Y-84699500D01*
X135849000Y-84699500D01*
X135781961Y-84679815D01*
X135736206Y-84627011D01*
X135725000Y-84575500D01*
X135725000Y-84500000D01*
X135599000Y-84500000D01*
X135531961Y-84480315D01*
X135486206Y-84427511D01*
X135475000Y-84376000D01*
X135475000Y-84250000D01*
X135975000Y-84250000D01*
X136997295Y-84250000D01*
X136997295Y-84249998D01*
X136997100Y-84247513D01*
X136951281Y-84089801D01*
X136867685Y-83948447D01*
X136867678Y-83948438D01*
X136751561Y-83832321D01*
X136751552Y-83832314D01*
X136610196Y-83748717D01*
X136610193Y-83748716D01*
X136452495Y-83702900D01*
X136452489Y-83702899D01*
X136415649Y-83700000D01*
X135975000Y-83700000D01*
X135975000Y-84250000D01*
X135475000Y-84250000D01*
X135475000Y-83700000D01*
X135034350Y-83700000D01*
X134997510Y-83702899D01*
X134997504Y-83702900D01*
X134839806Y-83748716D01*
X134839803Y-83748717D01*
X134691729Y-83836288D01*
X134690528Y-83834257D01*
X134636444Y-83855482D01*
X134567929Y-83841791D01*
X134517692Y-83793231D01*
X134501500Y-83731966D01*
X134501500Y-71714845D01*
X134501500Y-71714843D01*
X134468393Y-71591284D01*
X134468393Y-71591283D01*
X134468393Y-71591282D01*
X134460578Y-71562118D01*
X134460577Y-71562115D01*
X134424426Y-71499500D01*
X134381520Y-71425184D01*
X134269716Y-71313380D01*
X134269715Y-71313379D01*
X134265385Y-71309049D01*
X134265374Y-71309039D01*
X133436819Y-70480484D01*
X133403334Y-70419161D01*
X133400500Y-70392803D01*
X133400500Y-69462072D01*
X133420185Y-69395033D01*
X133436815Y-69374394D01*
X133461355Y-69349855D01*
X133548960Y-69218745D01*
X133609303Y-69073063D01*
X133640066Y-68918408D01*
X133640066Y-68760724D01*
X133640066Y-68760721D01*
X133640065Y-68760719D01*
X133637436Y-68747500D01*
X133609303Y-68606069D01*
X133597677Y-68578001D01*
X133548963Y-68460393D01*
X133548956Y-68460380D01*
X133461355Y-68329277D01*
X133461352Y-68329273D01*
X133439235Y-68307156D01*
X133433455Y-68296571D01*
X133424162Y-68288884D01*
X133417020Y-68266473D01*
X133405750Y-68245833D01*
X133406082Y-68232147D01*
X133402948Y-68222313D01*
X133406823Y-68201595D01*
X133407171Y-68187272D01*
X133409266Y-68179481D01*
X133424580Y-68142511D01*
X133439037Y-68069829D01*
X133451500Y-68007175D01*
X133451500Y-63522007D01*
X133451500Y-63522004D01*
X133426677Y-63397215D01*
X133426675Y-63397207D01*
X133424580Y-63386671D01*
X133393198Y-63310908D01*
X133371776Y-63259190D01*
X133295112Y-63144454D01*
X132886818Y-62736160D01*
X132872114Y-62709232D01*
X132855522Y-62683414D01*
X132854630Y-62677213D01*
X132853333Y-62674837D01*
X132850499Y-62648479D01*
X132850499Y-62537096D01*
X132870184Y-62470057D01*
X132922988Y-62424302D01*
X132992146Y-62414358D01*
X133055702Y-62443383D01*
G37*
%TD.AperFunction*%
%TA.AperFunction,Conductor*%
G36*
X113150755Y-79017820D02*
G01*
X113199698Y-79047933D01*
X113263181Y-79111416D01*
X113296666Y-79172739D01*
X113299500Y-79199097D01*
X113299500Y-83483935D01*
X113279815Y-83550974D01*
X113227011Y-83596729D01*
X113157853Y-83606673D01*
X113094297Y-83577648D01*
X113087819Y-83571616D01*
X113046008Y-83529805D01*
X113046006Y-83529802D01*
X112927135Y-83410931D01*
X112927134Y-83410930D01*
X112840322Y-83360810D01*
X112840322Y-83360809D01*
X112840318Y-83360808D01*
X112790203Y-83331873D01*
X112637475Y-83290949D01*
X112479361Y-83290949D01*
X112471765Y-83290949D01*
X112471749Y-83290950D01*
X112008648Y-83290950D01*
X111941609Y-83271265D01*
X111920967Y-83254631D01*
X111310819Y-82644483D01*
X111277334Y-82583160D01*
X111274500Y-82556802D01*
X111274500Y-80224000D01*
X111294185Y-80156961D01*
X111346989Y-80111206D01*
X111398500Y-80100000D01*
X111500000Y-80100000D01*
X112000000Y-80100000D01*
X112440634Y-80100000D01*
X112440649Y-80099999D01*
X112477489Y-80097100D01*
X112477495Y-80097099D01*
X112635193Y-80051283D01*
X112635196Y-80051282D01*
X112776552Y-79967685D01*
X112776561Y-79967678D01*
X112892678Y-79851561D01*
X112892685Y-79851552D01*
X112976281Y-79710198D01*
X113022100Y-79552486D01*
X113022295Y-79550001D01*
X113022295Y-79550000D01*
X112000000Y-79550000D01*
X112000000Y-80100000D01*
X111500000Y-80100000D01*
X111500000Y-79424000D01*
X111519685Y-79356961D01*
X111572489Y-79311206D01*
X111624000Y-79300000D01*
X111750000Y-79300000D01*
X111750000Y-79224500D01*
X111769685Y-79157461D01*
X111822489Y-79111706D01*
X111874000Y-79100500D01*
X112440686Y-79100500D01*
X112440694Y-79100500D01*
X112477569Y-79097598D01*
X112477571Y-79097597D01*
X112477573Y-79097597D01*
X112624455Y-79054924D01*
X112659050Y-79050000D01*
X113023374Y-79050000D01*
X113080921Y-79015576D01*
X113150755Y-79017820D01*
G37*
%TD.AperFunction*%
%TA.AperFunction,Conductor*%
G36*
X138753736Y-60400726D02*
G01*
X139025717Y-60417178D01*
X139040578Y-60418982D01*
X139304904Y-60467421D01*
X139319430Y-60471002D01*
X139575981Y-60550947D01*
X139589972Y-60556252D01*
X139835034Y-60666545D01*
X139848280Y-60673498D01*
X140078255Y-60812522D01*
X140090566Y-60821020D01*
X140302105Y-60986750D01*
X140313313Y-60996680D01*
X140503319Y-61186686D01*
X140513249Y-61197894D01*
X140671197Y-61399500D01*
X140678975Y-61409427D01*
X140687479Y-61421747D01*
X140792183Y-61594949D01*
X140826498Y-61651713D01*
X140833457Y-61664972D01*
X140943745Y-61910022D01*
X140949054Y-61924023D01*
X141028995Y-62180563D01*
X141032579Y-62195102D01*
X141081016Y-62459420D01*
X141082821Y-62474283D01*
X141099274Y-62746262D01*
X141099500Y-62753750D01*
X141099500Y-82360425D01*
X141079815Y-82427464D01*
X141027011Y-82473219D01*
X140957853Y-82483163D01*
X140894297Y-82454138D01*
X140869962Y-82425522D01*
X140842714Y-82381347D01*
X140842711Y-82381343D01*
X140718657Y-82257289D01*
X140718656Y-82257288D01*
X140569334Y-82165186D01*
X140402797Y-82110001D01*
X140402795Y-82110000D01*
X140300016Y-82099500D01*
X140300009Y-82099500D01*
X139123500Y-82099500D01*
X139114814Y-82096949D01*
X139105853Y-82098238D01*
X139081812Y-82087259D01*
X139056461Y-82079815D01*
X139050533Y-82072974D01*
X139042297Y-82069213D01*
X139028007Y-82046978D01*
X139010706Y-82027011D01*
X139008418Y-82016496D01*
X139004523Y-82010435D01*
X138999500Y-81975500D01*
X138999500Y-81972499D01*
X139019185Y-81905460D01*
X139071989Y-81859705D01*
X139123500Y-81848499D01*
X139284002Y-81848499D01*
X139284008Y-81848499D01*
X139386797Y-81837999D01*
X139553334Y-81782814D01*
X139702656Y-81690712D01*
X139826712Y-81566656D01*
X139918814Y-81417334D01*
X139973999Y-81250797D01*
X139984500Y-81148009D01*
X139984499Y-80148095D01*
X139993145Y-80118649D01*
X139999667Y-80088669D01*
X140003419Y-80083655D01*
X140004183Y-80081057D01*
X140020813Y-80060420D01*
X140143506Y-79937728D01*
X140143511Y-79937724D01*
X140153714Y-79927520D01*
X140153716Y-79927520D01*
X140265520Y-79815716D01*
X140341691Y-79683783D01*
X140344577Y-79678785D01*
X140385500Y-79526057D01*
X140385500Y-79367943D01*
X140385500Y-74569943D01*
X140367235Y-74501778D01*
X140344577Y-74417215D01*
X140295484Y-74332184D01*
X140265520Y-74280284D01*
X140153716Y-74168480D01*
X140153715Y-74168479D01*
X140149385Y-74164149D01*
X140149374Y-74164139D01*
X140020818Y-74035583D01*
X139987333Y-73974260D01*
X139984499Y-73947902D01*
X139984499Y-72947998D01*
X139984498Y-72947981D01*
X139973999Y-72845203D01*
X139973998Y-72845200D01*
X139918814Y-72678666D01*
X139826712Y-72529344D01*
X139702656Y-72405288D01*
X139609888Y-72348069D01*
X139553336Y-72313187D01*
X139553331Y-72313185D01*
X139551862Y-72312698D01*
X139386797Y-72258001D01*
X139386795Y-72258000D01*
X139284016Y-72247500D01*
X139284009Y-72247500D01*
X138307500Y-72247500D01*
X138240461Y-72227815D01*
X138194706Y-72175011D01*
X138183500Y-72123500D01*
X138183500Y-71472499D01*
X138203185Y-71405460D01*
X138255989Y-71359705D01*
X138307500Y-71348499D01*
X139284002Y-71348499D01*
X139284008Y-71348499D01*
X139386797Y-71337999D01*
X139553334Y-71282814D01*
X139702656Y-71190712D01*
X139826712Y-71066656D01*
X139918814Y-70917334D01*
X139973999Y-70750797D01*
X139984500Y-70648009D01*
X139984499Y-69648095D01*
X139993145Y-69618649D01*
X139999667Y-69588669D01*
X140003419Y-69583655D01*
X140004183Y-69581057D01*
X140020813Y-69560420D01*
X140158506Y-69422728D01*
X140158511Y-69422724D01*
X140168714Y-69412520D01*
X140168716Y-69412520D01*
X140280520Y-69300716D01*
X140359577Y-69163784D01*
X140400500Y-69011057D01*
X140400500Y-65698783D01*
X140359577Y-65546056D01*
X140359573Y-65546049D01*
X140280524Y-65409130D01*
X140280521Y-65409126D01*
X140280520Y-65409124D01*
X140168716Y-65297320D01*
X140168715Y-65297319D01*
X140164385Y-65292989D01*
X140164374Y-65292979D01*
X139956750Y-65085355D01*
X139956748Y-65085352D01*
X139837877Y-64966481D01*
X139837876Y-64966480D01*
X139751064Y-64916360D01*
X139751064Y-64916359D01*
X139751060Y-64916358D01*
X139700945Y-64887423D01*
X139548217Y-64846499D01*
X139390103Y-64846499D01*
X139382507Y-64846499D01*
X139382491Y-64846500D01*
X137776197Y-64846500D01*
X137709158Y-64826815D01*
X137688516Y-64810181D01*
X135522048Y-62643713D01*
X137399500Y-62643713D01*
X137399500Y-62856286D01*
X137426468Y-63026559D01*
X137432754Y-63066243D01*
X137495446Y-63259189D01*
X137498444Y-63268414D01*
X137594951Y-63457820D01*
X137719890Y-63629786D01*
X137870213Y-63780109D01*
X138042179Y-63905048D01*
X138042181Y-63905049D01*
X138042184Y-63905051D01*
X138231588Y-64001557D01*
X138433757Y-64067246D01*
X138643713Y-64100500D01*
X138643714Y-64100500D01*
X138856286Y-64100500D01*
X138856287Y-64100500D01*
X139066243Y-64067246D01*
X139268412Y-64001557D01*
X139457816Y-63905051D01*
X139533589Y-63849999D01*
X139629786Y-63780109D01*
X139629788Y-63780106D01*
X139629792Y-63780104D01*
X139780104Y-63629792D01*
X139780106Y-63629788D01*
X139780109Y-63629786D01*
X139905048Y-63457820D01*
X139905047Y-63457820D01*
X139905051Y-63457816D01*
X140001557Y-63268412D01*
X140067246Y-63066243D01*
X140100500Y-62856287D01*
X140100500Y-62643713D01*
X140067246Y-62433757D01*
X140001557Y-62231588D01*
X139905051Y-62042184D01*
X139905049Y-62042181D01*
X139905048Y-62042179D01*
X139780109Y-61870213D01*
X139629786Y-61719890D01*
X139457820Y-61594951D01*
X139268414Y-61498444D01*
X139268413Y-61498443D01*
X139268412Y-61498443D01*
X139066243Y-61432754D01*
X139066241Y-61432753D01*
X139066240Y-61432753D01*
X138904957Y-61407208D01*
X138856287Y-61399500D01*
X138643713Y-61399500D01*
X138595042Y-61407208D01*
X138433760Y-61432753D01*
X138231585Y-61498444D01*
X138042179Y-61594951D01*
X137870213Y-61719890D01*
X137719890Y-61870213D01*
X137594951Y-62042179D01*
X137498444Y-62231585D01*
X137432753Y-62433760D01*
X137399500Y-62643713D01*
X135522048Y-62643713D01*
X133490516Y-60612181D01*
X133457031Y-60550858D01*
X133462015Y-60481166D01*
X133503887Y-60425233D01*
X133569351Y-60400816D01*
X133578197Y-60400500D01*
X138684108Y-60400500D01*
X138746249Y-60400500D01*
X138753736Y-60400726D01*
G37*
%TD.AperFunction*%
%TA.AperFunction,Conductor*%
G36*
X130068834Y-61588548D02*
G01*
X130124767Y-61630420D01*
X130149184Y-61695884D01*
X130149500Y-61704730D01*
X130149500Y-63237870D01*
X130149501Y-63237876D01*
X130155908Y-63297483D01*
X130206202Y-63432328D01*
X130206206Y-63432335D01*
X130292452Y-63547544D01*
X130292455Y-63547547D01*
X130407664Y-63633793D01*
X130407671Y-63633797D01*
X130452618Y-63650561D01*
X130542517Y-63684091D01*
X130602127Y-63690500D01*
X130612685Y-63690499D01*
X130679723Y-63710179D01*
X130700372Y-63726818D01*
X131370591Y-64397037D01*
X131307007Y-64414075D01*
X131192993Y-64479901D01*
X131099901Y-64572993D01*
X131034075Y-64687007D01*
X131017037Y-64750591D01*
X130384728Y-64118282D01*
X130384727Y-64118282D01*
X130345380Y-64172439D01*
X130248904Y-64361782D01*
X130183242Y-64563869D01*
X130183242Y-64563872D01*
X130150000Y-64773753D01*
X130150000Y-64986246D01*
X130183242Y-65196127D01*
X130183242Y-65196130D01*
X130248904Y-65398217D01*
X130345375Y-65587550D01*
X130384728Y-65641716D01*
X131017037Y-65009408D01*
X131034075Y-65072993D01*
X131099901Y-65187007D01*
X131192993Y-65280099D01*
X131307007Y-65345925D01*
X131370589Y-65362962D01*
X130738282Y-65995269D01*
X130738282Y-65995270D01*
X130792452Y-66034626D01*
X130792451Y-66034626D01*
X130801495Y-66039234D01*
X130852292Y-66087208D01*
X130869087Y-66155029D01*
X130846550Y-66221164D01*
X130801499Y-66260202D01*
X130792182Y-66264949D01*
X130620213Y-66389890D01*
X130469890Y-66540213D01*
X130344951Y-66712179D01*
X130248444Y-66901585D01*
X130248443Y-66901587D01*
X130248443Y-66901588D01*
X130229677Y-66959344D01*
X130182753Y-67103760D01*
X130149500Y-67313713D01*
X130149500Y-67526286D01*
X130163466Y-67614464D01*
X130154511Y-67683758D01*
X130128674Y-67721543D01*
X125837038Y-72013181D01*
X125775715Y-72046666D01*
X125749357Y-72049500D01*
X121707052Y-72049500D01*
X121640013Y-72029815D01*
X121619371Y-72013181D01*
X121535851Y-71929661D01*
X121535850Y-71929660D01*
X121389016Y-71839092D01*
X121225253Y-71784826D01*
X121225251Y-71784825D01*
X121124178Y-71774500D01*
X120525830Y-71774500D01*
X120525812Y-71774501D01*
X120424747Y-71784825D01*
X120424744Y-71784826D01*
X120283246Y-71831715D01*
X120267697Y-71832249D01*
X120253122Y-71837691D01*
X120233493Y-71833426D01*
X120213418Y-71834117D01*
X120199101Y-71825954D01*
X120184845Y-71822857D01*
X120161411Y-71805319D01*
X120161184Y-71805593D01*
X120161172Y-71805583D01*
X120158489Y-71803133D01*
X120156618Y-71801733D01*
X120156585Y-71801714D01*
X120152898Y-71798029D01*
X120152895Y-71798024D01*
X120152874Y-71798005D01*
X119342224Y-70987355D01*
X119342222Y-70987352D01*
X119223351Y-70868481D01*
X119223343Y-70868475D01*
X119135461Y-70817737D01*
X119135460Y-70817737D01*
X119086419Y-70789423D01*
X118933691Y-70748499D01*
X118775577Y-70748499D01*
X118767981Y-70748499D01*
X118767965Y-70748500D01*
X118392848Y-70748500D01*
X118325809Y-70728815D01*
X118280054Y-70676011D01*
X118271231Y-70648692D01*
X118244738Y-70515508D01*
X118244737Y-70515507D01*
X118244737Y-70515503D01*
X118230232Y-70480484D01*
X118184397Y-70369827D01*
X118184390Y-70369814D01*
X118096398Y-70238125D01*
X118075520Y-70171447D01*
X118075500Y-70169234D01*
X118075500Y-69636299D01*
X118075501Y-69636286D01*
X118075501Y-69468185D01*
X118075501Y-69468183D01*
X118034577Y-69315455D01*
X117978741Y-69218745D01*
X117955520Y-69178524D01*
X117843716Y-69066720D01*
X117843713Y-69066718D01*
X117271126Y-68494131D01*
X117237641Y-68432808D01*
X117242625Y-68363116D01*
X117271126Y-68318769D01*
X117290104Y-68299792D01*
X117290106Y-68299788D01*
X117290109Y-68299786D01*
X117371854Y-68187272D01*
X117415051Y-68127816D01*
X117415349Y-68127230D01*
X117435235Y-68088205D01*
X117483209Y-68037409D01*
X117545719Y-68020500D01*
X123198965Y-68020500D01*
X123198981Y-68020501D01*
X123206577Y-68020501D01*
X123364688Y-68020501D01*
X123364691Y-68020501D01*
X123517419Y-67979577D01*
X123567538Y-67950639D01*
X123654350Y-67900520D01*
X123766154Y-67788716D01*
X123766154Y-67788714D01*
X123776362Y-67778507D01*
X123776363Y-67778504D01*
X129937821Y-61617047D01*
X129999142Y-61583564D01*
X130068834Y-61588548D01*
G37*
%TD.AperFunction*%
%TA.AperFunction,Conductor*%
G36*
X118008047Y-64650000D02*
G01*
X118876000Y-64650000D01*
X118943039Y-64669685D01*
X118988794Y-64722489D01*
X119000000Y-64774000D01*
X119000000Y-64900000D01*
X119126000Y-64900000D01*
X119193039Y-64919685D01*
X119238794Y-64972489D01*
X119250000Y-65024000D01*
X119250000Y-65874999D01*
X119299140Y-65874999D01*
X119299154Y-65874998D01*
X119400152Y-65864680D01*
X119563800Y-65810453D01*
X119563811Y-65810448D01*
X119710533Y-65719948D01*
X119824464Y-65606017D01*
X119885787Y-65572532D01*
X119955479Y-65577516D01*
X119999827Y-65606017D01*
X120114150Y-65720340D01*
X120260984Y-65810908D01*
X120424747Y-65865174D01*
X120525823Y-65875500D01*
X121124176Y-65875499D01*
X121124184Y-65875498D01*
X121124187Y-65875498D01*
X121179530Y-65869844D01*
X121225253Y-65865174D01*
X121389016Y-65810908D01*
X121535850Y-65720340D01*
X121657840Y-65598350D01*
X121669461Y-65579508D01*
X121721408Y-65532784D01*
X121790371Y-65521561D01*
X121854453Y-65549404D01*
X121880539Y-65579509D01*
X121891967Y-65598038D01*
X121892160Y-65598350D01*
X122014150Y-65720340D01*
X122160984Y-65810908D01*
X122324747Y-65865174D01*
X122425823Y-65875500D01*
X123024176Y-65875499D01*
X123024184Y-65875498D01*
X123024187Y-65875498D01*
X123079530Y-65869844D01*
X123125253Y-65865174D01*
X123289016Y-65810908D01*
X123435850Y-65720340D01*
X123549819Y-65606371D01*
X123553992Y-65604091D01*
X123556577Y-65600097D01*
X123584371Y-65587503D01*
X123611142Y-65572886D01*
X123615885Y-65573225D01*
X123620219Y-65571262D01*
X123650400Y-65575693D01*
X123680834Y-65577870D01*
X123685944Y-65580912D01*
X123689347Y-65581412D01*
X123704430Y-65591917D01*
X123718982Y-65600581D01*
X123722170Y-65603360D01*
X123839150Y-65720340D01*
X123898006Y-65756642D01*
X123905698Y-65763348D01*
X123919228Y-65784540D01*
X123936037Y-65803228D01*
X123937705Y-65813481D01*
X123943297Y-65822239D01*
X123943221Y-65847376D01*
X123947260Y-65872190D01*
X123943119Y-65881720D01*
X123943088Y-65892108D01*
X123929434Y-65913214D01*
X123919416Y-65936273D01*
X123911897Y-65944500D01*
X123073218Y-66783181D01*
X123011895Y-66816666D01*
X122985537Y-66819500D01*
X117545719Y-66819500D01*
X117478680Y-66799815D01*
X117435235Y-66751795D01*
X117415052Y-66712185D01*
X117415051Y-66712184D01*
X117290109Y-66540213D01*
X117139786Y-66389890D01*
X116967820Y-66264951D01*
X116967115Y-66264591D01*
X116959054Y-66260485D01*
X116908259Y-66212512D01*
X116891463Y-66144692D01*
X116913999Y-66078556D01*
X116959054Y-66039515D01*
X116967816Y-66035051D01*
X117092450Y-65944500D01*
X117139786Y-65910109D01*
X117139788Y-65910106D01*
X117139792Y-65910104D01*
X117290104Y-65759792D01*
X117290106Y-65759788D01*
X117290109Y-65759786D01*
X117415048Y-65587820D01*
X117415047Y-65587820D01*
X117415051Y-65587816D01*
X117511557Y-65398412D01*
X117577246Y-65196243D01*
X117578765Y-65186654D01*
X118012501Y-65186654D01*
X118022819Y-65287652D01*
X118077046Y-65451300D01*
X118077051Y-65451311D01*
X118167552Y-65598034D01*
X118167555Y-65598038D01*
X118289461Y-65719944D01*
X118289465Y-65719947D01*
X118436188Y-65810448D01*
X118436199Y-65810453D01*
X118599847Y-65864680D01*
X118700851Y-65874999D01*
X118749999Y-65874998D01*
X118750000Y-65874998D01*
X118750000Y-65150000D01*
X118012501Y-65150000D01*
X118012501Y-65186654D01*
X117578765Y-65186654D01*
X117610500Y-64986287D01*
X117610500Y-64773713D01*
X117610500Y-64773712D01*
X117610118Y-64768862D01*
X117611191Y-64768777D01*
X117612924Y-64755358D01*
X117610264Y-64736853D01*
X117617308Y-64721426D01*
X117619482Y-64704608D01*
X117631521Y-64690304D01*
X117639289Y-64673297D01*
X117653555Y-64664128D01*
X117664476Y-64651155D01*
X117682337Y-64645631D01*
X117698067Y-64635523D01*
X117729763Y-64630965D01*
X117731227Y-64630513D01*
X117733002Y-64630500D01*
X117941638Y-64630500D01*
X118008047Y-64650000D01*
G37*
%TD.AperFunction*%
%TA.AperFunction,Conductor*%
G36*
X128522576Y-61121185D02*
G01*
X128568331Y-61173989D01*
X128578275Y-61243147D01*
X128549250Y-61306703D01*
X128543218Y-61313181D01*
X125597463Y-64258934D01*
X125536140Y-64292419D01*
X125466448Y-64287435D01*
X125410515Y-64245563D01*
X125404244Y-64236350D01*
X125382842Y-64201653D01*
X125382839Y-64201649D01*
X125260851Y-64079661D01*
X125260850Y-64079660D01*
X125114016Y-63989092D01*
X124950253Y-63934826D01*
X124950251Y-63934825D01*
X124849178Y-63924500D01*
X124250830Y-63924500D01*
X124250812Y-63924501D01*
X124149747Y-63934825D01*
X123985984Y-63989092D01*
X123985981Y-63989093D01*
X123839148Y-64079661D01*
X123725181Y-64193629D01*
X123663858Y-64227114D01*
X123594166Y-64222130D01*
X123549819Y-64193629D01*
X123435851Y-64079661D01*
X123435850Y-64079660D01*
X123289016Y-63989092D01*
X123125253Y-63934826D01*
X123125251Y-63934825D01*
X123024178Y-63924500D01*
X122425830Y-63924500D01*
X122425812Y-63924501D01*
X122324747Y-63934825D01*
X122160984Y-63989092D01*
X122160981Y-63989093D01*
X122014148Y-64079661D01*
X121892159Y-64201650D01*
X121880538Y-64220492D01*
X121828590Y-64267216D01*
X121759627Y-64278437D01*
X121695545Y-64250594D01*
X121669462Y-64220492D01*
X121657840Y-64201650D01*
X121535851Y-64079661D01*
X121535850Y-64079660D01*
X121389016Y-63989092D01*
X121225253Y-63934826D01*
X121225251Y-63934825D01*
X121124184Y-63924500D01*
X121124177Y-63924500D01*
X120849096Y-63924500D01*
X120782057Y-63904815D01*
X120736302Y-63852011D01*
X120726358Y-63782853D01*
X120755383Y-63719297D01*
X120761415Y-63712819D01*
X120844448Y-63629786D01*
X121064648Y-63409585D01*
X121125969Y-63376102D01*
X121139718Y-63373911D01*
X121225253Y-63365174D01*
X121389016Y-63310908D01*
X121535850Y-63220340D01*
X121657840Y-63098350D01*
X121681961Y-63059242D01*
X121733908Y-63012518D01*
X121802871Y-63001295D01*
X121866953Y-63029138D01*
X121893037Y-63059241D01*
X121917160Y-63098350D01*
X122039150Y-63220340D01*
X122185984Y-63310908D01*
X122349747Y-63365174D01*
X122450823Y-63375500D01*
X123049176Y-63375499D01*
X123049184Y-63375498D01*
X123049187Y-63375498D01*
X123104530Y-63369844D01*
X123150253Y-63365174D01*
X123314016Y-63310908D01*
X123460850Y-63220340D01*
X123574819Y-63106371D01*
X123636142Y-63072886D01*
X123705834Y-63077870D01*
X123750181Y-63106371D01*
X123864150Y-63220340D01*
X124010984Y-63310908D01*
X124174747Y-63365174D01*
X124275823Y-63375500D01*
X124874176Y-63375499D01*
X124874184Y-63375498D01*
X124874187Y-63375498D01*
X124929530Y-63369844D01*
X124975253Y-63365174D01*
X125139016Y-63310908D01*
X125285850Y-63220340D01*
X125407840Y-63098350D01*
X125498408Y-62951516D01*
X125552674Y-62787753D01*
X125563000Y-62686677D01*
X125562999Y-62113324D01*
X125562679Y-62110196D01*
X125552674Y-62012247D01*
X125521064Y-61916856D01*
X125498408Y-61848484D01*
X125407840Y-61701650D01*
X125285850Y-61579660D01*
X125154178Y-61498444D01*
X125139018Y-61489093D01*
X125139013Y-61489091D01*
X125137569Y-61488612D01*
X124975253Y-61434826D01*
X124975251Y-61434825D01*
X124874178Y-61424500D01*
X124275830Y-61424500D01*
X124275812Y-61424501D01*
X124174747Y-61434825D01*
X124010984Y-61489092D01*
X124010981Y-61489093D01*
X123864148Y-61579661D01*
X123750181Y-61693629D01*
X123688858Y-61727114D01*
X123619166Y-61722130D01*
X123574819Y-61693629D01*
X123460851Y-61579661D01*
X123460850Y-61579660D01*
X123329178Y-61498444D01*
X123314018Y-61489093D01*
X123314013Y-61489091D01*
X123312569Y-61488612D01*
X123150253Y-61434826D01*
X123150251Y-61434825D01*
X123049178Y-61424500D01*
X122450830Y-61424500D01*
X122450812Y-61424501D01*
X122349747Y-61434825D01*
X122185984Y-61489092D01*
X122185981Y-61489093D01*
X122039148Y-61579661D01*
X121955629Y-61663181D01*
X121928701Y-61677884D01*
X121902883Y-61694477D01*
X121896682Y-61695368D01*
X121894306Y-61696666D01*
X121867948Y-61699500D01*
X121707052Y-61699500D01*
X121640013Y-61679815D01*
X121619371Y-61663181D01*
X121535851Y-61579661D01*
X121535850Y-61579660D01*
X121404178Y-61498444D01*
X121389018Y-61489093D01*
X121389013Y-61489091D01*
X121387569Y-61488612D01*
X121225253Y-61434826D01*
X121225251Y-61434825D01*
X121124178Y-61424500D01*
X120525830Y-61424500D01*
X120525812Y-61424501D01*
X120424747Y-61434825D01*
X120260984Y-61489092D01*
X120260981Y-61489093D01*
X120114151Y-61579659D01*
X119999827Y-61693983D01*
X119938504Y-61727467D01*
X119868812Y-61722483D01*
X119824465Y-61693982D01*
X119710538Y-61580055D01*
X119710534Y-61580052D01*
X119563811Y-61489551D01*
X119563800Y-61489546D01*
X119400152Y-61435319D01*
X119299154Y-61425000D01*
X119250000Y-61425000D01*
X119250000Y-62276000D01*
X119230315Y-62343039D01*
X119177511Y-62388794D01*
X119126000Y-62400000D01*
X119000000Y-62400000D01*
X119000000Y-62526000D01*
X118980315Y-62593039D01*
X118927511Y-62638794D01*
X118876000Y-62650000D01*
X118012501Y-62650000D01*
X118012501Y-62686654D01*
X118022819Y-62787652D01*
X118048614Y-62865496D01*
X118051016Y-62935324D01*
X118015284Y-62995366D01*
X117952764Y-63026559D01*
X117930908Y-63028500D01*
X117734500Y-63028500D01*
X117667461Y-63008815D01*
X117621706Y-62956011D01*
X117610500Y-62904500D01*
X117610500Y-62526000D01*
X117610500Y-62113345D01*
X118012500Y-62113345D01*
X118012500Y-62150000D01*
X118750000Y-62150000D01*
X118750000Y-61425000D01*
X118749999Y-61424999D01*
X118700861Y-61425000D01*
X118700843Y-61425001D01*
X118599847Y-61435319D01*
X118436199Y-61489546D01*
X118436188Y-61489551D01*
X118289465Y-61580052D01*
X118289461Y-61580055D01*
X118167555Y-61701961D01*
X118167552Y-61701965D01*
X118077051Y-61848688D01*
X118077046Y-61848699D01*
X118022819Y-62012347D01*
X118012500Y-62113345D01*
X117610500Y-62113345D01*
X117610499Y-61442128D01*
X117604091Y-61382517D01*
X117603174Y-61380059D01*
X117561690Y-61268833D01*
X117556706Y-61199141D01*
X117590191Y-61137818D01*
X117651515Y-61104334D01*
X117677872Y-61101500D01*
X128455537Y-61101500D01*
X128522576Y-61121185D01*
G37*
%TD.AperFunction*%
%TD*%
M02*
