%TF.GenerationSoftware,KiCad,Pcbnew,9.0.7*%
%TF.CreationDate,2026-02-16T17:50:49-05:00*%
%TF.ProjectId,drone-receiver-board,64726f6e-652d-4726-9563-65697665722d,rev?*%
%TF.SameCoordinates,Original*%
%TF.FileFunction,Soldermask,Top*%
%TF.FilePolarity,Negative*%
%FSLAX46Y46*%
G04 Gerber Fmt 4.6, Leading zero omitted, Abs format (unit mm)*
G04 Created by KiCad (PCBNEW 9.0.7) date 2026-02-16 17:50:49*
%MOMM*%
%LPD*%
G01*
G04 APERTURE LIST*
G04 Aperture macros list*
%AMRoundRect*
0 Rectangle with rounded corners*
0 $1 Rounding radius*
0 $2 $3 $4 $5 $6 $7 $8 $9 X,Y pos of 4 corners*
0 Add a 4 corners polygon primitive as box body*
4,1,4,$2,$3,$4,$5,$6,$7,$8,$9,$2,$3,0*
0 Add four circle primitives for the rounded corners*
1,1,$1+$1,$2,$3*
1,1,$1+$1,$4,$5*
1,1,$1+$1,$6,$7*
1,1,$1+$1,$8,$9*
0 Add four rect primitives between the rounded corners*
20,1,$1+$1,$2,$3,$4,$5,0*
20,1,$1+$1,$4,$5,$6,$7,0*
20,1,$1+$1,$6,$7,$8,$9,0*
20,1,$1+$1,$8,$9,$2,$3,0*%
G04 Aperture macros list end*
%ADD10RoundRect,0.237500X-0.250000X-0.237500X0.250000X-0.237500X0.250000X0.237500X-0.250000X0.237500X0*%
%ADD11RoundRect,0.250000X-0.550000X-0.550000X0.550000X-0.550000X0.550000X0.550000X-0.550000X0.550000X0*%
%ADD12RoundRect,0.150000X-0.625000X0.150000X-0.625000X-0.150000X0.625000X-0.150000X0.625000X0.150000X0*%
%ADD13RoundRect,0.250000X-0.650000X0.350000X-0.650000X-0.350000X0.650000X-0.350000X0.650000X0.350000X0*%
%ADD14C,2.200000*%
%ADD15RoundRect,0.237500X0.250000X0.237500X-0.250000X0.237500X-0.250000X-0.237500X0.250000X-0.237500X0*%
%ADD16RoundRect,0.250000X-0.550000X0.550000X-0.550000X-0.550000X0.550000X-0.550000X0.550000X0.550000X0*%
%ADD17R,1.700000X1.700000*%
%ADD18C,1.700000*%
%ADD19RoundRect,0.150000X0.625000X-0.150000X0.625000X0.150000X-0.625000X0.150000X-0.625000X-0.150000X0*%
%ADD20RoundRect,0.250000X0.650000X-0.350000X0.650000X0.350000X-0.650000X0.350000X-0.650000X-0.350000X0*%
G04 APERTURE END LIST*
D10*
%TO.C,R6*%
X119000000Y-62400000D03*
X120825000Y-62400000D03*
%TD*%
D11*
%TO.C,J12*%
X113200000Y-92750000D03*
%TD*%
D12*
%TO.C,J2*%
X111750000Y-76300000D03*
X111750000Y-77300000D03*
X111750000Y-78300000D03*
X111750000Y-79300000D03*
D13*
X107875000Y-75000000D03*
X107875000Y-80600000D03*
%TD*%
D10*
%TO.C,R7*%
X119000000Y-64900000D03*
X120825000Y-64900000D03*
%TD*%
D11*
%TO.C,J14*%
X108204000Y-67978000D03*
%TD*%
D12*
%TO.C,J3*%
X111750000Y-84500000D03*
X111750000Y-85500000D03*
X111750000Y-86500000D03*
X111750000Y-87500000D03*
D13*
X107875000Y-83200000D03*
X107875000Y-88800000D03*
%TD*%
D11*
%TO.C,J11*%
X120200000Y-92750000D03*
%TD*%
%TO.C,J8*%
X119200000Y-84200000D03*
%TD*%
%TO.C,J13*%
X138684000Y-66548000D03*
%TD*%
D14*
%TO.C,H4*%
X138750000Y-92750000D03*
%TD*%
D15*
%TO.C,R4*%
X120825000Y-75000000D03*
X119000000Y-75000000D03*
%TD*%
D10*
%TO.C,R8*%
X122725000Y-64900000D03*
X124550000Y-64900000D03*
%TD*%
D16*
%TO.C,J19*%
X138684000Y-73548000D03*
%TD*%
D15*
%TO.C,R3*%
X120825000Y-72750000D03*
X119000000Y-72750000D03*
%TD*%
D11*
%TO.C,J16*%
X138684000Y-77048000D03*
%TD*%
%TO.C,J7*%
X116200000Y-84200000D03*
%TD*%
D17*
%TO.C,J1*%
X116260000Y-62340000D03*
D18*
X116260000Y-64880000D03*
X116260000Y-67420000D03*
X116260000Y-69960000D03*
X116260000Y-72500000D03*
X116260000Y-75040000D03*
X116260000Y-77580000D03*
X131500000Y-77580000D03*
X131500000Y-75040000D03*
X131500000Y-72500000D03*
X131500000Y-69960000D03*
X131500000Y-67420000D03*
X131500000Y-64880000D03*
D17*
X131500000Y-62340000D03*
%TD*%
D14*
%TO.C,H1*%
X108750000Y-62750000D03*
%TD*%
D19*
%TO.C,J4*%
X135725000Y-87500000D03*
X135725000Y-86500000D03*
X135725000Y-85500000D03*
X135725000Y-84500000D03*
D20*
X139600000Y-88800000D03*
X139600000Y-83200000D03*
%TD*%
D14*
%TO.C,H2*%
X138750000Y-62750000D03*
%TD*%
D11*
%TO.C,J6*%
X119200000Y-87750000D03*
%TD*%
D14*
%TO.C,H3*%
X108750000Y-92750000D03*
%TD*%
D11*
%TO.C,J18*%
X138684000Y-80548000D03*
%TD*%
D16*
%TO.C,J17*%
X138684000Y-70048000D03*
%TD*%
D11*
%TO.C,J5*%
X116200000Y-87750000D03*
%TD*%
%TO.C,J9*%
X134200000Y-92750000D03*
%TD*%
D10*
%TO.C,R5*%
X122750000Y-62400000D03*
X124575000Y-62400000D03*
%TD*%
D11*
%TO.C,J10*%
X127200000Y-92750000D03*
%TD*%
%TO.C,J15*%
X108204000Y-71628000D03*
%TD*%
M02*
