%TF.GenerationSoftware,KiCad,Pcbnew,9.0.7*%
%TF.CreationDate,2026-02-16T17:50:48-05:00*%
%TF.ProjectId,drone-receiver-board,64726f6e-652d-4726-9563-65697665722d,rev?*%
%TF.SameCoordinates,Original*%
%TF.FileFunction,Legend,Top*%
%TF.FilePolarity,Positive*%
%FSLAX46Y46*%
G04 Gerber Fmt 4.6, Leading zero omitted, Abs format (unit mm)*
G04 Created by KiCad (PCBNEW 9.0.7) date 2026-02-16 17:50:48*
%MOMM*%
%LPD*%
G01*
G04 APERTURE LIST*
%ADD10C,0.150000*%
%ADD11C,0.100000*%
%ADD12C,0.120000*%
G04 APERTURE END LIST*
D10*
X119745833Y-61424819D02*
X119412500Y-60948628D01*
X119174405Y-61424819D02*
X119174405Y-60424819D01*
X119174405Y-60424819D02*
X119555357Y-60424819D01*
X119555357Y-60424819D02*
X119650595Y-60472438D01*
X119650595Y-60472438D02*
X119698214Y-60520057D01*
X119698214Y-60520057D02*
X119745833Y-60615295D01*
X119745833Y-60615295D02*
X119745833Y-60758152D01*
X119745833Y-60758152D02*
X119698214Y-60853390D01*
X119698214Y-60853390D02*
X119650595Y-60901009D01*
X119650595Y-60901009D02*
X119555357Y-60948628D01*
X119555357Y-60948628D02*
X119174405Y-60948628D01*
X120602976Y-60424819D02*
X120412500Y-60424819D01*
X120412500Y-60424819D02*
X120317262Y-60472438D01*
X120317262Y-60472438D02*
X120269643Y-60520057D01*
X120269643Y-60520057D02*
X120174405Y-60662914D01*
X120174405Y-60662914D02*
X120126786Y-60853390D01*
X120126786Y-60853390D02*
X120126786Y-61234342D01*
X120126786Y-61234342D02*
X120174405Y-61329580D01*
X120174405Y-61329580D02*
X120222024Y-61377200D01*
X120222024Y-61377200D02*
X120317262Y-61424819D01*
X120317262Y-61424819D02*
X120507738Y-61424819D01*
X120507738Y-61424819D02*
X120602976Y-61377200D01*
X120602976Y-61377200D02*
X120650595Y-61329580D01*
X120650595Y-61329580D02*
X120698214Y-61234342D01*
X120698214Y-61234342D02*
X120698214Y-60996247D01*
X120698214Y-60996247D02*
X120650595Y-60901009D01*
X120650595Y-60901009D02*
X120602976Y-60853390D01*
X120602976Y-60853390D02*
X120507738Y-60805771D01*
X120507738Y-60805771D02*
X120317262Y-60805771D01*
X120317262Y-60805771D02*
X120222024Y-60853390D01*
X120222024Y-60853390D02*
X120174405Y-60901009D01*
X120174405Y-60901009D02*
X120126786Y-60996247D01*
X112390476Y-90204819D02*
X112390476Y-90919104D01*
X112390476Y-90919104D02*
X112342857Y-91061961D01*
X112342857Y-91061961D02*
X112247619Y-91157200D01*
X112247619Y-91157200D02*
X112104762Y-91204819D01*
X112104762Y-91204819D02*
X112009524Y-91204819D01*
X113390476Y-91204819D02*
X112819048Y-91204819D01*
X113104762Y-91204819D02*
X113104762Y-90204819D01*
X113104762Y-90204819D02*
X113009524Y-90347676D01*
X113009524Y-90347676D02*
X112914286Y-90442914D01*
X112914286Y-90442914D02*
X112819048Y-90490533D01*
X113771429Y-90300057D02*
X113819048Y-90252438D01*
X113819048Y-90252438D02*
X113914286Y-90204819D01*
X113914286Y-90204819D02*
X114152381Y-90204819D01*
X114152381Y-90204819D02*
X114247619Y-90252438D01*
X114247619Y-90252438D02*
X114295238Y-90300057D01*
X114295238Y-90300057D02*
X114342857Y-90395295D01*
X114342857Y-90395295D02*
X114342857Y-90490533D01*
X114342857Y-90490533D02*
X114295238Y-90633390D01*
X114295238Y-90633390D02*
X113723810Y-91204819D01*
X113723810Y-91204819D02*
X114342857Y-91204819D01*
X113184819Y-78133333D02*
X113899104Y-78133333D01*
X113899104Y-78133333D02*
X114041961Y-78180952D01*
X114041961Y-78180952D02*
X114137200Y-78276190D01*
X114137200Y-78276190D02*
X114184819Y-78419047D01*
X114184819Y-78419047D02*
X114184819Y-78514285D01*
X113280057Y-77704761D02*
X113232438Y-77657142D01*
X113232438Y-77657142D02*
X113184819Y-77561904D01*
X113184819Y-77561904D02*
X113184819Y-77323809D01*
X113184819Y-77323809D02*
X113232438Y-77228571D01*
X113232438Y-77228571D02*
X113280057Y-77180952D01*
X113280057Y-77180952D02*
X113375295Y-77133333D01*
X113375295Y-77133333D02*
X113470533Y-77133333D01*
X113470533Y-77133333D02*
X113613390Y-77180952D01*
X113613390Y-77180952D02*
X114184819Y-77752380D01*
X114184819Y-77752380D02*
X114184819Y-77133333D01*
X119745833Y-66754819D02*
X119412500Y-66278628D01*
X119174405Y-66754819D02*
X119174405Y-65754819D01*
X119174405Y-65754819D02*
X119555357Y-65754819D01*
X119555357Y-65754819D02*
X119650595Y-65802438D01*
X119650595Y-65802438D02*
X119698214Y-65850057D01*
X119698214Y-65850057D02*
X119745833Y-65945295D01*
X119745833Y-65945295D02*
X119745833Y-66088152D01*
X119745833Y-66088152D02*
X119698214Y-66183390D01*
X119698214Y-66183390D02*
X119650595Y-66231009D01*
X119650595Y-66231009D02*
X119555357Y-66278628D01*
X119555357Y-66278628D02*
X119174405Y-66278628D01*
X120079167Y-65754819D02*
X120745833Y-65754819D01*
X120745833Y-65754819D02*
X120317262Y-66754819D01*
X109754819Y-68809523D02*
X110469104Y-68809523D01*
X110469104Y-68809523D02*
X110611961Y-68857142D01*
X110611961Y-68857142D02*
X110707200Y-68952380D01*
X110707200Y-68952380D02*
X110754819Y-69095237D01*
X110754819Y-69095237D02*
X110754819Y-69190475D01*
X110754819Y-67809523D02*
X110754819Y-68380951D01*
X110754819Y-68095237D02*
X109754819Y-68095237D01*
X109754819Y-68095237D02*
X109897676Y-68190475D01*
X109897676Y-68190475D02*
X109992914Y-68285713D01*
X109992914Y-68285713D02*
X110040533Y-68380951D01*
X110088152Y-66952380D02*
X110754819Y-66952380D01*
X109707200Y-67190475D02*
X110421485Y-67428570D01*
X110421485Y-67428570D02*
X110421485Y-66809523D01*
X113184819Y-86333333D02*
X113899104Y-86333333D01*
X113899104Y-86333333D02*
X114041961Y-86380952D01*
X114041961Y-86380952D02*
X114137200Y-86476190D01*
X114137200Y-86476190D02*
X114184819Y-86619047D01*
X114184819Y-86619047D02*
X114184819Y-86714285D01*
X113184819Y-85952380D02*
X113184819Y-85333333D01*
X113184819Y-85333333D02*
X113565771Y-85666666D01*
X113565771Y-85666666D02*
X113565771Y-85523809D01*
X113565771Y-85523809D02*
X113613390Y-85428571D01*
X113613390Y-85428571D02*
X113661009Y-85380952D01*
X113661009Y-85380952D02*
X113756247Y-85333333D01*
X113756247Y-85333333D02*
X113994342Y-85333333D01*
X113994342Y-85333333D02*
X114089580Y-85380952D01*
X114089580Y-85380952D02*
X114137200Y-85428571D01*
X114137200Y-85428571D02*
X114184819Y-85523809D01*
X114184819Y-85523809D02*
X114184819Y-85809523D01*
X114184819Y-85809523D02*
X114137200Y-85904761D01*
X114137200Y-85904761D02*
X114089580Y-85952380D01*
X119390476Y-90204819D02*
X119390476Y-90919104D01*
X119390476Y-90919104D02*
X119342857Y-91061961D01*
X119342857Y-91061961D02*
X119247619Y-91157200D01*
X119247619Y-91157200D02*
X119104762Y-91204819D01*
X119104762Y-91204819D02*
X119009524Y-91204819D01*
X120390476Y-91204819D02*
X119819048Y-91204819D01*
X120104762Y-91204819D02*
X120104762Y-90204819D01*
X120104762Y-90204819D02*
X120009524Y-90347676D01*
X120009524Y-90347676D02*
X119914286Y-90442914D01*
X119914286Y-90442914D02*
X119819048Y-90490533D01*
X121342857Y-91204819D02*
X120771429Y-91204819D01*
X121057143Y-91204819D02*
X121057143Y-90204819D01*
X121057143Y-90204819D02*
X120961905Y-90347676D01*
X120961905Y-90347676D02*
X120866667Y-90442914D01*
X120866667Y-90442914D02*
X120771429Y-90490533D01*
X118866666Y-81654819D02*
X118866666Y-82369104D01*
X118866666Y-82369104D02*
X118819047Y-82511961D01*
X118819047Y-82511961D02*
X118723809Y-82607200D01*
X118723809Y-82607200D02*
X118580952Y-82654819D01*
X118580952Y-82654819D02*
X118485714Y-82654819D01*
X119485714Y-82083390D02*
X119390476Y-82035771D01*
X119390476Y-82035771D02*
X119342857Y-81988152D01*
X119342857Y-81988152D02*
X119295238Y-81892914D01*
X119295238Y-81892914D02*
X119295238Y-81845295D01*
X119295238Y-81845295D02*
X119342857Y-81750057D01*
X119342857Y-81750057D02*
X119390476Y-81702438D01*
X119390476Y-81702438D02*
X119485714Y-81654819D01*
X119485714Y-81654819D02*
X119676190Y-81654819D01*
X119676190Y-81654819D02*
X119771428Y-81702438D01*
X119771428Y-81702438D02*
X119819047Y-81750057D01*
X119819047Y-81750057D02*
X119866666Y-81845295D01*
X119866666Y-81845295D02*
X119866666Y-81892914D01*
X119866666Y-81892914D02*
X119819047Y-81988152D01*
X119819047Y-81988152D02*
X119771428Y-82035771D01*
X119771428Y-82035771D02*
X119676190Y-82083390D01*
X119676190Y-82083390D02*
X119485714Y-82083390D01*
X119485714Y-82083390D02*
X119390476Y-82131009D01*
X119390476Y-82131009D02*
X119342857Y-82178628D01*
X119342857Y-82178628D02*
X119295238Y-82273866D01*
X119295238Y-82273866D02*
X119295238Y-82464342D01*
X119295238Y-82464342D02*
X119342857Y-82559580D01*
X119342857Y-82559580D02*
X119390476Y-82607200D01*
X119390476Y-82607200D02*
X119485714Y-82654819D01*
X119485714Y-82654819D02*
X119676190Y-82654819D01*
X119676190Y-82654819D02*
X119771428Y-82607200D01*
X119771428Y-82607200D02*
X119819047Y-82559580D01*
X119819047Y-82559580D02*
X119866666Y-82464342D01*
X119866666Y-82464342D02*
X119866666Y-82273866D01*
X119866666Y-82273866D02*
X119819047Y-82178628D01*
X119819047Y-82178628D02*
X119771428Y-82131009D01*
X119771428Y-82131009D02*
X119676190Y-82083390D01*
X136254819Y-67309523D02*
X136969104Y-67309523D01*
X136969104Y-67309523D02*
X137111961Y-67357142D01*
X137111961Y-67357142D02*
X137207200Y-67452380D01*
X137207200Y-67452380D02*
X137254819Y-67595237D01*
X137254819Y-67595237D02*
X137254819Y-67690475D01*
X137254819Y-66309523D02*
X137254819Y-66880951D01*
X137254819Y-66595237D02*
X136254819Y-66595237D01*
X136254819Y-66595237D02*
X136397676Y-66690475D01*
X136397676Y-66690475D02*
X136492914Y-66785713D01*
X136492914Y-66785713D02*
X136540533Y-66880951D01*
X136254819Y-65976189D02*
X136254819Y-65357142D01*
X136254819Y-65357142D02*
X136635771Y-65690475D01*
X136635771Y-65690475D02*
X136635771Y-65547618D01*
X136635771Y-65547618D02*
X136683390Y-65452380D01*
X136683390Y-65452380D02*
X136731009Y-65404761D01*
X136731009Y-65404761D02*
X136826247Y-65357142D01*
X136826247Y-65357142D02*
X137064342Y-65357142D01*
X137064342Y-65357142D02*
X137159580Y-65404761D01*
X137159580Y-65404761D02*
X137207200Y-65452380D01*
X137207200Y-65452380D02*
X137254819Y-65547618D01*
X137254819Y-65547618D02*
X137254819Y-65833332D01*
X137254819Y-65833332D02*
X137207200Y-65928570D01*
X137207200Y-65928570D02*
X137159580Y-65976189D01*
X119745833Y-76884819D02*
X119412500Y-76408628D01*
X119174405Y-76884819D02*
X119174405Y-75884819D01*
X119174405Y-75884819D02*
X119555357Y-75884819D01*
X119555357Y-75884819D02*
X119650595Y-75932438D01*
X119650595Y-75932438D02*
X119698214Y-75980057D01*
X119698214Y-75980057D02*
X119745833Y-76075295D01*
X119745833Y-76075295D02*
X119745833Y-76218152D01*
X119745833Y-76218152D02*
X119698214Y-76313390D01*
X119698214Y-76313390D02*
X119650595Y-76361009D01*
X119650595Y-76361009D02*
X119555357Y-76408628D01*
X119555357Y-76408628D02*
X119174405Y-76408628D01*
X120602976Y-76218152D02*
X120602976Y-76884819D01*
X120364881Y-75837200D02*
X120126786Y-76551485D01*
X120126786Y-76551485D02*
X120745833Y-76551485D01*
X123470833Y-66754819D02*
X123137500Y-66278628D01*
X122899405Y-66754819D02*
X122899405Y-65754819D01*
X122899405Y-65754819D02*
X123280357Y-65754819D01*
X123280357Y-65754819D02*
X123375595Y-65802438D01*
X123375595Y-65802438D02*
X123423214Y-65850057D01*
X123423214Y-65850057D02*
X123470833Y-65945295D01*
X123470833Y-65945295D02*
X123470833Y-66088152D01*
X123470833Y-66088152D02*
X123423214Y-66183390D01*
X123423214Y-66183390D02*
X123375595Y-66231009D01*
X123375595Y-66231009D02*
X123280357Y-66278628D01*
X123280357Y-66278628D02*
X122899405Y-66278628D01*
X124042262Y-66183390D02*
X123947024Y-66135771D01*
X123947024Y-66135771D02*
X123899405Y-66088152D01*
X123899405Y-66088152D02*
X123851786Y-65992914D01*
X123851786Y-65992914D02*
X123851786Y-65945295D01*
X123851786Y-65945295D02*
X123899405Y-65850057D01*
X123899405Y-65850057D02*
X123947024Y-65802438D01*
X123947024Y-65802438D02*
X124042262Y-65754819D01*
X124042262Y-65754819D02*
X124232738Y-65754819D01*
X124232738Y-65754819D02*
X124327976Y-65802438D01*
X124327976Y-65802438D02*
X124375595Y-65850057D01*
X124375595Y-65850057D02*
X124423214Y-65945295D01*
X124423214Y-65945295D02*
X124423214Y-65992914D01*
X124423214Y-65992914D02*
X124375595Y-66088152D01*
X124375595Y-66088152D02*
X124327976Y-66135771D01*
X124327976Y-66135771D02*
X124232738Y-66183390D01*
X124232738Y-66183390D02*
X124042262Y-66183390D01*
X124042262Y-66183390D02*
X123947024Y-66231009D01*
X123947024Y-66231009D02*
X123899405Y-66278628D01*
X123899405Y-66278628D02*
X123851786Y-66373866D01*
X123851786Y-66373866D02*
X123851786Y-66564342D01*
X123851786Y-66564342D02*
X123899405Y-66659580D01*
X123899405Y-66659580D02*
X123947024Y-66707200D01*
X123947024Y-66707200D02*
X124042262Y-66754819D01*
X124042262Y-66754819D02*
X124232738Y-66754819D01*
X124232738Y-66754819D02*
X124327976Y-66707200D01*
X124327976Y-66707200D02*
X124375595Y-66659580D01*
X124375595Y-66659580D02*
X124423214Y-66564342D01*
X124423214Y-66564342D02*
X124423214Y-66373866D01*
X124423214Y-66373866D02*
X124375595Y-66278628D01*
X124375595Y-66278628D02*
X124327976Y-66231009D01*
X124327976Y-66231009D02*
X124232738Y-66183390D01*
X136254819Y-74357523D02*
X136969104Y-74357523D01*
X136969104Y-74357523D02*
X137111961Y-74405142D01*
X137111961Y-74405142D02*
X137207200Y-74500380D01*
X137207200Y-74500380D02*
X137254819Y-74643237D01*
X137254819Y-74643237D02*
X137254819Y-74738475D01*
X137254819Y-73357523D02*
X137254819Y-73928951D01*
X137254819Y-73643237D02*
X136254819Y-73643237D01*
X136254819Y-73643237D02*
X136397676Y-73738475D01*
X136397676Y-73738475D02*
X136492914Y-73833713D01*
X136492914Y-73833713D02*
X136540533Y-73928951D01*
X137254819Y-72881332D02*
X137254819Y-72690856D01*
X137254819Y-72690856D02*
X137207200Y-72595618D01*
X137207200Y-72595618D02*
X137159580Y-72547999D01*
X137159580Y-72547999D02*
X137016723Y-72452761D01*
X137016723Y-72452761D02*
X136826247Y-72405142D01*
X136826247Y-72405142D02*
X136445295Y-72405142D01*
X136445295Y-72405142D02*
X136350057Y-72452761D01*
X136350057Y-72452761D02*
X136302438Y-72500380D01*
X136302438Y-72500380D02*
X136254819Y-72595618D01*
X136254819Y-72595618D02*
X136254819Y-72786094D01*
X136254819Y-72786094D02*
X136302438Y-72881332D01*
X136302438Y-72881332D02*
X136350057Y-72928951D01*
X136350057Y-72928951D02*
X136445295Y-72976570D01*
X136445295Y-72976570D02*
X136683390Y-72976570D01*
X136683390Y-72976570D02*
X136778628Y-72928951D01*
X136778628Y-72928951D02*
X136826247Y-72881332D01*
X136826247Y-72881332D02*
X136873866Y-72786094D01*
X136873866Y-72786094D02*
X136873866Y-72595618D01*
X136873866Y-72595618D02*
X136826247Y-72500380D01*
X136826247Y-72500380D02*
X136778628Y-72452761D01*
X136778628Y-72452761D02*
X136683390Y-72405142D01*
X119745833Y-71704819D02*
X119412500Y-71228628D01*
X119174405Y-71704819D02*
X119174405Y-70704819D01*
X119174405Y-70704819D02*
X119555357Y-70704819D01*
X119555357Y-70704819D02*
X119650595Y-70752438D01*
X119650595Y-70752438D02*
X119698214Y-70800057D01*
X119698214Y-70800057D02*
X119745833Y-70895295D01*
X119745833Y-70895295D02*
X119745833Y-71038152D01*
X119745833Y-71038152D02*
X119698214Y-71133390D01*
X119698214Y-71133390D02*
X119650595Y-71181009D01*
X119650595Y-71181009D02*
X119555357Y-71228628D01*
X119555357Y-71228628D02*
X119174405Y-71228628D01*
X120079167Y-70704819D02*
X120698214Y-70704819D01*
X120698214Y-70704819D02*
X120364881Y-71085771D01*
X120364881Y-71085771D02*
X120507738Y-71085771D01*
X120507738Y-71085771D02*
X120602976Y-71133390D01*
X120602976Y-71133390D02*
X120650595Y-71181009D01*
X120650595Y-71181009D02*
X120698214Y-71276247D01*
X120698214Y-71276247D02*
X120698214Y-71514342D01*
X120698214Y-71514342D02*
X120650595Y-71609580D01*
X120650595Y-71609580D02*
X120602976Y-71657200D01*
X120602976Y-71657200D02*
X120507738Y-71704819D01*
X120507738Y-71704819D02*
X120222024Y-71704819D01*
X120222024Y-71704819D02*
X120126786Y-71657200D01*
X120126786Y-71657200D02*
X120079167Y-71609580D01*
X136254819Y-77809523D02*
X136969104Y-77809523D01*
X136969104Y-77809523D02*
X137111961Y-77857142D01*
X137111961Y-77857142D02*
X137207200Y-77952380D01*
X137207200Y-77952380D02*
X137254819Y-78095237D01*
X137254819Y-78095237D02*
X137254819Y-78190475D01*
X137254819Y-76809523D02*
X137254819Y-77380951D01*
X137254819Y-77095237D02*
X136254819Y-77095237D01*
X136254819Y-77095237D02*
X136397676Y-77190475D01*
X136397676Y-77190475D02*
X136492914Y-77285713D01*
X136492914Y-77285713D02*
X136540533Y-77380951D01*
X136254819Y-75952380D02*
X136254819Y-76142856D01*
X136254819Y-76142856D02*
X136302438Y-76238094D01*
X136302438Y-76238094D02*
X136350057Y-76285713D01*
X136350057Y-76285713D02*
X136492914Y-76380951D01*
X136492914Y-76380951D02*
X136683390Y-76428570D01*
X136683390Y-76428570D02*
X137064342Y-76428570D01*
X137064342Y-76428570D02*
X137159580Y-76380951D01*
X137159580Y-76380951D02*
X137207200Y-76333332D01*
X137207200Y-76333332D02*
X137254819Y-76238094D01*
X137254819Y-76238094D02*
X137254819Y-76047618D01*
X137254819Y-76047618D02*
X137207200Y-75952380D01*
X137207200Y-75952380D02*
X137159580Y-75904761D01*
X137159580Y-75904761D02*
X137064342Y-75857142D01*
X137064342Y-75857142D02*
X136826247Y-75857142D01*
X136826247Y-75857142D02*
X136731009Y-75904761D01*
X136731009Y-75904761D02*
X136683390Y-75952380D01*
X136683390Y-75952380D02*
X136635771Y-76047618D01*
X136635771Y-76047618D02*
X136635771Y-76238094D01*
X136635771Y-76238094D02*
X136683390Y-76333332D01*
X136683390Y-76333332D02*
X136731009Y-76380951D01*
X136731009Y-76380951D02*
X136826247Y-76428570D01*
X115866666Y-81654819D02*
X115866666Y-82369104D01*
X115866666Y-82369104D02*
X115819047Y-82511961D01*
X115819047Y-82511961D02*
X115723809Y-82607200D01*
X115723809Y-82607200D02*
X115580952Y-82654819D01*
X115580952Y-82654819D02*
X115485714Y-82654819D01*
X116247619Y-81654819D02*
X116914285Y-81654819D01*
X116914285Y-81654819D02*
X116485714Y-82654819D01*
D11*
X123426666Y-68337419D02*
X123426666Y-69051704D01*
X123426666Y-69051704D02*
X123379047Y-69194561D01*
X123379047Y-69194561D02*
X123283809Y-69289800D01*
X123283809Y-69289800D02*
X123140952Y-69337419D01*
X123140952Y-69337419D02*
X123045714Y-69337419D01*
X124426666Y-69337419D02*
X123855238Y-69337419D01*
X124140952Y-69337419D02*
X124140952Y-68337419D01*
X124140952Y-68337419D02*
X124045714Y-68480276D01*
X124045714Y-68480276D02*
X123950476Y-68575514D01*
X123950476Y-68575514D02*
X123855238Y-68623133D01*
D10*
X133199819Y-86333333D02*
X133914104Y-86333333D01*
X133914104Y-86333333D02*
X134056961Y-86380952D01*
X134056961Y-86380952D02*
X134152200Y-86476190D01*
X134152200Y-86476190D02*
X134199819Y-86619047D01*
X134199819Y-86619047D02*
X134199819Y-86714285D01*
X133533152Y-85428571D02*
X134199819Y-85428571D01*
X133152200Y-85666666D02*
X133866485Y-85904761D01*
X133866485Y-85904761D02*
X133866485Y-85285714D01*
X118866666Y-85204819D02*
X118866666Y-85919104D01*
X118866666Y-85919104D02*
X118819047Y-86061961D01*
X118819047Y-86061961D02*
X118723809Y-86157200D01*
X118723809Y-86157200D02*
X118580952Y-86204819D01*
X118580952Y-86204819D02*
X118485714Y-86204819D01*
X119771428Y-85204819D02*
X119580952Y-85204819D01*
X119580952Y-85204819D02*
X119485714Y-85252438D01*
X119485714Y-85252438D02*
X119438095Y-85300057D01*
X119438095Y-85300057D02*
X119342857Y-85442914D01*
X119342857Y-85442914D02*
X119295238Y-85633390D01*
X119295238Y-85633390D02*
X119295238Y-86014342D01*
X119295238Y-86014342D02*
X119342857Y-86109580D01*
X119342857Y-86109580D02*
X119390476Y-86157200D01*
X119390476Y-86157200D02*
X119485714Y-86204819D01*
X119485714Y-86204819D02*
X119676190Y-86204819D01*
X119676190Y-86204819D02*
X119771428Y-86157200D01*
X119771428Y-86157200D02*
X119819047Y-86109580D01*
X119819047Y-86109580D02*
X119866666Y-86014342D01*
X119866666Y-86014342D02*
X119866666Y-85776247D01*
X119866666Y-85776247D02*
X119819047Y-85681009D01*
X119819047Y-85681009D02*
X119771428Y-85633390D01*
X119771428Y-85633390D02*
X119676190Y-85585771D01*
X119676190Y-85585771D02*
X119485714Y-85585771D01*
X119485714Y-85585771D02*
X119390476Y-85633390D01*
X119390476Y-85633390D02*
X119342857Y-85681009D01*
X119342857Y-85681009D02*
X119295238Y-85776247D01*
X136154819Y-81309523D02*
X136869104Y-81309523D01*
X136869104Y-81309523D02*
X137011961Y-81357142D01*
X137011961Y-81357142D02*
X137107200Y-81452380D01*
X137107200Y-81452380D02*
X137154819Y-81595237D01*
X137154819Y-81595237D02*
X137154819Y-81690475D01*
X137154819Y-80309523D02*
X137154819Y-80880951D01*
X137154819Y-80595237D02*
X136154819Y-80595237D01*
X136154819Y-80595237D02*
X136297676Y-80690475D01*
X136297676Y-80690475D02*
X136392914Y-80785713D01*
X136392914Y-80785713D02*
X136440533Y-80880951D01*
X136583390Y-79738094D02*
X136535771Y-79833332D01*
X136535771Y-79833332D02*
X136488152Y-79880951D01*
X136488152Y-79880951D02*
X136392914Y-79928570D01*
X136392914Y-79928570D02*
X136345295Y-79928570D01*
X136345295Y-79928570D02*
X136250057Y-79880951D01*
X136250057Y-79880951D02*
X136202438Y-79833332D01*
X136202438Y-79833332D02*
X136154819Y-79738094D01*
X136154819Y-79738094D02*
X136154819Y-79547618D01*
X136154819Y-79547618D02*
X136202438Y-79452380D01*
X136202438Y-79452380D02*
X136250057Y-79404761D01*
X136250057Y-79404761D02*
X136345295Y-79357142D01*
X136345295Y-79357142D02*
X136392914Y-79357142D01*
X136392914Y-79357142D02*
X136488152Y-79404761D01*
X136488152Y-79404761D02*
X136535771Y-79452380D01*
X136535771Y-79452380D02*
X136583390Y-79547618D01*
X136583390Y-79547618D02*
X136583390Y-79738094D01*
X136583390Y-79738094D02*
X136631009Y-79833332D01*
X136631009Y-79833332D02*
X136678628Y-79880951D01*
X136678628Y-79880951D02*
X136773866Y-79928570D01*
X136773866Y-79928570D02*
X136964342Y-79928570D01*
X136964342Y-79928570D02*
X137059580Y-79880951D01*
X137059580Y-79880951D02*
X137107200Y-79833332D01*
X137107200Y-79833332D02*
X137154819Y-79738094D01*
X137154819Y-79738094D02*
X137154819Y-79547618D01*
X137154819Y-79547618D02*
X137107200Y-79452380D01*
X137107200Y-79452380D02*
X137059580Y-79404761D01*
X137059580Y-79404761D02*
X136964342Y-79357142D01*
X136964342Y-79357142D02*
X136773866Y-79357142D01*
X136773866Y-79357142D02*
X136678628Y-79404761D01*
X136678628Y-79404761D02*
X136631009Y-79452380D01*
X136631009Y-79452380D02*
X136583390Y-79547618D01*
X136254819Y-70857523D02*
X136969104Y-70857523D01*
X136969104Y-70857523D02*
X137111961Y-70905142D01*
X137111961Y-70905142D02*
X137207200Y-71000380D01*
X137207200Y-71000380D02*
X137254819Y-71143237D01*
X137254819Y-71143237D02*
X137254819Y-71238475D01*
X137254819Y-69857523D02*
X137254819Y-70428951D01*
X137254819Y-70143237D02*
X136254819Y-70143237D01*
X136254819Y-70143237D02*
X136397676Y-70238475D01*
X136397676Y-70238475D02*
X136492914Y-70333713D01*
X136492914Y-70333713D02*
X136540533Y-70428951D01*
X136254819Y-69524189D02*
X136254819Y-68857523D01*
X136254819Y-68857523D02*
X137254819Y-69286094D01*
X115866666Y-85204819D02*
X115866666Y-85919104D01*
X115866666Y-85919104D02*
X115819047Y-86061961D01*
X115819047Y-86061961D02*
X115723809Y-86157200D01*
X115723809Y-86157200D02*
X115580952Y-86204819D01*
X115580952Y-86204819D02*
X115485714Y-86204819D01*
X116819047Y-85204819D02*
X116342857Y-85204819D01*
X116342857Y-85204819D02*
X116295238Y-85681009D01*
X116295238Y-85681009D02*
X116342857Y-85633390D01*
X116342857Y-85633390D02*
X116438095Y-85585771D01*
X116438095Y-85585771D02*
X116676190Y-85585771D01*
X116676190Y-85585771D02*
X116771428Y-85633390D01*
X116771428Y-85633390D02*
X116819047Y-85681009D01*
X116819047Y-85681009D02*
X116866666Y-85776247D01*
X116866666Y-85776247D02*
X116866666Y-86014342D01*
X116866666Y-86014342D02*
X116819047Y-86109580D01*
X116819047Y-86109580D02*
X116771428Y-86157200D01*
X116771428Y-86157200D02*
X116676190Y-86204819D01*
X116676190Y-86204819D02*
X116438095Y-86204819D01*
X116438095Y-86204819D02*
X116342857Y-86157200D01*
X116342857Y-86157200D02*
X116295238Y-86109580D01*
X133866666Y-90204819D02*
X133866666Y-90919104D01*
X133866666Y-90919104D02*
X133819047Y-91061961D01*
X133819047Y-91061961D02*
X133723809Y-91157200D01*
X133723809Y-91157200D02*
X133580952Y-91204819D01*
X133580952Y-91204819D02*
X133485714Y-91204819D01*
X134390476Y-91204819D02*
X134580952Y-91204819D01*
X134580952Y-91204819D02*
X134676190Y-91157200D01*
X134676190Y-91157200D02*
X134723809Y-91109580D01*
X134723809Y-91109580D02*
X134819047Y-90966723D01*
X134819047Y-90966723D02*
X134866666Y-90776247D01*
X134866666Y-90776247D02*
X134866666Y-90395295D01*
X134866666Y-90395295D02*
X134819047Y-90300057D01*
X134819047Y-90300057D02*
X134771428Y-90252438D01*
X134771428Y-90252438D02*
X134676190Y-90204819D01*
X134676190Y-90204819D02*
X134485714Y-90204819D01*
X134485714Y-90204819D02*
X134390476Y-90252438D01*
X134390476Y-90252438D02*
X134342857Y-90300057D01*
X134342857Y-90300057D02*
X134295238Y-90395295D01*
X134295238Y-90395295D02*
X134295238Y-90633390D01*
X134295238Y-90633390D02*
X134342857Y-90728628D01*
X134342857Y-90728628D02*
X134390476Y-90776247D01*
X134390476Y-90776247D02*
X134485714Y-90823866D01*
X134485714Y-90823866D02*
X134676190Y-90823866D01*
X134676190Y-90823866D02*
X134771428Y-90776247D01*
X134771428Y-90776247D02*
X134819047Y-90728628D01*
X134819047Y-90728628D02*
X134866666Y-90633390D01*
X123495833Y-61424819D02*
X123162500Y-60948628D01*
X122924405Y-61424819D02*
X122924405Y-60424819D01*
X122924405Y-60424819D02*
X123305357Y-60424819D01*
X123305357Y-60424819D02*
X123400595Y-60472438D01*
X123400595Y-60472438D02*
X123448214Y-60520057D01*
X123448214Y-60520057D02*
X123495833Y-60615295D01*
X123495833Y-60615295D02*
X123495833Y-60758152D01*
X123495833Y-60758152D02*
X123448214Y-60853390D01*
X123448214Y-60853390D02*
X123400595Y-60901009D01*
X123400595Y-60901009D02*
X123305357Y-60948628D01*
X123305357Y-60948628D02*
X122924405Y-60948628D01*
X124400595Y-60424819D02*
X123924405Y-60424819D01*
X123924405Y-60424819D02*
X123876786Y-60901009D01*
X123876786Y-60901009D02*
X123924405Y-60853390D01*
X123924405Y-60853390D02*
X124019643Y-60805771D01*
X124019643Y-60805771D02*
X124257738Y-60805771D01*
X124257738Y-60805771D02*
X124352976Y-60853390D01*
X124352976Y-60853390D02*
X124400595Y-60901009D01*
X124400595Y-60901009D02*
X124448214Y-60996247D01*
X124448214Y-60996247D02*
X124448214Y-61234342D01*
X124448214Y-61234342D02*
X124400595Y-61329580D01*
X124400595Y-61329580D02*
X124352976Y-61377200D01*
X124352976Y-61377200D02*
X124257738Y-61424819D01*
X124257738Y-61424819D02*
X124019643Y-61424819D01*
X124019643Y-61424819D02*
X123924405Y-61377200D01*
X123924405Y-61377200D02*
X123876786Y-61329580D01*
X126390476Y-90204819D02*
X126390476Y-90919104D01*
X126390476Y-90919104D02*
X126342857Y-91061961D01*
X126342857Y-91061961D02*
X126247619Y-91157200D01*
X126247619Y-91157200D02*
X126104762Y-91204819D01*
X126104762Y-91204819D02*
X126009524Y-91204819D01*
X127390476Y-91204819D02*
X126819048Y-91204819D01*
X127104762Y-91204819D02*
X127104762Y-90204819D01*
X127104762Y-90204819D02*
X127009524Y-90347676D01*
X127009524Y-90347676D02*
X126914286Y-90442914D01*
X126914286Y-90442914D02*
X126819048Y-90490533D01*
X128009524Y-90204819D02*
X128104762Y-90204819D01*
X128104762Y-90204819D02*
X128200000Y-90252438D01*
X128200000Y-90252438D02*
X128247619Y-90300057D01*
X128247619Y-90300057D02*
X128295238Y-90395295D01*
X128295238Y-90395295D02*
X128342857Y-90585771D01*
X128342857Y-90585771D02*
X128342857Y-90823866D01*
X128342857Y-90823866D02*
X128295238Y-91014342D01*
X128295238Y-91014342D02*
X128247619Y-91109580D01*
X128247619Y-91109580D02*
X128200000Y-91157200D01*
X128200000Y-91157200D02*
X128104762Y-91204819D01*
X128104762Y-91204819D02*
X128009524Y-91204819D01*
X128009524Y-91204819D02*
X127914286Y-91157200D01*
X127914286Y-91157200D02*
X127866667Y-91109580D01*
X127866667Y-91109580D02*
X127819048Y-91014342D01*
X127819048Y-91014342D02*
X127771429Y-90823866D01*
X127771429Y-90823866D02*
X127771429Y-90585771D01*
X127771429Y-90585771D02*
X127819048Y-90395295D01*
X127819048Y-90395295D02*
X127866667Y-90300057D01*
X127866667Y-90300057D02*
X127914286Y-90252438D01*
X127914286Y-90252438D02*
X128009524Y-90204819D01*
X109754819Y-72409523D02*
X110469104Y-72409523D01*
X110469104Y-72409523D02*
X110611961Y-72457142D01*
X110611961Y-72457142D02*
X110707200Y-72552380D01*
X110707200Y-72552380D02*
X110754819Y-72695237D01*
X110754819Y-72695237D02*
X110754819Y-72790475D01*
X110754819Y-71409523D02*
X110754819Y-71980951D01*
X110754819Y-71695237D02*
X109754819Y-71695237D01*
X109754819Y-71695237D02*
X109897676Y-71790475D01*
X109897676Y-71790475D02*
X109992914Y-71885713D01*
X109992914Y-71885713D02*
X110040533Y-71980951D01*
X109754819Y-70504761D02*
X109754819Y-70980951D01*
X109754819Y-70980951D02*
X110231009Y-71028570D01*
X110231009Y-71028570D02*
X110183390Y-70980951D01*
X110183390Y-70980951D02*
X110135771Y-70885713D01*
X110135771Y-70885713D02*
X110135771Y-70647618D01*
X110135771Y-70647618D02*
X110183390Y-70552380D01*
X110183390Y-70552380D02*
X110231009Y-70504761D01*
X110231009Y-70504761D02*
X110326247Y-70457142D01*
X110326247Y-70457142D02*
X110564342Y-70457142D01*
X110564342Y-70457142D02*
X110659580Y-70504761D01*
X110659580Y-70504761D02*
X110707200Y-70552380D01*
X110707200Y-70552380D02*
X110754819Y-70647618D01*
X110754819Y-70647618D02*
X110754819Y-70885713D01*
X110754819Y-70885713D02*
X110707200Y-70980951D01*
X110707200Y-70980951D02*
X110659580Y-71028570D01*
D12*
%TO.C,R6*%
X119657776Y-61877500D02*
X120167224Y-61877500D01*
X119657776Y-62922500D02*
X120167224Y-62922500D01*
%TO.C,J2*%
X107065000Y-75860000D02*
X107065000Y-79740000D01*
X109035000Y-74690000D02*
X111535000Y-74690000D01*
X109035000Y-80910000D02*
X111535000Y-80910000D01*
X111535000Y-74690000D02*
X111535000Y-75740000D01*
X111535000Y-75740000D02*
X112525000Y-75740000D01*
X111535000Y-80910000D02*
X111535000Y-79860000D01*
%TO.C,R7*%
X119657776Y-64377500D02*
X120167224Y-64377500D01*
X119657776Y-65422500D02*
X120167224Y-65422500D01*
%TO.C,J3*%
X107065000Y-84060000D02*
X107065000Y-87940000D01*
X109035000Y-82890000D02*
X111535000Y-82890000D01*
X109035000Y-89110000D02*
X111535000Y-89110000D01*
X111535000Y-82890000D02*
X111535000Y-83940000D01*
X111535000Y-83940000D02*
X112525000Y-83940000D01*
X111535000Y-89110000D02*
X111535000Y-88060000D01*
%TO.C,R4*%
X120167224Y-74477500D02*
X119657776Y-74477500D01*
X120167224Y-75522500D02*
X119657776Y-75522500D01*
%TO.C,R8*%
X123382776Y-64377500D02*
X123892224Y-64377500D01*
X123382776Y-65422500D02*
X123892224Y-65422500D01*
%TO.C,R3*%
X120167224Y-72227500D02*
X119657776Y-72227500D01*
X120167224Y-73272500D02*
X119657776Y-73272500D01*
%TO.C,J1*%
X114930000Y-63610000D02*
X114930000Y-78910000D01*
X114930000Y-63610000D02*
X117590000Y-63610000D01*
X114930000Y-78910000D02*
X117590000Y-78910000D01*
X116260000Y-61010000D02*
X117590000Y-61010000D01*
X117590000Y-61010000D02*
X117590000Y-62340000D01*
X117590000Y-63610000D02*
X117590000Y-78910000D01*
X130170000Y-63610000D02*
X130170000Y-78910000D01*
X130170000Y-63610000D02*
X132830000Y-63610000D01*
X130170000Y-78910000D02*
X132830000Y-78910000D01*
X131500000Y-61010000D02*
X132830000Y-61010000D01*
X132830000Y-61010000D02*
X132830000Y-62340000D01*
X132830000Y-63610000D02*
X132830000Y-78910000D01*
%TO.C,J4*%
X135940000Y-82890000D02*
X135940000Y-83940000D01*
X135940000Y-88060000D02*
X134950000Y-88060000D01*
X135940000Y-89110000D02*
X135940000Y-88060000D01*
X138440000Y-82890000D02*
X135940000Y-82890000D01*
X138440000Y-89110000D02*
X135940000Y-89110000D01*
X140410000Y-87940000D02*
X140410000Y-84060000D01*
%TO.C,R5*%
X123407776Y-61877500D02*
X123917224Y-61877500D01*
X123407776Y-62922500D02*
X123917224Y-62922500D01*
%TD*%
M02*
