%TF.GenerationSoftware,KiCad,Pcbnew,9.0.7*%
%TF.CreationDate,2026-02-16T17:50:48-05:00*%
%TF.ProjectId,drone-receiver-board,64726f6e-652d-4726-9563-65697665722d,rev?*%
%TF.SameCoordinates,Original*%
%TF.FileFunction,Copper,L2,Bot*%
%TF.FilePolarity,Positive*%
%FSLAX46Y46*%
G04 Gerber Fmt 4.6, Leading zero omitted, Abs format (unit mm)*
G04 Created by KiCad (PCBNEW 9.0.7) date 2026-02-16 17:50:48*
%MOMM*%
%LPD*%
G01*
G04 APERTURE LIST*
G04 Aperture macros list*
%AMRoundRect*
0 Rectangle with rounded corners*
0 $1 Rounding radius*
0 $2 $3 $4 $5 $6 $7 $8 $9 X,Y pos of 4 corners*
0 Add a 4 corners polygon primitive as box body*
4,1,4,$2,$3,$4,$5,$6,$7,$8,$9,$2,$3,0*
0 Add four circle primitives for the rounded corners*
1,1,$1+$1,$2,$3*
1,1,$1+$1,$4,$5*
1,1,$1+$1,$6,$7*
1,1,$1+$1,$8,$9*
0 Add four rect primitives between the rounded corners*
20,1,$1+$1,$2,$3,$4,$5,0*
20,1,$1+$1,$4,$5,$6,$7,0*
20,1,$1+$1,$6,$7,$8,$9,0*
20,1,$1+$1,$8,$9,$2,$3,0*%
G04 Aperture macros list end*
%TA.AperFunction,ComponentPad*%
%ADD10RoundRect,0.250000X-0.550000X-0.550000X0.550000X-0.550000X0.550000X0.550000X-0.550000X0.550000X0*%
%TD*%
%TA.AperFunction,ComponentPad*%
%ADD11RoundRect,0.250000X-0.550000X0.550000X-0.550000X-0.550000X0.550000X-0.550000X0.550000X0.550000X0*%
%TD*%
%TA.AperFunction,ComponentPad*%
%ADD12R,1.700000X1.700000*%
%TD*%
%TA.AperFunction,ComponentPad*%
%ADD13C,1.700000*%
%TD*%
%TA.AperFunction,ViaPad*%
%ADD14C,0.600000*%
%TD*%
%TA.AperFunction,Conductor*%
%ADD15C,0.200000*%
%TD*%
G04 APERTURE END LIST*
D10*
%TO.P,J12,1,Pin_1*%
%TO.N,/GPIO44*%
X113200000Y-92750000D03*
%TD*%
%TO.P,J14,1,Pin_1*%
%TO.N,/GPIO4*%
X108204000Y-67978000D03*
%TD*%
%TO.P,J11,1,Pin_1*%
%TO.N,/GPIO7*%
X120200000Y-92750000D03*
%TD*%
%TO.P,J8,1,Pin_1*%
%TO.N,/VSense*%
X119200000Y-84200000D03*
%TD*%
%TO.P,J13,1,Pin_1*%
%TO.N,/GPIO3*%
X138684000Y-66548000D03*
%TD*%
D11*
%TO.P,J19,1,Pin_1*%
%TO.N,/SCL*%
X138684000Y-73548000D03*
%TD*%
D10*
%TO.P,J16,1,Pin_1*%
%TO.N,/SDA*%
X138684000Y-77048000D03*
%TD*%
%TO.P,J7,1,Pin_1*%
%TO.N,/ISense*%
X116200000Y-84200000D03*
%TD*%
D12*
%TO.P,J1,1,Pin_1*%
%TO.N,/GPIO1*%
X116260000Y-62340000D03*
D13*
%TO.P,J1,2,Pin_2*%
%TO.N,/GPIO2*%
X116260000Y-64880000D03*
%TO.P,J1,3,Pin_3*%
%TO.N,/GPIO3*%
X116260000Y-67420000D03*
%TO.P,J1,4,Pin_4*%
%TO.N,/GPIO4*%
X116260000Y-69960000D03*
%TO.P,J1,5,Pin_5*%
%TO.N,/SDA*%
X116260000Y-72500000D03*
%TO.P,J1,6,Pin_6*%
%TO.N,/SCL*%
X116260000Y-75040000D03*
%TO.P,J1,7,Pin_7*%
%TO.N,/GPIO43*%
X116260000Y-77580000D03*
%TO.P,J1,8,Pin_8*%
%TO.N,/GPIO44*%
X131500000Y-77580000D03*
%TO.P,J1,9,Pin_9*%
%TO.N,/GPIO7*%
X131500000Y-75040000D03*
%TO.P,J1,10,Pin_10*%
%TO.N,/GPIO8*%
X131500000Y-72500000D03*
%TO.P,J1,11,Pin_11*%
%TO.N,/GPIO9*%
X131500000Y-69960000D03*
%TO.P,J1,12,Pin_12*%
%TO.N,+3.3V*%
X131500000Y-67420000D03*
%TO.P,J1,13,Pin_13*%
%TO.N,GND*%
X131500000Y-64880000D03*
D12*
%TO.P,J1,14,Pin_14*%
%TO.N,+5V*%
X131500000Y-62340000D03*
%TD*%
D10*
%TO.P,J6,1,Pin_1*%
%TO.N,GND*%
X119200000Y-87750000D03*
%TD*%
%TO.P,J18,1,Pin_1*%
%TO.N,/SCL*%
X138684000Y-80548000D03*
%TD*%
D11*
%TO.P,J17,1,Pin_1*%
%TO.N,/SDA*%
X138684000Y-70048000D03*
%TD*%
D10*
%TO.P,J5,1,Pin_1*%
%TO.N,+5V*%
X116200000Y-87750000D03*
%TD*%
%TO.P,J9,1,Pin_1*%
%TO.N,/GPIO9*%
X134200000Y-92750000D03*
%TD*%
%TO.P,J10,1,Pin_1*%
%TO.N,/GPIO8*%
X127200000Y-92750000D03*
%TD*%
%TO.P,J15,1,Pin_1*%
%TO.N,/GPIO43*%
X108204000Y-71628000D03*
%TD*%
D14*
%TO.N,/SDA*%
X113800000Y-76900000D03*
X117475000Y-70749000D03*
%TO.N,GND*%
X126500000Y-68300000D03*
X110800000Y-72850000D03*
X119100000Y-78300000D03*
X139400000Y-61000000D03*
X128600000Y-78900000D03*
X122100000Y-70300000D03*
X134700000Y-66600000D03*
X109200000Y-81900000D03*
X107100000Y-93700000D03*
X140700000Y-68700000D03*
X107600000Y-90800000D03*
X116700000Y-90500000D03*
X107500000Y-73375000D03*
X112300000Y-81700000D03*
X106900000Y-65400000D03*
X140700000Y-73200000D03*
X122500000Y-94800000D03*
X121700000Y-63700000D03*
X107275000Y-61500000D03*
X136500000Y-61900000D03*
X110750000Y-60775000D03*
X121800000Y-61400000D03*
X135800000Y-72400000D03*
X119200000Y-88900000D03*
X110225000Y-75400000D03*
X130700000Y-65700000D03*
X106725000Y-69775000D03*
X119200000Y-86700000D03*
X118200000Y-62400000D03*
X128600000Y-74200000D03*
X140500000Y-81100000D03*
X112800000Y-79300000D03*
X106700000Y-81900000D03*
X140800000Y-77100000D03*
X122400000Y-74100000D03*
X115600000Y-82100000D03*
X135700000Y-83900000D03*
X137800000Y-68400000D03*
X130700000Y-64100000D03*
X110300000Y-64400000D03*
X113100000Y-90100000D03*
X123600000Y-80000000D03*
X137900000Y-64300000D03*
X136700000Y-94700000D03*
X128300000Y-65600000D03*
X121300000Y-66400000D03*
X140000000Y-86000000D03*
X111750000Y-88000000D03*
X107900000Y-77900000D03*
X137800000Y-87700000D03*
X125600000Y-63600000D03*
X119000000Y-65700000D03*
X137200000Y-90600000D03*
X112825000Y-62050000D03*
X113775000Y-69775000D03*
X119800000Y-94800000D03*
X121300000Y-82600000D03*
X110350000Y-69725000D03*
X112775000Y-65250000D03*
X113500000Y-94800000D03*
X126000000Y-76800000D03*
X113975000Y-72800000D03*
X119500000Y-69500000D03*
X120300000Y-87800000D03*
X117400000Y-80000000D03*
X110300000Y-94400000D03*
X125200000Y-94800000D03*
X140100000Y-90800000D03*
X139900000Y-94100000D03*
X120800000Y-76500000D03*
X111760178Y-79865495D03*
X126900000Y-61900000D03*
X135800000Y-75100000D03*
X118000000Y-87700000D03*
X108100000Y-86100000D03*
X119000000Y-61600000D03*
X134500000Y-60900000D03*
X133800000Y-94800000D03*
X123600000Y-85100000D03*
X115400000Y-80300000D03*
X130900000Y-94800000D03*
X114700000Y-84200000D03*
X126000000Y-82400000D03*
X112900000Y-87500000D03*
X128300000Y-94800000D03*
X118000000Y-64900000D03*
X135700000Y-80900000D03*
X117000000Y-94800000D03*
X136800000Y-84500000D03*
X135800000Y-77900000D03*
X110725000Y-66550000D03*
X135100000Y-69500000D03*
X140700000Y-65800000D03*
%TO.N,+3.3V*%
X132839566Y-68839566D03*
%TO.N,/ISense*%
X124000000Y-73600000D03*
X124575000Y-62400000D03*
%TO.N,/VSense*%
X124600000Y-64900000D03*
X124640384Y-76040384D03*
%TD*%
D15*
%TO.N,/SDA*%
X117475000Y-71285000D02*
X116260000Y-72500000D01*
X113800000Y-76900000D02*
X113800000Y-74960000D01*
X113800000Y-74960000D02*
X116260000Y-72500000D01*
X117475000Y-70749000D02*
X117475000Y-71285000D01*
%TO.N,+3.3V*%
X132839566Y-68839566D02*
X132839566Y-68759566D01*
X132839566Y-68759566D02*
X131500000Y-67420000D01*
%TO.N,/ISense*%
X124575000Y-62400000D02*
X124000000Y-62975000D01*
X124000000Y-62975000D02*
X124000000Y-73600000D01*
%TO.N,/VSense*%
X124640384Y-76040384D02*
X124640384Y-75940384D01*
X124640384Y-75940384D02*
X124600000Y-75900000D01*
X124600000Y-75900000D02*
X124600000Y-64900000D01*
%TD*%
%TA.AperFunction,Conductor*%
%TO.N,GND*%
G36*
X138753736Y-60400726D02*
G01*
X139025717Y-60417178D01*
X139040578Y-60418982D01*
X139304904Y-60467421D01*
X139319430Y-60471002D01*
X139575981Y-60550947D01*
X139589972Y-60556252D01*
X139835034Y-60666545D01*
X139848280Y-60673498D01*
X140078255Y-60812522D01*
X140090566Y-60821020D01*
X140302105Y-60986750D01*
X140313313Y-60996680D01*
X140503319Y-61186686D01*
X140513249Y-61197894D01*
X140671197Y-61399500D01*
X140678975Y-61409427D01*
X140687479Y-61421747D01*
X140699796Y-61442122D01*
X140826498Y-61651713D01*
X140833457Y-61664972D01*
X140943745Y-61910022D01*
X140949054Y-61924023D01*
X141028995Y-62180563D01*
X141032579Y-62195102D01*
X141081016Y-62459420D01*
X141082821Y-62474283D01*
X141095514Y-62684108D01*
X141099089Y-62743213D01*
X141099274Y-62746262D01*
X141099500Y-62753750D01*
X141099500Y-92746249D01*
X141099274Y-92753737D01*
X141082821Y-93025716D01*
X141081016Y-93040579D01*
X141032579Y-93304897D01*
X141028995Y-93319436D01*
X140949054Y-93575976D01*
X140943745Y-93589977D01*
X140833457Y-93835027D01*
X140826498Y-93848286D01*
X140687481Y-94078249D01*
X140678975Y-94090572D01*
X140513249Y-94302105D01*
X140503319Y-94313313D01*
X140313313Y-94503319D01*
X140302105Y-94513249D01*
X140090572Y-94678975D01*
X140078249Y-94687481D01*
X139848286Y-94826498D01*
X139835027Y-94833457D01*
X139589977Y-94943745D01*
X139575976Y-94949054D01*
X139319436Y-95028995D01*
X139304897Y-95032579D01*
X139040579Y-95081016D01*
X139025716Y-95082821D01*
X138771326Y-95098209D01*
X138753735Y-95099274D01*
X138746249Y-95099500D01*
X108753751Y-95099500D01*
X108746264Y-95099274D01*
X108474284Y-95082821D01*
X108459420Y-95081016D01*
X108195102Y-95032579D01*
X108180563Y-95028995D01*
X107924023Y-94949054D01*
X107910022Y-94943745D01*
X107664972Y-94833457D01*
X107651713Y-94826498D01*
X107421750Y-94687481D01*
X107409427Y-94678975D01*
X107197894Y-94513249D01*
X107186686Y-94503319D01*
X106996680Y-94313313D01*
X106986750Y-94302105D01*
X106964091Y-94273183D01*
X106821020Y-94090566D01*
X106812522Y-94078255D01*
X106673498Y-93848280D01*
X106666545Y-93835034D01*
X106556252Y-93589972D01*
X106550945Y-93575976D01*
X106471002Y-93319430D01*
X106467420Y-93304897D01*
X106461914Y-93274853D01*
X106418982Y-93040578D01*
X106417178Y-93025715D01*
X106400726Y-92753736D01*
X106400500Y-92746249D01*
X106400500Y-92643713D01*
X107399500Y-92643713D01*
X107399500Y-92856286D01*
X107432753Y-93066239D01*
X107498444Y-93268414D01*
X107594951Y-93457820D01*
X107719890Y-93629786D01*
X107870213Y-93780109D01*
X108042179Y-93905048D01*
X108042181Y-93905049D01*
X108042184Y-93905051D01*
X108231588Y-94001557D01*
X108433757Y-94067246D01*
X108643713Y-94100500D01*
X108643714Y-94100500D01*
X108856286Y-94100500D01*
X108856287Y-94100500D01*
X109066243Y-94067246D01*
X109268412Y-94001557D01*
X109457816Y-93905051D01*
X109544782Y-93841867D01*
X109629786Y-93780109D01*
X109629788Y-93780106D01*
X109629792Y-93780104D01*
X109780104Y-93629792D01*
X109780106Y-93629788D01*
X109780109Y-93629786D01*
X109905048Y-93457820D01*
X109905047Y-93457820D01*
X109905051Y-93457816D01*
X110001557Y-93268412D01*
X110067246Y-93066243D01*
X110100500Y-92856287D01*
X110100500Y-92643713D01*
X110067246Y-92433757D01*
X110001557Y-92231588D01*
X110001554Y-92231582D01*
X109987058Y-92203130D01*
X109987057Y-92203129D01*
X109959978Y-92149983D01*
X111899500Y-92149983D01*
X111899500Y-93350001D01*
X111899501Y-93350018D01*
X111910000Y-93452796D01*
X111910001Y-93452799D01*
X111965185Y-93619331D01*
X111965187Y-93619336D01*
X112000069Y-93675888D01*
X112057288Y-93768656D01*
X112181344Y-93892712D01*
X112330666Y-93984814D01*
X112497203Y-94039999D01*
X112599991Y-94050500D01*
X113800008Y-94050499D01*
X113902797Y-94039999D01*
X114069334Y-93984814D01*
X114218656Y-93892712D01*
X114342712Y-93768656D01*
X114434814Y-93619334D01*
X114489999Y-93452797D01*
X114500500Y-93350009D01*
X114500499Y-92149992D01*
X114500498Y-92149983D01*
X118899500Y-92149983D01*
X118899500Y-93350001D01*
X118899501Y-93350018D01*
X118910000Y-93452796D01*
X118910001Y-93452799D01*
X118965185Y-93619331D01*
X118965187Y-93619336D01*
X119000069Y-93675888D01*
X119057288Y-93768656D01*
X119181344Y-93892712D01*
X119330666Y-93984814D01*
X119497203Y-94039999D01*
X119599991Y-94050500D01*
X120800008Y-94050499D01*
X120902797Y-94039999D01*
X121069334Y-93984814D01*
X121218656Y-93892712D01*
X121342712Y-93768656D01*
X121434814Y-93619334D01*
X121489999Y-93452797D01*
X121500500Y-93350009D01*
X121500499Y-92149992D01*
X121500498Y-92149983D01*
X125899500Y-92149983D01*
X125899500Y-93350001D01*
X125899501Y-93350018D01*
X125910000Y-93452796D01*
X125910001Y-93452799D01*
X125965185Y-93619331D01*
X125965187Y-93619336D01*
X126000069Y-93675888D01*
X126057288Y-93768656D01*
X126181344Y-93892712D01*
X126330666Y-93984814D01*
X126497203Y-94039999D01*
X126599991Y-94050500D01*
X127800008Y-94050499D01*
X127902797Y-94039999D01*
X128069334Y-93984814D01*
X128218656Y-93892712D01*
X128342712Y-93768656D01*
X128434814Y-93619334D01*
X128489999Y-93452797D01*
X128500500Y-93350009D01*
X128500499Y-92149992D01*
X128500498Y-92149983D01*
X132899500Y-92149983D01*
X132899500Y-93350001D01*
X132899501Y-93350018D01*
X132910000Y-93452796D01*
X132910001Y-93452799D01*
X132965185Y-93619331D01*
X132965187Y-93619336D01*
X133000069Y-93675888D01*
X133057288Y-93768656D01*
X133181344Y-93892712D01*
X133330666Y-93984814D01*
X133497203Y-94039999D01*
X133599991Y-94050500D01*
X134800008Y-94050499D01*
X134902797Y-94039999D01*
X135069334Y-93984814D01*
X135218656Y-93892712D01*
X135342712Y-93768656D01*
X135434814Y-93619334D01*
X135489999Y-93452797D01*
X135500500Y-93350009D01*
X135500499Y-92643713D01*
X137399500Y-92643713D01*
X137399500Y-92856286D01*
X137432753Y-93066239D01*
X137498444Y-93268414D01*
X137594951Y-93457820D01*
X137719890Y-93629786D01*
X137870213Y-93780109D01*
X138042179Y-93905048D01*
X138042181Y-93905049D01*
X138042184Y-93905051D01*
X138231588Y-94001557D01*
X138433757Y-94067246D01*
X138643713Y-94100500D01*
X138643714Y-94100500D01*
X138856286Y-94100500D01*
X138856287Y-94100500D01*
X139066243Y-94067246D01*
X139268412Y-94001557D01*
X139457816Y-93905051D01*
X139544782Y-93841867D01*
X139629786Y-93780109D01*
X139629788Y-93780106D01*
X139629792Y-93780104D01*
X139780104Y-93629792D01*
X139780106Y-93629788D01*
X139780109Y-93629786D01*
X139905048Y-93457820D01*
X139905047Y-93457820D01*
X139905051Y-93457816D01*
X140001557Y-93268412D01*
X140067246Y-93066243D01*
X140100500Y-92856287D01*
X140100500Y-92643713D01*
X140067246Y-92433757D01*
X140001557Y-92231588D01*
X139905051Y-92042184D01*
X139905049Y-92042181D01*
X139905048Y-92042179D01*
X139780109Y-91870213D01*
X139629786Y-91719890D01*
X139457820Y-91594951D01*
X139268414Y-91498444D01*
X139268413Y-91498443D01*
X139268412Y-91498443D01*
X139066243Y-91432754D01*
X139066241Y-91432753D01*
X139066240Y-91432753D01*
X138904957Y-91407208D01*
X138856287Y-91399500D01*
X138643713Y-91399500D01*
X138595042Y-91407208D01*
X138433760Y-91432753D01*
X138231585Y-91498444D01*
X138042179Y-91594951D01*
X137870213Y-91719890D01*
X137719890Y-91870213D01*
X137594951Y-92042179D01*
X137498444Y-92231585D01*
X137432753Y-92433760D01*
X137399500Y-92643713D01*
X135500499Y-92643713D01*
X135500499Y-92149992D01*
X135489999Y-92047203D01*
X135434814Y-91880666D01*
X135342712Y-91731344D01*
X135218656Y-91607288D01*
X135069334Y-91515186D01*
X134902797Y-91460001D01*
X134902795Y-91460000D01*
X134800010Y-91449500D01*
X133599998Y-91449500D01*
X133599981Y-91449501D01*
X133497203Y-91460000D01*
X133497200Y-91460001D01*
X133330668Y-91515185D01*
X133330663Y-91515187D01*
X133181342Y-91607289D01*
X133057289Y-91731342D01*
X132965187Y-91880663D01*
X132965186Y-91880666D01*
X132910001Y-92047203D01*
X132910001Y-92047204D01*
X132910000Y-92047204D01*
X132899500Y-92149983D01*
X128500498Y-92149983D01*
X128489999Y-92047203D01*
X128434814Y-91880666D01*
X128342712Y-91731344D01*
X128218656Y-91607288D01*
X128069334Y-91515186D01*
X127902797Y-91460001D01*
X127902795Y-91460000D01*
X127800010Y-91449500D01*
X126599998Y-91449500D01*
X126599981Y-91449501D01*
X126497203Y-91460000D01*
X126497200Y-91460001D01*
X126330668Y-91515185D01*
X126330663Y-91515187D01*
X126181342Y-91607289D01*
X126057289Y-91731342D01*
X125965187Y-91880663D01*
X125965186Y-91880666D01*
X125910001Y-92047203D01*
X125910001Y-92047204D01*
X125910000Y-92047204D01*
X125899500Y-92149983D01*
X121500498Y-92149983D01*
X121489999Y-92047203D01*
X121434814Y-91880666D01*
X121342712Y-91731344D01*
X121218656Y-91607288D01*
X121069334Y-91515186D01*
X120902797Y-91460001D01*
X120902795Y-91460000D01*
X120800010Y-91449500D01*
X119599998Y-91449500D01*
X119599981Y-91449501D01*
X119497203Y-91460000D01*
X119497200Y-91460001D01*
X119330668Y-91515185D01*
X119330663Y-91515187D01*
X119181342Y-91607289D01*
X119057289Y-91731342D01*
X118965187Y-91880663D01*
X118965186Y-91880666D01*
X118910001Y-92047203D01*
X118910001Y-92047204D01*
X118910000Y-92047204D01*
X118899500Y-92149983D01*
X114500498Y-92149983D01*
X114489999Y-92047203D01*
X114434814Y-91880666D01*
X114342712Y-91731344D01*
X114218656Y-91607288D01*
X114069334Y-91515186D01*
X113902797Y-91460001D01*
X113902795Y-91460000D01*
X113800010Y-91449500D01*
X112599998Y-91449500D01*
X112599981Y-91449501D01*
X112497203Y-91460000D01*
X112497200Y-91460001D01*
X112330668Y-91515185D01*
X112330663Y-91515187D01*
X112181342Y-91607289D01*
X112057289Y-91731342D01*
X111965187Y-91880663D01*
X111965186Y-91880666D01*
X111910001Y-92047203D01*
X111910001Y-92047204D01*
X111910000Y-92047204D01*
X111899500Y-92149983D01*
X109959978Y-92149983D01*
X109956847Y-92143839D01*
X109905051Y-92042184D01*
X109897023Y-92031134D01*
X109780109Y-91870213D01*
X109629786Y-91719890D01*
X109457820Y-91594951D01*
X109268414Y-91498444D01*
X109268413Y-91498443D01*
X109268412Y-91498443D01*
X109066243Y-91432754D01*
X109066241Y-91432753D01*
X109066240Y-91432753D01*
X108904957Y-91407208D01*
X108856287Y-91399500D01*
X108643713Y-91399500D01*
X108595042Y-91407208D01*
X108433760Y-91432753D01*
X108231585Y-91498444D01*
X108042179Y-91594951D01*
X107870213Y-91719890D01*
X107719890Y-91870213D01*
X107594951Y-92042179D01*
X107498444Y-92231585D01*
X107432753Y-92433760D01*
X107399500Y-92643713D01*
X106400500Y-92643713D01*
X106400500Y-87149983D01*
X114899500Y-87149983D01*
X114899500Y-88350001D01*
X114899501Y-88350018D01*
X114910000Y-88452796D01*
X114910001Y-88452799D01*
X114965115Y-88619119D01*
X114965186Y-88619334D01*
X115057288Y-88768656D01*
X115181344Y-88892712D01*
X115330666Y-88984814D01*
X115497203Y-89039999D01*
X115599991Y-89050500D01*
X116800008Y-89050499D01*
X116902797Y-89039999D01*
X117069334Y-88984814D01*
X117218656Y-88892712D01*
X117342712Y-88768656D01*
X117434814Y-88619334D01*
X117489999Y-88452797D01*
X117500500Y-88350009D01*
X117500500Y-88349986D01*
X117900001Y-88349986D01*
X117910494Y-88452697D01*
X117965641Y-88619119D01*
X117965643Y-88619124D01*
X118057684Y-88768345D01*
X118181654Y-88892315D01*
X118330875Y-88984356D01*
X118330880Y-88984358D01*
X118497302Y-89039505D01*
X118497309Y-89039506D01*
X118600019Y-89049999D01*
X118949999Y-89049999D01*
X119450000Y-89049999D01*
X119799972Y-89049999D01*
X119799986Y-89049998D01*
X119902697Y-89039505D01*
X120069119Y-88984358D01*
X120069124Y-88984356D01*
X120218345Y-88892315D01*
X120342315Y-88768345D01*
X120434356Y-88619124D01*
X120434358Y-88619119D01*
X120489505Y-88452697D01*
X120489506Y-88452690D01*
X120499999Y-88349986D01*
X120500000Y-88349973D01*
X120500000Y-88000000D01*
X119450000Y-88000000D01*
X119450000Y-89049999D01*
X118949999Y-89049999D01*
X118950000Y-89049998D01*
X118950000Y-88000000D01*
X117900001Y-88000000D01*
X117900001Y-88349986D01*
X117500500Y-88349986D01*
X117500499Y-87710504D01*
X118900000Y-87710504D01*
X118900000Y-87789496D01*
X118920444Y-87865796D01*
X118959940Y-87934205D01*
X119015795Y-87990060D01*
X119084204Y-88029556D01*
X119160504Y-88050000D01*
X119239496Y-88050000D01*
X119315796Y-88029556D01*
X119384205Y-87990060D01*
X119440060Y-87934205D01*
X119479556Y-87865796D01*
X119500000Y-87789496D01*
X119500000Y-87710504D01*
X119479556Y-87634204D01*
X119440060Y-87565795D01*
X119384205Y-87509940D01*
X119366988Y-87500000D01*
X119450000Y-87500000D01*
X120499999Y-87500000D01*
X120499999Y-87150028D01*
X120499998Y-87150013D01*
X120489505Y-87047302D01*
X120434358Y-86880880D01*
X120434356Y-86880875D01*
X120342315Y-86731654D01*
X120218345Y-86607684D01*
X120069124Y-86515643D01*
X120069119Y-86515641D01*
X119902697Y-86460494D01*
X119902690Y-86460493D01*
X119799986Y-86450000D01*
X119450000Y-86450000D01*
X119450000Y-87500000D01*
X119366988Y-87500000D01*
X119315796Y-87470444D01*
X119239496Y-87450000D01*
X119160504Y-87450000D01*
X119084204Y-87470444D01*
X119015795Y-87509940D01*
X118959940Y-87565795D01*
X118920444Y-87634204D01*
X118900000Y-87710504D01*
X117500499Y-87710504D01*
X117500499Y-87150013D01*
X117900000Y-87150013D01*
X117900000Y-87500000D01*
X118950000Y-87500000D01*
X118950000Y-86450000D01*
X118600028Y-86450000D01*
X118600012Y-86450001D01*
X118497302Y-86460494D01*
X118330880Y-86515641D01*
X118330875Y-86515643D01*
X118181654Y-86607684D01*
X118057684Y-86731654D01*
X117965643Y-86880875D01*
X117965641Y-86880880D01*
X117910494Y-87047302D01*
X117910493Y-87047309D01*
X117900000Y-87150013D01*
X117500499Y-87150013D01*
X117500499Y-87149998D01*
X117500498Y-87149981D01*
X117489999Y-87047203D01*
X117489998Y-87047200D01*
X117434814Y-86880666D01*
X117342712Y-86731344D01*
X117218656Y-86607288D01*
X117069334Y-86515186D01*
X116902797Y-86460001D01*
X116902795Y-86460000D01*
X116800010Y-86449500D01*
X115599998Y-86449500D01*
X115599981Y-86449501D01*
X115497203Y-86460000D01*
X115497200Y-86460001D01*
X115330668Y-86515185D01*
X115330663Y-86515187D01*
X115181342Y-86607289D01*
X115057289Y-86731342D01*
X114965187Y-86880663D01*
X114965185Y-86880668D01*
X114965115Y-86880880D01*
X114910001Y-87047203D01*
X114910001Y-87047204D01*
X114910000Y-87047204D01*
X114899500Y-87149983D01*
X106400500Y-87149983D01*
X106400500Y-83599983D01*
X114899500Y-83599983D01*
X114899500Y-84800001D01*
X114899501Y-84800018D01*
X114910000Y-84902796D01*
X114910001Y-84902799D01*
X114965185Y-85069331D01*
X114965186Y-85069334D01*
X115057288Y-85218656D01*
X115181344Y-85342712D01*
X115330666Y-85434814D01*
X115497203Y-85489999D01*
X115599991Y-85500500D01*
X116800008Y-85500499D01*
X116902797Y-85489999D01*
X117069334Y-85434814D01*
X117218656Y-85342712D01*
X117342712Y-85218656D01*
X117434814Y-85069334D01*
X117489999Y-84902797D01*
X117500500Y-84800009D01*
X117500499Y-83599992D01*
X117500498Y-83599983D01*
X117899500Y-83599983D01*
X117899500Y-84800001D01*
X117899501Y-84800018D01*
X117910000Y-84902796D01*
X117910001Y-84902799D01*
X117965185Y-85069331D01*
X117965186Y-85069334D01*
X118057288Y-85218656D01*
X118181344Y-85342712D01*
X118330666Y-85434814D01*
X118497203Y-85489999D01*
X118599991Y-85500500D01*
X119800008Y-85500499D01*
X119902797Y-85489999D01*
X120069334Y-85434814D01*
X120218656Y-85342712D01*
X120342712Y-85218656D01*
X120434814Y-85069334D01*
X120489999Y-84902797D01*
X120500500Y-84800009D01*
X120500499Y-83599992D01*
X120489999Y-83497203D01*
X120434814Y-83330666D01*
X120342712Y-83181344D01*
X120218656Y-83057288D01*
X120069334Y-82965186D01*
X119902797Y-82910001D01*
X119902795Y-82910000D01*
X119800010Y-82899500D01*
X118599998Y-82899500D01*
X118599981Y-82899501D01*
X118497203Y-82910000D01*
X118497200Y-82910001D01*
X118330668Y-82965185D01*
X118330663Y-82965187D01*
X118181342Y-83057289D01*
X118057289Y-83181342D01*
X117965187Y-83330663D01*
X117965186Y-83330666D01*
X117910001Y-83497203D01*
X117910001Y-83497204D01*
X117910000Y-83497204D01*
X117899500Y-83599983D01*
X117500498Y-83599983D01*
X117489999Y-83497203D01*
X117434814Y-83330666D01*
X117342712Y-83181344D01*
X117218656Y-83057288D01*
X117069334Y-82965186D01*
X116902797Y-82910001D01*
X116902795Y-82910000D01*
X116800010Y-82899500D01*
X115599998Y-82899500D01*
X115599981Y-82899501D01*
X115497203Y-82910000D01*
X115497200Y-82910001D01*
X115330668Y-82965185D01*
X115330663Y-82965187D01*
X115181342Y-83057289D01*
X115057289Y-83181342D01*
X114965187Y-83330663D01*
X114965186Y-83330666D01*
X114910001Y-83497203D01*
X114910001Y-83497204D01*
X114910000Y-83497204D01*
X114899500Y-83599983D01*
X106400500Y-83599983D01*
X106400500Y-79947983D01*
X137383500Y-79947983D01*
X137383500Y-81148001D01*
X137383501Y-81148018D01*
X137394000Y-81250796D01*
X137394001Y-81250799D01*
X137449185Y-81417331D01*
X137449186Y-81417334D01*
X137541288Y-81566656D01*
X137665344Y-81690712D01*
X137814666Y-81782814D01*
X137981203Y-81837999D01*
X138083991Y-81848500D01*
X139284008Y-81848499D01*
X139386797Y-81837999D01*
X139553334Y-81782814D01*
X139702656Y-81690712D01*
X139826712Y-81566656D01*
X139918814Y-81417334D01*
X139973999Y-81250797D01*
X139984500Y-81148009D01*
X139984499Y-79947992D01*
X139973999Y-79845203D01*
X139918814Y-79678666D01*
X139826712Y-79529344D01*
X139702656Y-79405288D01*
X139553334Y-79313186D01*
X139386797Y-79258001D01*
X139386795Y-79258000D01*
X139284010Y-79247500D01*
X138083998Y-79247500D01*
X138083981Y-79247501D01*
X137981203Y-79258000D01*
X137981200Y-79258001D01*
X137814668Y-79313185D01*
X137814663Y-79313187D01*
X137665342Y-79405289D01*
X137541289Y-79529342D01*
X137449187Y-79678663D01*
X137449186Y-79678666D01*
X137394001Y-79845203D01*
X137394001Y-79845204D01*
X137394000Y-79845204D01*
X137383500Y-79947983D01*
X106400500Y-79947983D01*
X106400500Y-76821153D01*
X112999500Y-76821153D01*
X112999500Y-76978846D01*
X113030261Y-77133489D01*
X113030264Y-77133501D01*
X113090602Y-77279172D01*
X113090609Y-77279185D01*
X113178210Y-77410288D01*
X113178213Y-77410292D01*
X113289707Y-77521786D01*
X113289711Y-77521789D01*
X113420814Y-77609390D01*
X113420827Y-77609397D01*
X113514063Y-77648016D01*
X113566503Y-77669737D01*
X113721153Y-77700499D01*
X113721156Y-77700500D01*
X113721158Y-77700500D01*
X113878844Y-77700500D01*
X113878845Y-77700499D01*
X114033497Y-77669737D01*
X114179179Y-77609394D01*
X114310289Y-77521789D01*
X114421789Y-77410289D01*
X114509394Y-77279179D01*
X114569737Y-77133497D01*
X114600500Y-76978842D01*
X114600500Y-76821158D01*
X114600500Y-76821155D01*
X114600499Y-76821153D01*
X114586302Y-76749781D01*
X114569737Y-76666503D01*
X114569735Y-76666498D01*
X114509397Y-76520827D01*
X114509390Y-76520814D01*
X114421398Y-76389125D01*
X114400520Y-76322447D01*
X114400500Y-76320234D01*
X114400500Y-75260096D01*
X114420185Y-75193057D01*
X114436815Y-75172419D01*
X114697820Y-74911414D01*
X114759142Y-74877930D01*
X114828834Y-74882914D01*
X114884767Y-74924786D01*
X114909184Y-74990250D01*
X114909500Y-74999096D01*
X114909500Y-75146287D01*
X114942754Y-75356243D01*
X114999242Y-75530095D01*
X115008444Y-75558414D01*
X115104951Y-75747820D01*
X115229890Y-75919786D01*
X115380213Y-76070109D01*
X115552182Y-76195050D01*
X115560946Y-76199516D01*
X115611742Y-76247491D01*
X115628536Y-76315312D01*
X115605998Y-76381447D01*
X115560946Y-76420484D01*
X115552182Y-76424949D01*
X115380213Y-76549890D01*
X115229890Y-76700213D01*
X115104951Y-76872179D01*
X115008444Y-77061585D01*
X114942753Y-77263760D01*
X114909500Y-77473713D01*
X114909500Y-77686286D01*
X114942753Y-77896239D01*
X115008444Y-78098414D01*
X115104951Y-78287820D01*
X115229890Y-78459786D01*
X115380213Y-78610109D01*
X115552179Y-78735048D01*
X115552181Y-78735049D01*
X115552184Y-78735051D01*
X115741588Y-78831557D01*
X115943757Y-78897246D01*
X116153713Y-78930500D01*
X116153714Y-78930500D01*
X116366286Y-78930500D01*
X116366287Y-78930500D01*
X116576243Y-78897246D01*
X116778412Y-78831557D01*
X116967816Y-78735051D01*
X116989789Y-78719086D01*
X117139786Y-78610109D01*
X117139788Y-78610106D01*
X117139792Y-78610104D01*
X117290104Y-78459792D01*
X117290106Y-78459788D01*
X117290109Y-78459786D01*
X117415048Y-78287820D01*
X117415047Y-78287820D01*
X117415051Y-78287816D01*
X117511557Y-78098412D01*
X117577246Y-77896243D01*
X117610500Y-77686287D01*
X117610500Y-77473713D01*
X117577246Y-77263757D01*
X117511557Y-77061588D01*
X117415051Y-76872184D01*
X117415049Y-76872181D01*
X117415048Y-76872179D01*
X117290109Y-76700213D01*
X117139786Y-76549890D01*
X116967820Y-76424951D01*
X116967115Y-76424591D01*
X116959054Y-76420485D01*
X116908259Y-76372512D01*
X116891463Y-76304692D01*
X116913999Y-76238556D01*
X116959054Y-76199515D01*
X116967816Y-76195051D01*
X116990372Y-76178663D01*
X117139786Y-76070109D01*
X117139788Y-76070106D01*
X117139792Y-76070104D01*
X117290104Y-75919792D01*
X117290106Y-75919788D01*
X117290109Y-75919786D01*
X117415048Y-75747820D01*
X117415047Y-75747820D01*
X117415051Y-75747816D01*
X117511557Y-75558412D01*
X117577246Y-75356243D01*
X117610500Y-75146287D01*
X117610500Y-74933713D01*
X117577246Y-74723757D01*
X117511557Y-74521588D01*
X117415051Y-74332184D01*
X117415049Y-74332181D01*
X117415048Y-74332179D01*
X117290109Y-74160213D01*
X117139786Y-74009890D01*
X116967820Y-73884951D01*
X116967115Y-73884591D01*
X116959054Y-73880485D01*
X116908259Y-73832512D01*
X116891463Y-73764692D01*
X116913999Y-73698556D01*
X116959054Y-73659515D01*
X116967816Y-73655051D01*
X116989789Y-73639086D01*
X117139786Y-73530109D01*
X117139788Y-73530106D01*
X117139792Y-73530104D01*
X117148743Y-73521153D01*
X123199500Y-73521153D01*
X123199500Y-73678846D01*
X123230261Y-73833489D01*
X123230264Y-73833501D01*
X123290602Y-73979172D01*
X123290609Y-73979185D01*
X123378210Y-74110288D01*
X123378213Y-74110292D01*
X123489707Y-74221786D01*
X123489711Y-74221789D01*
X123620814Y-74309390D01*
X123620827Y-74309397D01*
X123675841Y-74332184D01*
X123766503Y-74369737D01*
X123876987Y-74391713D01*
X123899691Y-74396230D01*
X123961602Y-74428615D01*
X123996176Y-74489330D01*
X123999500Y-74517847D01*
X123999500Y-75521057D01*
X123979815Y-75588096D01*
X123978602Y-75589947D01*
X123930996Y-75661194D01*
X123930986Y-75661212D01*
X123870648Y-75806882D01*
X123870645Y-75806894D01*
X123839884Y-75961537D01*
X123839884Y-76119230D01*
X123870645Y-76273873D01*
X123870648Y-76273885D01*
X123930986Y-76419556D01*
X123930993Y-76419569D01*
X124018594Y-76550672D01*
X124018597Y-76550676D01*
X124130091Y-76662170D01*
X124130095Y-76662173D01*
X124261198Y-76749774D01*
X124261211Y-76749781D01*
X124406882Y-76810119D01*
X124406887Y-76810121D01*
X124561537Y-76840883D01*
X124561540Y-76840884D01*
X124561542Y-76840884D01*
X124719228Y-76840884D01*
X124719229Y-76840883D01*
X124873881Y-76810121D01*
X125019563Y-76749778D01*
X125150673Y-76662173D01*
X125262173Y-76550673D01*
X125349778Y-76419563D01*
X125410121Y-76273881D01*
X125440884Y-76119226D01*
X125440884Y-75961542D01*
X125440884Y-75961539D01*
X125440883Y-75961537D01*
X125432578Y-75919786D01*
X125410121Y-75806887D01*
X125389872Y-75758001D01*
X125349781Y-75661211D01*
X125349774Y-75661198D01*
X125262173Y-75530095D01*
X125262170Y-75530091D01*
X125236819Y-75504740D01*
X125203334Y-75443417D01*
X125200500Y-75417059D01*
X125200500Y-65479765D01*
X125220185Y-65412726D01*
X125221398Y-65410874D01*
X125225131Y-65405288D01*
X125309394Y-65279179D01*
X125369737Y-65133497D01*
X125400500Y-64978842D01*
X125400500Y-64821158D01*
X125400500Y-64821155D01*
X125400499Y-64821153D01*
X125394914Y-64793072D01*
X125369738Y-64666508D01*
X125369737Y-64666507D01*
X125369737Y-64666503D01*
X125369735Y-64666498D01*
X125309397Y-64520827D01*
X125309390Y-64520814D01*
X125221789Y-64389711D01*
X125221786Y-64389707D01*
X125110292Y-64278213D01*
X125110288Y-64278210D01*
X124979185Y-64190609D01*
X124979172Y-64190602D01*
X124833501Y-64130264D01*
X124833491Y-64130261D01*
X124700308Y-64103769D01*
X124638397Y-64071384D01*
X124603823Y-64010668D01*
X124600500Y-63982152D01*
X124600500Y-63312874D01*
X124620185Y-63245835D01*
X124672989Y-63200080D01*
X124700309Y-63191257D01*
X124808497Y-63169737D01*
X124954179Y-63109394D01*
X125085289Y-63021789D01*
X125196789Y-62910289D01*
X125284394Y-62779179D01*
X125344737Y-62633497D01*
X125375500Y-62478842D01*
X125375500Y-62321158D01*
X125375500Y-62321155D01*
X125375499Y-62321153D01*
X125357683Y-62231588D01*
X125344737Y-62166503D01*
X125293241Y-62042179D01*
X125284397Y-62020827D01*
X125284390Y-62020814D01*
X125196789Y-61889711D01*
X125196786Y-61889707D01*
X125085292Y-61778213D01*
X125085288Y-61778210D01*
X124954185Y-61690609D01*
X124954172Y-61690602D01*
X124808501Y-61630264D01*
X124808489Y-61630261D01*
X124653845Y-61599500D01*
X124653842Y-61599500D01*
X124496158Y-61599500D01*
X124496155Y-61599500D01*
X124341510Y-61630261D01*
X124341498Y-61630264D01*
X124195827Y-61690602D01*
X124195814Y-61690609D01*
X124064711Y-61778210D01*
X124064707Y-61778213D01*
X123953213Y-61889707D01*
X123953210Y-61889711D01*
X123865609Y-62020814D01*
X123865602Y-62020827D01*
X123805264Y-62166498D01*
X123805261Y-62166508D01*
X123774362Y-62321847D01*
X123765596Y-62338604D01*
X123761577Y-62357081D01*
X123742832Y-62382122D01*
X123741977Y-62383758D01*
X123740427Y-62385336D01*
X123692006Y-62433757D01*
X123631285Y-62494478D01*
X123631284Y-62494479D01*
X123624218Y-62501546D01*
X123624215Y-62501547D01*
X123624214Y-62501548D01*
X123624215Y-62501549D01*
X123519477Y-62606287D01*
X123503770Y-62633495D01*
X123503769Y-62633497D01*
X123440423Y-62743215D01*
X123399499Y-62895943D01*
X123399499Y-62895945D01*
X123399499Y-63064046D01*
X123399500Y-63064059D01*
X123399500Y-73020234D01*
X123379815Y-73087273D01*
X123378602Y-73089125D01*
X123290609Y-73220814D01*
X123290602Y-73220827D01*
X123230264Y-73366498D01*
X123230261Y-73366510D01*
X123199500Y-73521153D01*
X117148743Y-73521153D01*
X117290104Y-73379792D01*
X117290106Y-73379788D01*
X117290109Y-73379786D01*
X117415048Y-73207820D01*
X117415047Y-73207820D01*
X117415051Y-73207816D01*
X117511557Y-73018412D01*
X117577246Y-72816243D01*
X117610500Y-72606287D01*
X117610500Y-72393713D01*
X117577246Y-72183757D01*
X117563506Y-72141473D01*
X117561512Y-72071635D01*
X117593755Y-72015478D01*
X117833506Y-71775728D01*
X117833511Y-71775724D01*
X117843714Y-71765520D01*
X117843716Y-71765520D01*
X117955520Y-71653716D01*
X118034577Y-71516784D01*
X118075500Y-71364057D01*
X118075500Y-71328765D01*
X118095185Y-71261726D01*
X118096398Y-71259874D01*
X118128683Y-71211557D01*
X118184394Y-71128179D01*
X118244737Y-70982497D01*
X118275500Y-70827842D01*
X118275500Y-70670158D01*
X118275500Y-70670155D01*
X118275499Y-70670153D01*
X118244738Y-70515510D01*
X118244737Y-70515503D01*
X118232222Y-70485288D01*
X118184397Y-70369827D01*
X118184390Y-70369814D01*
X118096789Y-70238711D01*
X118096786Y-70238707D01*
X117985292Y-70127213D01*
X117985288Y-70127210D01*
X117854185Y-70039609D01*
X117854172Y-70039602D01*
X117708501Y-69979264D01*
X117702665Y-69977494D01*
X117703152Y-69975885D01*
X117648379Y-69947219D01*
X117613817Y-69886496D01*
X117610500Y-69858005D01*
X117610500Y-69853713D01*
X117610500Y-69853712D01*
X117577246Y-69643757D01*
X117511557Y-69441588D01*
X117415051Y-69252184D01*
X117415049Y-69252181D01*
X117415048Y-69252179D01*
X117290109Y-69080213D01*
X117139786Y-68929890D01*
X116967820Y-68804951D01*
X116967115Y-68804591D01*
X116959054Y-68800485D01*
X116908259Y-68752512D01*
X116891463Y-68684692D01*
X116913999Y-68618556D01*
X116959054Y-68579515D01*
X116967816Y-68575051D01*
X116989789Y-68559086D01*
X117139786Y-68450109D01*
X117139788Y-68450106D01*
X117139792Y-68450104D01*
X117290104Y-68299792D01*
X117290106Y-68299788D01*
X117290109Y-68299786D01*
X117415048Y-68127820D01*
X117415047Y-68127820D01*
X117415051Y-68127816D01*
X117511557Y-67938412D01*
X117577246Y-67736243D01*
X117610500Y-67526287D01*
X117610500Y-67313713D01*
X117577246Y-67103757D01*
X117511557Y-66901588D01*
X117415051Y-66712184D01*
X117415049Y-66712181D01*
X117415048Y-66712179D01*
X117290109Y-66540213D01*
X117139786Y-66389890D01*
X116967820Y-66264951D01*
X116967115Y-66264591D01*
X116959054Y-66260485D01*
X116908259Y-66212512D01*
X116891463Y-66144692D01*
X116913999Y-66078556D01*
X116959054Y-66039515D01*
X116967816Y-66035051D01*
X117022572Y-65995269D01*
X117139786Y-65910109D01*
X117139788Y-65910106D01*
X117139792Y-65910104D01*
X117290104Y-65759792D01*
X117290106Y-65759788D01*
X117290109Y-65759786D01*
X117415048Y-65587820D01*
X117415047Y-65587820D01*
X117415051Y-65587816D01*
X117511557Y-65398412D01*
X117577246Y-65196243D01*
X117610500Y-64986287D01*
X117610500Y-64773713D01*
X117577246Y-64563757D01*
X117511557Y-64361588D01*
X117415051Y-64172184D01*
X117415049Y-64172181D01*
X117415048Y-64172179D01*
X117290109Y-64000213D01*
X117176569Y-63886673D01*
X117143084Y-63825350D01*
X117148068Y-63755658D01*
X117189940Y-63699725D01*
X117220915Y-63682810D01*
X117352331Y-63633796D01*
X117467546Y-63547546D01*
X117553796Y-63432331D01*
X117604091Y-63297483D01*
X117610500Y-63237873D01*
X117610499Y-61442135D01*
X130149500Y-61442135D01*
X130149500Y-63237870D01*
X130149501Y-63237876D01*
X130155908Y-63297483D01*
X130206202Y-63432328D01*
X130206206Y-63432335D01*
X130292452Y-63547544D01*
X130292455Y-63547547D01*
X130407664Y-63633793D01*
X130407671Y-63633797D01*
X130452618Y-63650561D01*
X130542517Y-63684091D01*
X130602127Y-63690500D01*
X130612685Y-63690499D01*
X130679723Y-63710179D01*
X130700372Y-63726818D01*
X131370591Y-64397037D01*
X131307007Y-64414075D01*
X131192993Y-64479901D01*
X131099901Y-64572993D01*
X131034075Y-64687007D01*
X131017037Y-64750591D01*
X130384728Y-64118282D01*
X130384727Y-64118282D01*
X130345380Y-64172439D01*
X130248904Y-64361782D01*
X130183242Y-64563869D01*
X130183242Y-64563872D01*
X130150000Y-64773753D01*
X130150000Y-64986246D01*
X130183242Y-65196127D01*
X130183242Y-65196130D01*
X130248904Y-65398217D01*
X130345375Y-65587550D01*
X130384728Y-65641716D01*
X131017037Y-65009408D01*
X131034075Y-65072993D01*
X131099901Y-65187007D01*
X131192993Y-65280099D01*
X131307007Y-65345925D01*
X131370590Y-65362962D01*
X130738282Y-65995269D01*
X130738282Y-65995270D01*
X130792452Y-66034626D01*
X130792451Y-66034626D01*
X130801495Y-66039234D01*
X130852292Y-66087208D01*
X130869087Y-66155029D01*
X130846550Y-66221164D01*
X130801499Y-66260202D01*
X130792182Y-66264949D01*
X130620213Y-66389890D01*
X130469890Y-66540213D01*
X130344951Y-66712179D01*
X130248444Y-66901585D01*
X130248443Y-66901587D01*
X130248443Y-66901588D01*
X130229677Y-66959344D01*
X130182753Y-67103760D01*
X130149500Y-67313713D01*
X130149500Y-67526286D01*
X130182753Y-67736239D01*
X130182753Y-67736241D01*
X130182754Y-67736243D01*
X130237431Y-67904522D01*
X130248444Y-67938414D01*
X130344951Y-68127820D01*
X130469890Y-68299786D01*
X130620213Y-68450109D01*
X130792182Y-68575050D01*
X130800946Y-68579516D01*
X130851742Y-68627491D01*
X130868536Y-68695312D01*
X130845998Y-68761447D01*
X130800946Y-68800484D01*
X130792182Y-68804949D01*
X130620213Y-68929890D01*
X130469890Y-69080213D01*
X130344951Y-69252179D01*
X130248444Y-69441585D01*
X130182753Y-69643760D01*
X130181021Y-69654696D01*
X130149500Y-69853713D01*
X130149500Y-70066287D01*
X130182754Y-70276243D01*
X130220751Y-70393186D01*
X130248444Y-70478414D01*
X130344951Y-70667820D01*
X130469890Y-70839786D01*
X130620213Y-70990109D01*
X130792182Y-71115050D01*
X130800946Y-71119516D01*
X130851742Y-71167491D01*
X130868536Y-71235312D01*
X130845998Y-71301447D01*
X130800946Y-71340484D01*
X130792182Y-71344949D01*
X130620213Y-71469890D01*
X130469890Y-71620213D01*
X130344951Y-71792179D01*
X130248444Y-71981585D01*
X130182753Y-72183760D01*
X130149500Y-72393713D01*
X130149500Y-72606286D01*
X130175542Y-72770712D01*
X130182754Y-72816243D01*
X130237431Y-72984522D01*
X130248444Y-73018414D01*
X130344951Y-73207820D01*
X130469890Y-73379786D01*
X130620213Y-73530109D01*
X130792182Y-73655050D01*
X130800946Y-73659516D01*
X130851742Y-73707491D01*
X130868536Y-73775312D01*
X130845998Y-73841447D01*
X130800946Y-73880484D01*
X130792182Y-73884949D01*
X130620213Y-74009890D01*
X130469890Y-74160213D01*
X130344951Y-74332179D01*
X130248444Y-74521585D01*
X130182753Y-74723760D01*
X130158335Y-74877930D01*
X130149500Y-74933713D01*
X130149500Y-75146287D01*
X130182754Y-75356243D01*
X130239242Y-75530095D01*
X130248444Y-75558414D01*
X130344951Y-75747820D01*
X130469890Y-75919786D01*
X130620213Y-76070109D01*
X130792182Y-76195050D01*
X130800946Y-76199516D01*
X130851742Y-76247491D01*
X130868536Y-76315312D01*
X130845998Y-76381447D01*
X130800946Y-76420484D01*
X130792182Y-76424949D01*
X130620213Y-76549890D01*
X130469890Y-76700213D01*
X130344951Y-76872179D01*
X130248444Y-77061585D01*
X130182753Y-77263760D01*
X130149500Y-77473713D01*
X130149500Y-77686286D01*
X130182753Y-77896239D01*
X130248444Y-78098414D01*
X130344951Y-78287820D01*
X130469890Y-78459786D01*
X130620213Y-78610109D01*
X130792179Y-78735048D01*
X130792181Y-78735049D01*
X130792184Y-78735051D01*
X130981588Y-78831557D01*
X131183757Y-78897246D01*
X131393713Y-78930500D01*
X131393714Y-78930500D01*
X131606286Y-78930500D01*
X131606287Y-78930500D01*
X131816243Y-78897246D01*
X132018412Y-78831557D01*
X132207816Y-78735051D01*
X132229789Y-78719086D01*
X132379786Y-78610109D01*
X132379788Y-78610106D01*
X132379792Y-78610104D01*
X132530104Y-78459792D01*
X132530106Y-78459788D01*
X132530109Y-78459786D01*
X132655048Y-78287820D01*
X132655047Y-78287820D01*
X132655051Y-78287816D01*
X132751557Y-78098412D01*
X132817246Y-77896243D01*
X132850500Y-77686287D01*
X132850500Y-77473713D01*
X132817246Y-77263757D01*
X132751557Y-77061588D01*
X132655051Y-76872184D01*
X132655049Y-76872181D01*
X132655048Y-76872179D01*
X132530109Y-76700213D01*
X132379790Y-76549894D01*
X132373884Y-76545603D01*
X132373852Y-76545581D01*
X132239520Y-76447983D01*
X137383500Y-76447983D01*
X137383500Y-77648001D01*
X137383501Y-77648018D01*
X137394000Y-77750796D01*
X137394001Y-77750799D01*
X137442196Y-77896239D01*
X137449186Y-77917334D01*
X137541288Y-78066656D01*
X137665344Y-78190712D01*
X137814666Y-78282814D01*
X137981203Y-78337999D01*
X138083991Y-78348500D01*
X139284008Y-78348499D01*
X139386797Y-78337999D01*
X139553334Y-78282814D01*
X139702656Y-78190712D01*
X139826712Y-78066656D01*
X139918814Y-77917334D01*
X139973999Y-77750797D01*
X139984500Y-77648009D01*
X139984499Y-76447992D01*
X139978296Y-76387273D01*
X139973999Y-76345203D01*
X139973998Y-76345200D01*
X139960575Y-76304692D01*
X139918814Y-76178666D01*
X139826712Y-76029344D01*
X139702656Y-75905288D01*
X139553334Y-75813186D01*
X139386797Y-75758001D01*
X139386795Y-75758000D01*
X139284010Y-75747500D01*
X138083998Y-75747500D01*
X138083981Y-75747501D01*
X137981203Y-75758000D01*
X137981200Y-75758001D01*
X137814668Y-75813185D01*
X137814663Y-75813187D01*
X137665342Y-75905289D01*
X137541289Y-76029342D01*
X137449187Y-76178663D01*
X137449185Y-76178668D01*
X137442277Y-76199516D01*
X137394001Y-76345203D01*
X137394001Y-76345204D01*
X137394000Y-76345204D01*
X137383500Y-76447983D01*
X132239520Y-76447983D01*
X132207816Y-76424949D01*
X132191089Y-76416426D01*
X132183787Y-76411266D01*
X132167421Y-76390609D01*
X132148259Y-76372512D01*
X132146065Y-76363654D01*
X132140398Y-76356501D01*
X132137798Y-76330272D01*
X132131463Y-76304692D01*
X132134406Y-76296054D01*
X132133506Y-76286972D01*
X132145498Y-76263502D01*
X132153999Y-76238556D01*
X132161619Y-76231952D01*
X132165298Y-76224754D01*
X132179405Y-76216541D01*
X132199054Y-76199515D01*
X132207816Y-76195051D01*
X132230372Y-76178663D01*
X132379786Y-76070109D01*
X132379788Y-76070106D01*
X132379792Y-76070104D01*
X132530104Y-75919792D01*
X132530106Y-75919788D01*
X132530109Y-75919786D01*
X132655048Y-75747820D01*
X132655047Y-75747820D01*
X132655051Y-75747816D01*
X132751557Y-75558412D01*
X132817246Y-75356243D01*
X132850500Y-75146287D01*
X132850500Y-74933713D01*
X132817246Y-74723757D01*
X132751557Y-74521588D01*
X132655051Y-74332184D01*
X132655049Y-74332181D01*
X132655048Y-74332179D01*
X132530109Y-74160213D01*
X132379786Y-74009890D01*
X132207820Y-73884951D01*
X132207115Y-73884591D01*
X132199054Y-73880485D01*
X132148259Y-73832512D01*
X132131463Y-73764692D01*
X132153999Y-73698556D01*
X132199054Y-73659515D01*
X132207816Y-73655051D01*
X132229789Y-73639086D01*
X132379786Y-73530109D01*
X132379788Y-73530106D01*
X132379792Y-73530104D01*
X132530104Y-73379792D01*
X132530106Y-73379788D01*
X132530109Y-73379786D01*
X132655048Y-73207820D01*
X132655047Y-73207820D01*
X132655051Y-73207816D01*
X132751557Y-73018412D01*
X132774441Y-72947983D01*
X137383500Y-72947983D01*
X137383500Y-74148001D01*
X137383501Y-74148018D01*
X137394000Y-74250796D01*
X137394001Y-74250799D01*
X137413418Y-74309394D01*
X137449186Y-74417334D01*
X137541288Y-74566656D01*
X137665344Y-74690712D01*
X137814666Y-74782814D01*
X137981203Y-74837999D01*
X138083991Y-74848500D01*
X139284008Y-74848499D01*
X139386797Y-74837999D01*
X139553334Y-74782814D01*
X139702656Y-74690712D01*
X139826712Y-74566656D01*
X139918814Y-74417334D01*
X139973999Y-74250797D01*
X139984500Y-74148009D01*
X139984499Y-72947992D01*
X139973999Y-72845203D01*
X139918814Y-72678666D01*
X139826712Y-72529344D01*
X139702656Y-72405288D01*
X139609888Y-72348069D01*
X139553336Y-72313187D01*
X139553331Y-72313185D01*
X139551862Y-72312698D01*
X139386797Y-72258001D01*
X139386795Y-72258000D01*
X139284010Y-72247500D01*
X138083998Y-72247500D01*
X138083981Y-72247501D01*
X137981203Y-72258000D01*
X137981200Y-72258001D01*
X137814668Y-72313185D01*
X137814663Y-72313187D01*
X137665342Y-72405289D01*
X137541289Y-72529342D01*
X137449187Y-72678663D01*
X137449186Y-72678666D01*
X137394001Y-72845203D01*
X137394001Y-72845204D01*
X137394000Y-72845204D01*
X137383500Y-72947983D01*
X132774441Y-72947983D01*
X132817246Y-72816243D01*
X132850500Y-72606287D01*
X132850500Y-72393713D01*
X132817246Y-72183757D01*
X132751557Y-71981588D01*
X132655051Y-71792184D01*
X132655049Y-71792181D01*
X132655048Y-71792179D01*
X132530109Y-71620213D01*
X132379786Y-71469890D01*
X132207820Y-71344951D01*
X132207115Y-71344591D01*
X132199054Y-71340485D01*
X132148259Y-71292512D01*
X132131463Y-71224692D01*
X132153999Y-71158556D01*
X132199054Y-71119515D01*
X132207816Y-71115051D01*
X132274425Y-71066657D01*
X132379786Y-70990109D01*
X132379788Y-70990106D01*
X132379792Y-70990104D01*
X132530104Y-70839792D01*
X132530106Y-70839788D01*
X132530109Y-70839786D01*
X132655048Y-70667820D01*
X132655047Y-70667820D01*
X132655051Y-70667816D01*
X132751557Y-70478412D01*
X132817246Y-70276243D01*
X132850500Y-70066287D01*
X132850500Y-69853713D01*
X132838420Y-69777441D01*
X132847375Y-69708148D01*
X132892371Y-69654696D01*
X132936702Y-69636427D01*
X133073063Y-69609303D01*
X133218745Y-69548960D01*
X133349855Y-69461355D01*
X133363227Y-69447983D01*
X137383500Y-69447983D01*
X137383500Y-70648001D01*
X137383501Y-70648018D01*
X137394000Y-70750796D01*
X137394001Y-70750799D01*
X137449185Y-70917331D01*
X137449187Y-70917336D01*
X137454040Y-70925204D01*
X137541288Y-71066656D01*
X137665344Y-71190712D01*
X137814666Y-71282814D01*
X137981203Y-71337999D01*
X138083991Y-71348500D01*
X139284008Y-71348499D01*
X139386797Y-71337999D01*
X139553334Y-71282814D01*
X139702656Y-71190712D01*
X139826712Y-71066656D01*
X139918814Y-70917334D01*
X139973999Y-70750797D01*
X139984500Y-70648009D01*
X139984499Y-69447992D01*
X139973999Y-69345203D01*
X139918814Y-69178666D01*
X139826712Y-69029344D01*
X139702656Y-68905288D01*
X139553334Y-68813186D01*
X139386797Y-68758001D01*
X139386795Y-68758000D01*
X139284010Y-68747500D01*
X138083998Y-68747500D01*
X138083981Y-68747501D01*
X137981203Y-68758000D01*
X137981200Y-68758001D01*
X137814668Y-68813185D01*
X137814663Y-68813187D01*
X137665342Y-68905289D01*
X137541289Y-69029342D01*
X137449187Y-69178663D01*
X137449185Y-69178668D01*
X137421349Y-69262670D01*
X137394001Y-69345203D01*
X137394001Y-69345204D01*
X137394000Y-69345204D01*
X137383500Y-69447983D01*
X133363227Y-69447983D01*
X133369625Y-69441585D01*
X133454058Y-69357153D01*
X133461352Y-69349858D01*
X133461355Y-69349855D01*
X133548960Y-69218745D01*
X133609303Y-69073063D01*
X133640066Y-68918408D01*
X133640066Y-68760724D01*
X133640066Y-68760721D01*
X133640065Y-68760719D01*
X133639524Y-68758000D01*
X133609303Y-68606069D01*
X133609301Y-68606064D01*
X133548963Y-68460393D01*
X133548956Y-68460380D01*
X133461355Y-68329277D01*
X133461352Y-68329273D01*
X133349858Y-68217779D01*
X133349854Y-68217776D01*
X133218751Y-68130175D01*
X133218738Y-68130168D01*
X133073067Y-68069830D01*
X133073057Y-68069827D01*
X133017580Y-68058792D01*
X133000823Y-68050026D01*
X132982345Y-68046007D01*
X132957308Y-68027264D01*
X132955669Y-68026407D01*
X132954091Y-68024856D01*
X132833757Y-67904522D01*
X132800272Y-67843199D01*
X132803507Y-67778523D01*
X132817246Y-67736243D01*
X132850500Y-67526287D01*
X132850500Y-67313713D01*
X132817246Y-67103757D01*
X132751557Y-66901588D01*
X132655051Y-66712184D01*
X132655049Y-66712181D01*
X132655048Y-66712179D01*
X132530109Y-66540213D01*
X132379786Y-66389890D01*
X132207817Y-66264949D01*
X132198504Y-66260204D01*
X132147707Y-66212230D01*
X132130912Y-66144409D01*
X132150523Y-66082617D01*
X132228260Y-65961813D01*
X132214430Y-65947983D01*
X137383500Y-65947983D01*
X137383500Y-67148001D01*
X137383501Y-67148018D01*
X137394000Y-67250796D01*
X137394001Y-67250799D01*
X137414849Y-67313713D01*
X137449186Y-67417334D01*
X137541288Y-67566656D01*
X137665344Y-67690712D01*
X137814666Y-67782814D01*
X137981203Y-67837999D01*
X138083991Y-67848500D01*
X139284008Y-67848499D01*
X139386797Y-67837999D01*
X139553334Y-67782814D01*
X139702656Y-67690712D01*
X139826712Y-67566656D01*
X139918814Y-67417334D01*
X139973999Y-67250797D01*
X139984500Y-67148009D01*
X139984499Y-65947992D01*
X139973999Y-65845203D01*
X139918814Y-65678666D01*
X139826712Y-65529344D01*
X139702656Y-65405288D01*
X139553334Y-65313186D01*
X139386797Y-65258001D01*
X139386795Y-65258000D01*
X139284010Y-65247500D01*
X138083998Y-65247500D01*
X138083981Y-65247501D01*
X137981203Y-65258000D01*
X137981200Y-65258001D01*
X137814668Y-65313185D01*
X137814663Y-65313187D01*
X137665342Y-65405289D01*
X137541289Y-65529342D01*
X137449187Y-65678663D01*
X137449186Y-65678666D01*
X137394001Y-65845203D01*
X137394001Y-65845204D01*
X137394000Y-65845204D01*
X137383500Y-65947983D01*
X132214430Y-65947983D01*
X131629408Y-65362962D01*
X131692993Y-65345925D01*
X131807007Y-65280099D01*
X131900099Y-65187007D01*
X131965925Y-65072993D01*
X131982962Y-65009409D01*
X132615270Y-65641717D01*
X132615270Y-65641716D01*
X132654622Y-65587554D01*
X132751095Y-65398217D01*
X132816757Y-65196130D01*
X132816757Y-65196127D01*
X132850000Y-64986246D01*
X132850000Y-64773753D01*
X132816757Y-64563872D01*
X132816757Y-64563869D01*
X132751095Y-64361782D01*
X132654624Y-64172449D01*
X132615270Y-64118282D01*
X132615269Y-64118282D01*
X131982962Y-64750590D01*
X131965925Y-64687007D01*
X131900099Y-64572993D01*
X131807007Y-64479901D01*
X131692993Y-64414075D01*
X131629409Y-64397037D01*
X132299627Y-63726818D01*
X132360950Y-63693333D01*
X132387307Y-63690499D01*
X132397872Y-63690499D01*
X132457483Y-63684091D01*
X132592331Y-63633796D01*
X132707546Y-63547546D01*
X132793796Y-63432331D01*
X132844091Y-63297483D01*
X132850500Y-63237873D01*
X132850499Y-62643713D01*
X137399500Y-62643713D01*
X137399500Y-62856286D01*
X137425712Y-63021786D01*
X137432754Y-63066243D01*
X137491107Y-63245835D01*
X137498444Y-63268414D01*
X137594951Y-63457820D01*
X137719890Y-63629786D01*
X137870213Y-63780109D01*
X138042179Y-63905048D01*
X138042181Y-63905049D01*
X138042184Y-63905051D01*
X138231588Y-64001557D01*
X138433757Y-64067246D01*
X138643713Y-64100500D01*
X138643714Y-64100500D01*
X138856286Y-64100500D01*
X138856287Y-64100500D01*
X139066243Y-64067246D01*
X139268412Y-64001557D01*
X139457816Y-63905051D01*
X139483111Y-63886673D01*
X139629786Y-63780109D01*
X139629788Y-63780106D01*
X139629792Y-63780104D01*
X139780104Y-63629792D01*
X139780106Y-63629788D01*
X139780109Y-63629786D01*
X139905048Y-63457820D01*
X139905047Y-63457820D01*
X139905051Y-63457816D01*
X140001557Y-63268412D01*
X140067246Y-63066243D01*
X140100500Y-62856287D01*
X140100500Y-62643713D01*
X140067246Y-62433757D01*
X140001557Y-62231588D01*
X139905051Y-62042184D01*
X139905049Y-62042181D01*
X139905048Y-62042179D01*
X139780109Y-61870213D01*
X139629786Y-61719890D01*
X139457820Y-61594951D01*
X139268414Y-61498444D01*
X139268413Y-61498443D01*
X139268412Y-61498443D01*
X139066243Y-61432754D01*
X139066241Y-61432753D01*
X139066240Y-61432753D01*
X138904957Y-61407208D01*
X138856287Y-61399500D01*
X138643713Y-61399500D01*
X138595042Y-61407208D01*
X138433760Y-61432753D01*
X138231585Y-61498444D01*
X138042179Y-61594951D01*
X137870213Y-61719890D01*
X137719890Y-61870213D01*
X137594951Y-62042179D01*
X137498444Y-62231585D01*
X137432753Y-62433760D01*
X137399500Y-62643713D01*
X132850499Y-62643713D01*
X132850499Y-62338604D01*
X132850499Y-61442129D01*
X132850498Y-61442123D01*
X132850497Y-61442116D01*
X132844091Y-61382517D01*
X132793796Y-61247669D01*
X132793795Y-61247668D01*
X132793793Y-61247664D01*
X132707547Y-61132455D01*
X132707544Y-61132452D01*
X132592335Y-61046206D01*
X132592328Y-61046202D01*
X132457482Y-60995908D01*
X132457483Y-60995908D01*
X132397883Y-60989501D01*
X132397881Y-60989500D01*
X132397873Y-60989500D01*
X132397864Y-60989500D01*
X130602129Y-60989500D01*
X130602123Y-60989501D01*
X130542516Y-60995908D01*
X130407671Y-61046202D01*
X130407664Y-61046206D01*
X130292455Y-61132452D01*
X130292452Y-61132455D01*
X130206206Y-61247664D01*
X130206202Y-61247671D01*
X130155908Y-61382517D01*
X130149501Y-61442116D01*
X130149501Y-61442123D01*
X130149500Y-61442135D01*
X117610499Y-61442135D01*
X117610499Y-61442128D01*
X117604091Y-61382517D01*
X117553796Y-61247669D01*
X117553795Y-61247668D01*
X117553793Y-61247664D01*
X117467547Y-61132455D01*
X117467544Y-61132452D01*
X117352335Y-61046206D01*
X117352328Y-61046202D01*
X117217482Y-60995908D01*
X117217483Y-60995908D01*
X117157883Y-60989501D01*
X117157881Y-60989500D01*
X117157873Y-60989500D01*
X117157864Y-60989500D01*
X115362129Y-60989500D01*
X115362123Y-60989501D01*
X115302516Y-60995908D01*
X115167671Y-61046202D01*
X115167664Y-61046206D01*
X115052455Y-61132452D01*
X115052452Y-61132455D01*
X114966206Y-61247664D01*
X114966202Y-61247671D01*
X114915908Y-61382517D01*
X114909501Y-61442116D01*
X114909501Y-61442123D01*
X114909500Y-61442135D01*
X114909500Y-63237870D01*
X114909501Y-63237876D01*
X114915908Y-63297483D01*
X114966202Y-63432328D01*
X114966206Y-63432335D01*
X115052452Y-63547544D01*
X115052455Y-63547547D01*
X115167664Y-63633793D01*
X115167671Y-63633797D01*
X115299082Y-63682810D01*
X115355016Y-63724681D01*
X115379433Y-63790145D01*
X115364582Y-63858418D01*
X115343431Y-63886673D01*
X115229889Y-64000215D01*
X115104951Y-64172179D01*
X115008444Y-64361585D01*
X114942753Y-64563760D01*
X114909500Y-64773713D01*
X114909500Y-64986286D01*
X114942735Y-65196127D01*
X114942754Y-65196243D01*
X114980751Y-65313186D01*
X115008444Y-65398414D01*
X115104951Y-65587820D01*
X115229890Y-65759786D01*
X115380213Y-65910109D01*
X115552182Y-66035050D01*
X115560946Y-66039516D01*
X115611742Y-66087491D01*
X115628536Y-66155312D01*
X115605998Y-66221447D01*
X115560946Y-66260484D01*
X115552182Y-66264949D01*
X115380213Y-66389890D01*
X115229890Y-66540213D01*
X115104951Y-66712179D01*
X115008444Y-66901585D01*
X115008443Y-66901587D01*
X115008443Y-66901588D01*
X114989677Y-66959344D01*
X114942753Y-67103760D01*
X114909500Y-67313713D01*
X114909500Y-67526286D01*
X114942753Y-67736239D01*
X114942753Y-67736241D01*
X114942754Y-67736243D01*
X114997431Y-67904522D01*
X115008444Y-67938414D01*
X115104951Y-68127820D01*
X115229890Y-68299786D01*
X115380213Y-68450109D01*
X115552182Y-68575050D01*
X115560946Y-68579516D01*
X115611742Y-68627491D01*
X115628536Y-68695312D01*
X115605998Y-68761447D01*
X115560946Y-68800484D01*
X115552182Y-68804949D01*
X115380213Y-68929890D01*
X115229890Y-69080213D01*
X115104951Y-69252179D01*
X115008444Y-69441585D01*
X114942753Y-69643760D01*
X114941021Y-69654696D01*
X114909500Y-69853713D01*
X114909500Y-70066287D01*
X114942754Y-70276243D01*
X114980751Y-70393186D01*
X115008444Y-70478414D01*
X115104951Y-70667820D01*
X115229890Y-70839786D01*
X115380213Y-70990109D01*
X115552182Y-71115050D01*
X115560946Y-71119516D01*
X115611742Y-71167491D01*
X115628536Y-71235312D01*
X115605998Y-71301447D01*
X115560946Y-71340484D01*
X115552182Y-71344949D01*
X115380213Y-71469890D01*
X115229890Y-71620213D01*
X115104951Y-71792179D01*
X115008444Y-71981585D01*
X114942753Y-72183760D01*
X114909500Y-72393713D01*
X114909500Y-72606286D01*
X114942754Y-72816244D01*
X114942754Y-72816247D01*
X114956491Y-72858523D01*
X114958486Y-72928364D01*
X114926241Y-72984522D01*
X113431286Y-74479478D01*
X113319481Y-74591282D01*
X113319479Y-74591285D01*
X113269361Y-74678094D01*
X113269359Y-74678096D01*
X113240425Y-74728209D01*
X113240424Y-74728210D01*
X113240423Y-74728215D01*
X113199499Y-74880943D01*
X113199499Y-74880945D01*
X113199499Y-75049046D01*
X113199500Y-75049059D01*
X113199500Y-76320234D01*
X113179815Y-76387273D01*
X113178602Y-76389125D01*
X113090609Y-76520814D01*
X113090602Y-76520827D01*
X113030264Y-76666498D01*
X113030261Y-76666510D01*
X112999500Y-76821153D01*
X106400500Y-76821153D01*
X106400500Y-71027983D01*
X106903500Y-71027983D01*
X106903500Y-72228001D01*
X106903501Y-72228018D01*
X106914000Y-72330796D01*
X106914001Y-72330799D01*
X106969185Y-72497331D01*
X106969187Y-72497336D01*
X106988930Y-72529344D01*
X107061288Y-72646656D01*
X107185344Y-72770712D01*
X107334666Y-72862814D01*
X107501203Y-72917999D01*
X107603991Y-72928500D01*
X108804008Y-72928499D01*
X108906797Y-72917999D01*
X109073334Y-72862814D01*
X109222656Y-72770712D01*
X109346712Y-72646656D01*
X109438814Y-72497334D01*
X109493999Y-72330797D01*
X109504500Y-72228009D01*
X109504499Y-71027992D01*
X109493999Y-70925203D01*
X109438814Y-70758666D01*
X109346712Y-70609344D01*
X109222656Y-70485288D01*
X109073334Y-70393186D01*
X108906797Y-70338001D01*
X108906795Y-70338000D01*
X108804010Y-70327500D01*
X107603998Y-70327500D01*
X107603981Y-70327501D01*
X107501203Y-70338000D01*
X107501200Y-70338001D01*
X107334668Y-70393185D01*
X107334663Y-70393187D01*
X107185342Y-70485289D01*
X107061289Y-70609342D01*
X106969187Y-70758663D01*
X106969186Y-70758666D01*
X106914001Y-70925203D01*
X106914001Y-70925204D01*
X106914000Y-70925204D01*
X106903500Y-71027983D01*
X106400500Y-71027983D01*
X106400500Y-67377983D01*
X106903500Y-67377983D01*
X106903500Y-68578001D01*
X106903501Y-68578018D01*
X106914000Y-68680796D01*
X106914001Y-68680799D01*
X106957870Y-68813185D01*
X106969186Y-68847334D01*
X107061288Y-68996656D01*
X107185344Y-69120712D01*
X107334666Y-69212814D01*
X107501203Y-69267999D01*
X107603991Y-69278500D01*
X108804008Y-69278499D01*
X108906797Y-69267999D01*
X109073334Y-69212814D01*
X109222656Y-69120712D01*
X109346712Y-68996656D01*
X109438814Y-68847334D01*
X109493999Y-68680797D01*
X109504500Y-68578009D01*
X109504499Y-67377992D01*
X109493999Y-67275203D01*
X109438814Y-67108666D01*
X109346712Y-66959344D01*
X109222656Y-66835288D01*
X109073334Y-66743186D01*
X108906797Y-66688001D01*
X108906795Y-66688000D01*
X108804010Y-66677500D01*
X107603998Y-66677500D01*
X107603981Y-66677501D01*
X107501203Y-66688000D01*
X107501200Y-66688001D01*
X107334668Y-66743185D01*
X107334663Y-66743187D01*
X107185342Y-66835289D01*
X107061289Y-66959342D01*
X106969187Y-67108663D01*
X106969185Y-67108668D01*
X106956146Y-67148018D01*
X106914001Y-67275203D01*
X106914001Y-67275204D01*
X106914000Y-67275204D01*
X106903500Y-67377983D01*
X106400500Y-67377983D01*
X106400500Y-62753750D01*
X106400726Y-62746263D01*
X106400911Y-62743213D01*
X106406929Y-62643713D01*
X107399500Y-62643713D01*
X107399500Y-62856286D01*
X107425712Y-63021786D01*
X107432754Y-63066243D01*
X107491107Y-63245835D01*
X107498444Y-63268414D01*
X107594951Y-63457820D01*
X107719890Y-63629786D01*
X107870213Y-63780109D01*
X108042179Y-63905048D01*
X108042181Y-63905049D01*
X108042184Y-63905051D01*
X108231588Y-64001557D01*
X108433757Y-64067246D01*
X108643713Y-64100500D01*
X108643714Y-64100500D01*
X108856286Y-64100500D01*
X108856287Y-64100500D01*
X109066243Y-64067246D01*
X109268412Y-64001557D01*
X109457816Y-63905051D01*
X109483111Y-63886673D01*
X109629786Y-63780109D01*
X109629788Y-63780106D01*
X109629792Y-63780104D01*
X109780104Y-63629792D01*
X109780106Y-63629788D01*
X109780109Y-63629786D01*
X109905048Y-63457820D01*
X109905047Y-63457820D01*
X109905051Y-63457816D01*
X110001557Y-63268412D01*
X110067246Y-63066243D01*
X110100500Y-62856287D01*
X110100500Y-62643713D01*
X110067246Y-62433757D01*
X110001557Y-62231588D01*
X109905051Y-62042184D01*
X109905049Y-62042181D01*
X109905048Y-62042179D01*
X109780109Y-61870213D01*
X109629786Y-61719890D01*
X109457820Y-61594951D01*
X109268414Y-61498444D01*
X109268413Y-61498443D01*
X109268412Y-61498443D01*
X109066243Y-61432754D01*
X109066241Y-61432753D01*
X109066240Y-61432753D01*
X108904957Y-61407208D01*
X108856287Y-61399500D01*
X108643713Y-61399500D01*
X108595042Y-61407208D01*
X108433760Y-61432753D01*
X108231585Y-61498444D01*
X108042179Y-61594951D01*
X107870213Y-61719890D01*
X107719890Y-61870213D01*
X107594951Y-62042179D01*
X107498444Y-62231585D01*
X107432753Y-62433760D01*
X107399500Y-62643713D01*
X106406929Y-62643713D01*
X106417178Y-62474280D01*
X106418983Y-62459420D01*
X106467422Y-62195091D01*
X106471001Y-62180573D01*
X106550948Y-61924012D01*
X106556250Y-61910032D01*
X106666549Y-61664958D01*
X106673494Y-61651725D01*
X106812527Y-61421736D01*
X106821014Y-61409440D01*
X106986757Y-61197885D01*
X106996672Y-61186694D01*
X107186694Y-60996672D01*
X107197885Y-60986757D01*
X107409440Y-60821014D01*
X107421736Y-60812527D01*
X107651725Y-60673494D01*
X107664958Y-60666549D01*
X107910032Y-60556250D01*
X107924012Y-60550948D01*
X108180573Y-60471001D01*
X108195091Y-60467422D01*
X108459423Y-60418982D01*
X108474280Y-60417178D01*
X108746264Y-60400726D01*
X108753751Y-60400500D01*
X108815892Y-60400500D01*
X138684108Y-60400500D01*
X138746249Y-60400500D01*
X138753736Y-60400726D01*
G37*
%TD.AperFunction*%
%TD*%
M02*
