M48
; DRILL file {KiCad 9.0.7} date 2026-02-16T17:50:54-0500
; FORMAT={-:-/ absolute / metric / decimal}
; #@! TF.CreationDate,2026-02-16T17:50:54-05:00
; #@! TF.GenerationSoftware,Kicad,Pcbnew,9.0.7
; #@! TF.FileFunction,Plated,1,2,PTH
FMAT,2
METRIC
; #@! TA.AperFunction,Plated,PTH,ViaDrill
T1C0.300
; #@! TA.AperFunction,Plated,PTH,ComponentDrill
T2C0.600
; #@! TA.AperFunction,Plated,PTH,ComponentDrill
T3C1.000
%
G90
G05
T1
X106.7Y-81.9
X106.725Y-69.775
X106.9Y-65.4
X107.1Y-93.7
X107.275Y-61.5
X107.5Y-73.375
X107.6Y-90.8
X107.9Y-77.9
X108.1Y-86.1
X109.2Y-81.9
X110.225Y-75.4
X110.3Y-64.4
X110.3Y-94.4
X110.35Y-69.725
X110.725Y-66.55
X110.75Y-60.775
X110.8Y-72.85
X111.75Y-88.0
X111.76Y-79.865
X112.3Y-81.7
X112.775Y-65.25
X112.8Y-79.3
X112.825Y-62.05
X112.9Y-87.5
X113.1Y-90.1
X113.5Y-94.8
X113.775Y-69.775
X113.8Y-76.9
X113.975Y-72.8
X114.7Y-84.2
X115.4Y-80.3
X115.6Y-82.1
X116.7Y-90.5
X117.0Y-94.8
X117.4Y-80.0
X117.475Y-70.749
X118.0Y-64.9
X118.0Y-87.7
X118.2Y-62.4
X119.0Y-61.6
X119.0Y-65.7
X119.1Y-78.3
X119.2Y-86.7
X119.2Y-88.9
X119.5Y-69.5
X119.8Y-94.8
X120.3Y-87.8
X120.8Y-76.5
X121.3Y-66.4
X121.3Y-82.6
X121.7Y-63.7
X121.8Y-61.4
X122.1Y-70.3
X122.4Y-74.1
X122.5Y-94.8
X123.6Y-80.0
X123.6Y-85.1
X124.0Y-73.6
X124.575Y-62.4
X124.6Y-64.9
X124.64Y-76.04
X125.2Y-94.8
X125.6Y-63.6
X126.0Y-76.8
X126.0Y-82.4
X126.5Y-68.3
X126.9Y-61.9
X128.3Y-65.6
X128.3Y-94.8
X128.6Y-74.2
X128.6Y-78.9
X130.7Y-64.1
X130.7Y-65.7
X130.9Y-94.8
X132.84Y-68.84
X133.8Y-94.8
X134.5Y-60.9
X134.7Y-66.6
X135.1Y-69.5
X135.7Y-80.9
X135.7Y-83.9
X135.8Y-72.4
X135.8Y-75.1
X135.8Y-77.9
X136.5Y-61.9
X136.7Y-94.7
X136.8Y-84.5
X137.2Y-90.6
X137.8Y-68.4
X137.8Y-87.7
X137.9Y-64.3
X139.4Y-61.0
X139.9Y-94.1
X140.0Y-86.0
X140.1Y-90.8
X140.5Y-81.1
X140.7Y-65.8
X140.7Y-68.7
X140.7Y-73.2
X140.8Y-77.1
T2
X108.204Y-67.978
X108.204Y-71.628
X113.2Y-92.75
X116.2Y-84.2
X116.2Y-87.75
X119.2Y-84.2
X119.2Y-87.75
X120.2Y-92.75
X127.2Y-92.75
X134.2Y-92.75
X138.684Y-66.548
X138.684Y-70.048
X138.684Y-73.548
X138.684Y-77.048
X138.684Y-80.548
T3
X116.26Y-62.34
X116.26Y-64.88
X116.26Y-67.42
X116.26Y-69.96
X116.26Y-72.5
X116.26Y-75.04
X116.26Y-77.58
X131.5Y-62.34
X131.5Y-64.88
X131.5Y-67.42
X131.5Y-69.96
X131.5Y-72.5
X131.5Y-75.04
X131.5Y-77.58
M30
